<mxfile host="app.diagrams.net" modified="2023-09-14T03:30:41.011Z" agent="Mozilla/5.0 (Windows NT 10.0; Win64; x64) AppleWebKit/537.36 (KHTML, like Gecko) Chrome/115.0.0.0 Safari/537.36" etag="7ef_bE_lx7pwwKjgRsB6" version="21.7.5" type="device">
  <diagram name="第 1 页" id="eVFCfAnw_mkO8PXEwSEw">
    <mxGraphModel dx="1790" dy="933" grid="1" gridSize="10" guides="1" tooltips="1" connect="1" arrows="1" fold="1" page="1" pageScale="1" pageWidth="1600" pageHeight="900" math="0" shadow="0">
      <root>
        <mxCell id="0" />
        <mxCell id="1" parent="0" />
        <mxCell id="tvrvrnsWNNNO1hUHJI35-1" value="" style="shape=image;verticalLabelPosition=bottom;labelBackgroundColor=default;verticalAlign=top;aspect=fixed;imageAspect=0;image=data:image/png,iVBORw0KGgoAAAANSUhEUgAAAYAAAAJ/CAYAAABx6wTuAAAABmJLR0QA/wD/AP+gvaeTAAAgAElEQVR4nOzdf2wb530/8DcdO01rtPS8Vm6c1m0XzJgtY2qztnA3DK4db2ndHls0lhwqUbw/ZO2IdUAbs0AjkKAMC0b/OKXFFwZskPqnEDAyUv4isf6CqMFGEQkBBpCAqEBCYYByloA3FCM9bMCSOs/3D/c5HY9H6kiRPJL3fgGErfv53HPPPR8+P0j6hBACRETkNUv73E4BERG5gwGAiMijGACIiDyKAYCIyKP2Wxesrq7itddecyMtRETUIUtLSzXLaloA9+/fxxtvvNGVBBG56Y033sA777zjdjJ62traGtbW1txOBu3BO++8U7dOr2kBSHbRgmiQ+Hw+/PCHP8TY2JjbSelZo6OjAFgf9LPFxUVcunTJdh3HAIiIPIoBgIjIoxgAiIg8igGAiMijGACIiDyKAYCIyKMYAIiIPIoBgIjIozwdAHRdRyqVQiAQMJZFo1FEo9GOnrcb5+imQbueZnn9+q18Pl/Vy46u65ibm+tyynrf3NwcKpWK7Ton+dosTweAWCyGYDCITCbTsXNUKpW23ax20nUd0WjUKEypVMrtJLWsV/O4W3r1+oUQsPu9KV3XEYvFcPDgQaP81Qug1kqvF69T2t7eRigUgs/nQygUwsrKiu12mUwGgUAAgUCgpu45f/48JiYmoOt6zX718nNPhMXrr78ubBYPLAAdvd50Ot1z+VkqlcTq6qrxdzKZFACEpmkupqp1reYxAPH66693IEXd1ckydvHiRXHx4sWm9mn0TJXLZaEoilH+yuWyUf4ikYjtPqVSSQAQpVKpucR3UblcFul02vi/vCa5TEomk0JRFFEul0W5XBaqqop4PF61zerqqrGNnWbrrAZ1+iIDQAcDgCzsvZaf5spf6nQg7JS95PEgBIBOl7F2BwBN02wrerlPMpmse8xeZq3ohajNh2KxKABUPX+5XE4AELlcrmpfVVXrviFrZwDYcxeQtR89k8nA5/MhEAhge3u7attKpYJUKmU05RKJRFVTR9d1o3lUqVQQCoUQjUbrniMUChnnkMc1L5PnTCQSVU1Nu+aV3bUA9k1QeX27HV/TNKOJJ9fbncNp3jjN592cPn265twAEIlEmjqOXbqcpNN8nwEY+RcKhbC1tWUc267Zb11ml8fd1KvX34vjErquIxwO4+zZs7brNU1DMBh03B3ZzmdGjknI9fW6b+pRFMV2uaqqxv/ffPNNAMDRo0eNZU8++SQA4K233qrab3R0FOFwuG5d1TZNRAtb8t0HTJFNRjpVVWu2lc2dUqkkFEWpaupYj5XL5YSqqlXLZaRcXV01ztHovKqqGs1Hu/UwRVPzeczrzU1P2dwuFotNH7/eOVrJm0b53IxisSgikYgAIDY3N5ve33o9TtIp15u3kc1hczpk09+cV/JY1nvUTJk177fXFkCvXn8kEqnbpdKMdrYArM+OdR8hhFEWre+I7Y7XrmdG7itbH9ls1jYNzSiXyzVdQPL+2l27oihVy2Q6nbQsdtPxLiC7BFmXyUw1V6ayEjc3++R+1v4vJ+ewWxaJRBpWyM1UJpubmwKAyGazLR/fblmzebNbHjhlrkyA1scAWrlmu21kc9icjlaP5TTd7egC6tfrd6KdAUBW7vX2EaK6S8v8hsS6XzufGdlfb91mLwE0m83W9OPXyxe75TKA2D2TfRkA7KKfvEhz9Gsmk5qpEIvFotA0reUAIN8l1KsknR7fbtle8qYdD38ulzMeTuuAlBPtqgDbfSwn6e6lANDuY7VDOwNAo3Sal8uWj6IoRgVv3a+dz4y5pWB9tco80N0oLe1cXk9PBIC9FHin56i3LB6PC0VRjHfwrQSASCRS00xr5fh7ueZOBQAhhG3anXL7mhkABisACLHTGpLvop2W+17Iv2QyaftGqt5gPWDfjduNANC1zwHIQRK7QQ3zQEm7pVIpTE1N4ebNmzh+/HhLx0gkEpidncXNmzc7cny38sas1bR3QreuuVd5/foBYGRkBOl0GplMBpqm1azvxDNjHoBvVT6fR6FQwJUrV2rW2aVZDkY/88wzez53K7oWAMbHxwEA9+7dM5bJ2SfyZ+c6IRgMAgCOHTvW0v5ra2uYmppCNpu1PcZejw+4lzdm8nzJZLIr57MjH8ALFy64lgY3Dfr1y4q83iddrRRFQTKZxOzsbM26dj4z8XgcALCwsGAco5VPKuu6juXlZVy/ft1Yls/nEQqFAADPPfdcTZrffffdqnVWrczMa0oTzQVb5pkKcsBDNtmAnUEaObhj7tdLJpM1o/Gwad7YncO8TB7PbplsdhWLxapujlKpVLO99W85SGrt95fb7XZ88/pSqSQ0TbNNY7N50yifnZBjGXI2RrlcbnnWSKM8bJRO+bccsJNpsHazWWfGyIE+mJrN1jx2Cm3oAurV6++nWUC7fdDLbvC4nc+MeTvzS6ZTju01mhUkxwjtjmOeyROPx4Wqqg0/CCZEH80Csl5svWVCPMqkeDxeVfjtRskB+4Gc3c5ht0z2JUYiEVEqlYxZO9YZMHavRoNDTo5vt74debNbPu9GPojypWma7YfDnNgtD3dLey6XM/I5Ho/XzP4qFovGevkwyCl78gG25nEzad9rAOjV6+/FACDLv7ms1cszK7vxt3Y+M+bp0ObnV4idmX71xgCF2AnUdi/r9Gr5/CmKUjWj0EwGervy3M4A4PvjAQ3yF+Qti4naSn5gyc1y5vP58Prrr2NsbMyVcwPuXr8TsjtlaWnJ8T6Nrk12q1y9erUNqeuuQCCAdDrdlXNFo1EcOnTINp+aLTsN6vQlT38ZHBF11+TkJO7cuYO1tTW3k9KUtbU1TE9Pd+Vc+Xwe+Xwek5OTHT8XAwB1nfXj+l7j5ev3+/2Yn5/HjRs3kM/n3U6OIysrKzh8+HDNV6h0wtbWFm7fvo35+Xn4/f6On48BYIDU+96iVr5Ot53Hsjpy5Ijt/73CK9dfr4wMDQ1hYWEBy8vLLqSqeefOnevaNOlMJoNr165haGioZl0nvutqf1uPRq5qZ39yJ/ume73fu9MG/fqdXJ/f7+/LcYBOa5QnnSg3bAEQEXkUAwARkUcxABAReVTdMYBe/u1Nona5dOkSLl265HYyeh7rg8FUNwC8/vrr3UwHUdddunQJP/jBD/C1r33N7aT0rJ/+9KcAgB/+8Icup4Ratbq6ip/97Ge26+oGADc+HUnUTZcuXcLXvvY1lvUG5CeAmUf9rV4A4BgAEZFHMQAQEXkUAwARkUcxABAReRQDABGRRzEAEBF5FAMAEZFHMQAQEXkUAwARtZWT34zQdd34eUjaMTc3h0qlYruuHb/FYeWZANDOHzTZq0qlUnXuXkobdYe1DPTb8Z0QQth+h72u64jFYjh48KBR1qPRqO0x+um52N7eRigUgs/nQygUwsrKiu12mUwGgUAAgUAAmUymat358+cxMTFh+0tx9fJzLzwTAIQQKJfLxt/lctm1H+a4e/du1d9CCJRKJeNvN9NG3WEtA/12/FZVKhVMTk7i8uXLUFUV5XIZyWQSs7OztkHA/GyUSqWefS4qlQry+Txu3bqFcrmMM2fO4Nlnn62p4FOpFBKJBBYWFrCwsIBf/OIXSCQSxvqRkRFMT09jcnKybkugnTwTAABU/cZmN35v006lUqm64ZL5J+DcSht1R70y0C/H34v5+XmMjIwYv6/r9/vxwgsvAABmZ2eRSqVq9pHPht3PJPaKu3fvQlEUANXXFAgEjG22t7cRDAYxPT0Nv98Pv98PVVUxNTVV9fvIp0+fxlNPPYX5+fmOp9tTAcCOrutIpVLGjcpkMvD5fAgEAtje3ja2kc02AEgkEkYzb2tryziWXTPVukzTNONdQatNWvmAm5vPsk/VfD5zH6t5nfm65PJAIGA0Wc3XW6lUEAqF6jbRvaZSqSCVShl5mUgkqprrrZaBbpSxaDTq6n3UdR3hcBhnz561Xa9pGoLBoG0QsLPbvXDybJu3tXsWnJKVv5Wqqsb/33zzTQDA0aNHjWVPPvkkAOCtt96q2m90dBThcNi2K6ithMXrr78ubBYPDABV16coirFsdXVVCCFEsVgUAISqqlX7mLcpl8tCVVUBQGxubgohhCiVSjXHl8cyL7P+vdtyK3neUqlUk9bV1dWqv80URRGlUslIq6IoIplMCiGEyGazAoDI5XI1eZLL5WyP1+8AiNdff72pfRRFEfF4XAixk4eKoohyuWwsa6UMdKOMRSIREYlEmrreixcviosXLza1T71ynE6nBQBRLBZt95FplOXQbr3ZbvfCybNt3tfuWWhVuVwWAEQ6nTaWyXtpd+2KolQtk+k072/evpk6ukGdvuj5AOB0md02uVxOABCapu35WI2WW0UikaoCbN1P07SaBy2XyxkFXAghksmkbTplBSGPKR+mQdRsAJAVgwyiQuwEXHPetloGulHGmtXOACAr93r7CPGo4pQVtwx65vVSO+/Fbs9CK7LZbFUwqpeWestlADHf992OUw8DgEk7A4DT7dodAKRisWhU9ub9ZKUh3x0J8SgomAOC+d2R9dVKWvpRswHA7h2cfFDN7+DaGQBa3bcXA0CjNJmXy1aOucVq3a+d92K3Z6EViqIYrY5GaWnn8noYAEwGJQDE43GhKIrY3Ny03U8+IOVy2ehKaOZcDAD223eyDDAA7JBvYuS76H7IKymZTFa9+ZJkoLFLs10XazcCgOcHgdvBPNDTSaFQCMCjqWRTU1O4efMmjh8/3jBNv/zlL3H37l1cvnzZdjvzACM1Jgf67AbmOl0GulXGesXIyAjS6TQymQw0TatZ34l70Y5nIZ/Po1Ao4MqVKzXr7NIsB6OfeeaZPZ+7FQwAeyALzIULFzp+rrW1NZw5cwYAEAwGAQDHjh2ru/3IyAhUVUUwGEQikTCm3UnxeBwAsLCwYMw35qczGxsfHwcA3Lt3z1gm8250dLQj5+xmGes0WZE7nd+uKIrxGQGrdt6Ldj0Luq5jeXkZ169fN5bl83njjdtzzz1Xk+Z33323ap1VJBJpKg1Na6K50PdkUxKA7awNucy8nbkPEtgZYCqXyyISidSM3ltnbciBKZiaebIpWCqVjEEeu9kdkjyGnJUg9y8Wi1VdQOYBMfN+ds1R8/nMr2Kx2DAtgwRNdgHJAUpz33QymaxpvrdaBjpdxnp1FpAsb9byK9kNHju5F06f7UbPghA7kyoazQqSM4nsjmOeyROPx4WqqlVds3bPJ2cBtZndjbF72W1rXmaeJhmPx2tmyRSLRWO9vHlyipkscLJ/MxKJ1C18di95Luv+claQ3fQ6OU5gp1gsGg+XeX/zOa2VzyBpNgAI8ehBj8fjVZV1O8qATE+nypgQ7gcAWdbNg6P1nkEru3K4271w+mwLUf9ZEGJn1l2jZ0EGZbuX9fmTgVBRFJHNZm2PJ4O6XVBsZwDw/fGAhsXFRVy6dAmWxZ4nP0zTT/lSqVTw4x//GLdu3XI7KT3J5/Ph9ddfx9jYmNtJAdCbZUx2pywtLTnep9F1yG6Vq1evtiF13RUIBJBOp7tyrmg0ikOHDtnmU7PlpEGdvsQxgAG2uLjYsb5polZMTk7izp07WFtbczspTVlbW8P09HRXzpXP55HP5zE5OdnxczEAOGD9eHkvi0ajVV/5cO7cObeTRA70UxnbC7/fj/n5edy4caPq+2962crKCg4fPlwzkaITtra2cPv2bczPz3flO8EYABw4cuSI7f97kZwZFI/Hq2YjUG/rpzLmVL3vuhoaGsLCwgKWl5ddSFXzzp07V3e6dbtlMhlcu3bN9ovvOvF12PvberQB1Ut9sru5cuWK7Rxk6m39VMZ24+Ra/H5/X44DdFqjPOlEGWELgIjIoxgAiIg8qm4X0OLiYjfTQeSK1dVVt5PQ09555x0ArA/6WaMyXvdzAERENDjsPgdQEwCIvGJ4eBijo6OYmZlxOylEbuAHwYiIvIoBgIjIoxgAiIg8igGAiMijGACIiDyKAYCIyKMYAIiIPIoBgIjIoxgAiIg8igGAiMijGACIiDyKAYCIyKMYAIiIPIoBgIjIoxgAiIg8igGAiMijGACIiDyKAYCIyKMYAIiIPIoBgIjIoxgAiIg8igGAiMijGACIiDyKAYCIyKMYAIiIPIoBgIjIoxgAiIg8igGAiMijGACIiDyKAYCIyKMYAIiIPIoBgIjIo/a7nQCibvjtb3+L9957r2rZgwcPsLGxgaWlparlX/nKV/D5z3++i6kjcodPCCHcTgRRp/3kJz/Bq6++6mjb3/3ud3j66ac7nCIi1y2xC4g8YXx8HD6fr+E2Pp8PX/rSl1j5k2cwAJAnHDt2DF/+8pexb1/9Iv/YY4/h8uXLXUwVkbsYAMgzXn755YatgIcPH2J0dLSLKSJyFwMAecalS5fqrtu3bx/OnDmDo0ePdjFFRO5iACDP+NSnPoWvf/3reOyxx2rW+Xw+TExMuJAqIvcwAJCnTExMwG7im8/nw3e/+10XUkTkHgYA8pTvfe972L+/+uMv+/fvx4ULF3D48GGXUkXkDgYA8pSPf/zj+Pa3v10VBB4+fIiXXnrJxVQRuYMBgDznxRdfxMOHD42/n3jiCXzrW99yMUVE7mAAIM+5cOECDh48CAA4cOAAnn/+eXzsYx9zOVVE3ccAQJ7zxBNP4Pnnn8djjz2GDz74AMFg0O0kEbmCAYA8aXx8HA8fPsShQ4fwd3/3d24nh8gV/DZQ8qRnn30Wn/zkJzE6OooDBw64nRwiV/TMt4GePHkSb7/9ttvJICLqqFgshpmZGbeTAQBLPdUCuHjxIr+LhXa1tLSE1dVVvPbaa3s6znvvvYdPf/rTu35LaD+6f/8+wuEwNE3DZz/7WbeTQ3/0yiuvuJ2EKj0VAIaHhzE2NuZ2MqjHbWxsoFAosKw0UCgUEA6H8Y1vfAPDw8NuJ4f+qEfe+Rs4CExE5FEMAEREHsUAQETkUQwAREQexQBARORRDABERB7FAEBE5FEMAEREHsUA0GW6riOVSiEQCBjLotEootFoR8/bjXP0G+ZJfbquY25uzu1k9Jy5uTlUKhW3k9E2DABdFovFEAwGkclkOnaOSqXSs19voOs6otEofD4ffD4fUqmU20lyTa/eJ13XEYvFcPDgQeM+1QuUcr351au2t7cRCoXg8/kQCoWwsrJiu10mk0EgEEAgEKh5Ts+fP4+JiQnout6NJHee6BEnTpwQsVjM7WR0BQDRyaxPp9MdPX6rSqWSWF1dNf5OJpMCgNA0ranjxGIxceLEiXYnr+s6eZ/W19cFALG+vt7UfuVyWSiKYtyncrls3KdIJGK7T6lUEgBEqVTac7o7pVwui3Q6bfxfXpNcJiWTSaEoiiiXy6JcLgtVVUU8Hq/aZnV11dimWT1Wzy2yBTBgKpUKEomE28mwde/ePZw+fdr4+4UXXgAAhMNht5Lkml69T/Pz8xgZGTHuk9/vN+7T7OysbYttaGio6t9edPfuXSiKAqD6msxdsdvb2wgGg5ienobf74ff74eqqpiamkI+nze2O336NJ566inMz8939yI6oG8DgLUvPZPJwOfzIRAIYHt7u2rbSqWCVCplNFETiURVE07XdaPZV6lUEAqF8I//+I+2xw+FQsbx5THNy+T5EolEVfO5XpPRbkzArlktr22342uaZjRb5Xq7czjJl2bzeTfmyl+eHwAikUhTx2kH63U5uU5zOQFg3INQKIStrS3j2HbdIdZldvcJcHdcQtd1hMNhnD171na9pmkIBoOOu+2cPHdOy5Yck5Dr63Xf1CMrfytVVY3/v/nmmwCAo0ePGsuefPJJAMBbb71Vtd/o6CjC4XD/dwW53QaRmm0aKYpidKXI5mqxWBQAhKqqNdvKZlypVBKKolQ14azHyuVyxt8ARC6XE0I8avrJ4zc6p6qqRpPYbj1MXUDmc5vXm5vTsqugWCw2ffx653CSL83mczOKxaKIRCICgNjc3Gxq33Z0AVnzxMl1msuEuYtE3g95HbJLxJzf8ljW+2y9J5FIpG5XSzNa6QKyljMzmU55z+QzYV1v1uxzJ4R92ZL7JpNJIYQQ2WzWNg3NKJfLNV1A8j7aXbuiKFXLZDqtXUi76bUuoL4NAELYP0DWZbKwmCtUWZHLAmXez1z5OTm+3bJIJNKwQnZSEUibm5sCgMhmsy0f326Z03xpJh+cMleGcHEMoJV8s9tGvmEwX0erx2qXVgKArNztyOVyjMAauK37NfvcWc9lXib7663b7CVQZrPZmjc79e6H3XIZQJotuwwAdXQqANhFdXnzzFG91cq+3jIhHlV0mqa1HADkO596hczp8e2WOc2XZq+5Gblczqh0rANtjfRaAGj3sdqhlQDQKD3m5bKFoyiKUcFb92vnc2duKVhfrTIPdDdKSyvLG2EAqKNTAaCdD2wzy+LxuFAUxXgH30oAiEQiNZVxK8dv5px7DXrNskv/bhgAdtfJACDETqtHvot2Wj56IZ+SyaTtGw4ZaOzSbNfdOQgBoG8HgZ2Sgz92gzXmAaB2SqVSmJqaws2bN3H8+PGWjpFIJDA7O4ubN2925Phu5IudVtPfi7qZb24bGRlBOp1GJpOBpmk16ztRvswD7a3K5/MoFAq4cuVKzTq7NMvB6GeeeWbP5+5FAx8AxsfHATyagijJ2Sed+v3hYDAIADh27FhL+6+trWFqagrZbNb2GHs9PuBOvtiR50wmk107Z7vJiunChQsup2RvZEXu9JOuiqIgmUxidna2Zl07y1c8HgcALCwsGMdo5ZPKuq5jeXkZ169fN5bl83mEQiEAwHPPPVeT5nfffbdqnZUbM9jayu02iNRs08g800IO5MimKLAz+CQHrcz9lclksmaWASzNObvjm5fJY9ktk03JYrFY1cVRKpVqtrf+LQdIrf3+crvdjm9eXyqVhKZptml0ki/N5LMTcjxDzjIpl8stzXppRxdQo/vQ6Drl33IgU16DtavOOjNIDoDC1J1gvU9C9OYsoN0+6GU3eNzsc9coz83bmV8ynXIcrNGsIDmeZncc80yeeDwuVFVt+EEwITgLqO2azRjrTay3TIhHNz8ej1c9vHaj/8DOAJXT49stk/2jkUhElEolY9aOdfaL3avRgJeT49utbzVfms3n3cgKRr40TasZiHOiHQFgt/tgt415WS6XM+5VPB6vybdisWisl5WEnMooKzbrfRLC3QAgy4r5ntTLGyu7sapmnrvdypZ52rC5rAuxMyuu3niZEDsB2e5lnYYsy6miKFWz78xkQG/208+9FgB8QgiBHnDy5EmMjY1hZmbG7aRQj5uZmcHi4iI2Nja6fm75ga0eeWzqKhQKOHXqFNbX1zE8POx4P9mtcvXq1U4lrWMCgQDS6XRXzhWNRnHo0KGm86nH6rmlgR8DICLnJicncefOHaytrbmdlKasra1henq6K+fK5/PI5/OYnJzsyvk6iQGAyCHr1xgMIr/fj/n5edy4caPq+2962crKCg4fPlzzVSOdsLW1hdu3b2N+fh5+v7/j5+s0BgDas3rfXdQvXxPs1JEjR2z/P2iGhoawsLCA5eVlt5PiyLlz57o2nTiTyeDatWs9/cV3zdjvdgKo//V6f3i7eOU6gUctgX4cB+i0QcsTtgCIiDyKAYCIyKN6pgvoww8/RKFQwOLiottJoR5XKBTw3//93ywrDdy/fx8A8Ktf/QqFQsHl1JD0P//zP24noUrPfA7g6aefrvoINlEjjz/+ON5//323k0HUlI985CP48Y9/zM8BWH3kIx9BLBaDEIIvvhq+YrEYnn76adfT0cuv9fV1AMD6+rrraeFr5/Vnf/ZnLte01XomABARUXcxABAReRQDABGRRzEAEBF5FAMAEZFHMQAQEXkUAwARkUcxABAReRQDQI/TdR2pVAqBQMBYFo1GEY1GO3rebpyDelcrP7ruBXNzc8YP0w+CgQsAKysrxvfP16vA+um76mOxGILBIDKZTMfOUalUejoPek2n88vt+6HrOmKxGA4ePDhQz9L29jZCoRB8Ph9CoRBWVlZst8tkMggEAggEAjXP3fnz5zExMTE4PwgkekQ7fyy5XC6LZDJp/OC2HfkD2M3+qLMb0OSPrzdL/gh2v2jHj8LvRafzqx3Hb+VH4YV49OwoimL8MPygPEvlclmk02nj//Ka5DIpmUwKRVFEuVwW5XJZqKoq4vF41Tarq6vGNs3qtR+F75mnvhMZIyvOZDJZd30/6GQAkA98v+SFEO4GgE7nV7uO32oA0DTNtqLv92fJWtELUftcFYtFAcAIfkIIkcvlBACRy+Wq9lVVVWia1nQ6ei0ADFwXkJWmaQgGg0ilUo62r1QqSKVSRnM2kUjU/BasbCJWKhWEQiFEo9GavvpMJmM0Nbe3twHAOK55mTxnIpGoam7Xa2LajQnU+wlGuU2j42uaZjRz5Xq7czjNG7s8CAQCVdfrlt3Sb9eNYV1WL79kmQBg5HUoFMLW1taejw90Z0xG13WEw2GcPXvWdn0nniWn5UWOScj19bpv6lEUxXa5qqrG/998800AwNGjR41lTz75JADgrbfeqtpvdHQU4XC4/7uC3A5BUqdaAEIIEYlEbKO43eUrimI0+UqlklAUpaq5J9+d4Y/vFHK5nFBVtWq5PM/q6qoAIFRVNd5VyHcZqqoa51RV1WhC262H6Z2K+Tzm9ebmt+xCKBaLTR+/3jlayZt617tXrbYAdku/7MqAzbtCa37b/W2+btl9AEBsbm7u6fhCPCrD9bpg7LTSArCWG7NuPEtC2JcXua9sfWSzWds0NKNcLtd0Acn7ZXftiqJULZPptGtZNNJrLQBPBABzs1o+jOb1kixY5spUVuLmpq8stNY+QLsH18mySCTSsEJ2UkFIm5ubAoDIZrMtH99uWbN5s1se7EUrAaCd6Xd6jbL7wNxV0Orxm9VKAJCVu51OP0vWc5mXyf566zbNBESrbL0xnYUAACAASURBVDZb049fL9/tlssA0mw3EANAHZ0MAELsvPtSFMUolNabavcOQN5o8zuAZgpKMxVisVgUmqa1HADkO6V6hdLp8e2W7SVveiEAtDP9zVxjK/u6FQAanbebz5J1mbmlYH21yjzQ3SgtrSxvhAGgjk4HACF23pHJyN/Oh7jecqfL4vG4UBTFeAffSgCIRCI1TdVWjr+Xa+7VANDpCtpLAUCIzj5LncgPs2QyWTOzR4idQGOXZrsuzEEIAAM/CGw2MjKCdDqNTCYDTdNq1suBIruBHfNgUbulUilMTU3h5s2bOH78eEvHSCQSmJ2dxc2bNztyfLfypl3cTH8/5E+z3HiWzAPqrcrn8ygUCrhy5UrNOrs0y8HoZ555Zs/n7kWeCgDAo5ucTCYxOztbs258fBwAqn6bWH7qb3R0tGNpCgaDAIBjx461tP/a2hqmpqaQzWZtj7HX4wPu5U27uJF+WWFduHChI8dvN1mRO/2ka7eepXg8DgBYWFgwjtHKJ5V1Xcfy8jKuX79uLMvn8wiFQgCA5557ribN7777btU6q0gk0lQaeo7bbRCp3U2j3T6cYjfgJQe4zH2byWSyZkYCbJp+5uV2s0rk8eyWyaZnsVis6qIplUo121v/lrMRrP3+crvdjm9eXyqVhKZptmlsNm9kHsjugUb3olmtdAE5Sb8Qombmjhy4hKkbwJpfQtTOky+Xy7Zdcq0e381ZQN14lhqVF/N25pdMpxzXajQrSI6P2R3HPJMnHo8LVVUbfhBMCM4Cart2ZozdTbZj119eKpVEPB6veqDtZgoA9oNZ5vM5XSb7UyORiCiVSsasHfMUwXqvRgNkTo5vt75e3jWTN42ud69anQa6W/qFePRgyzyVD7ecgigrJGt+CbFznblcztg/Ho+37fjdCADy3psHR7v1LO1WXorFohFozGVXiJ1ZbvXGv4TYCbx2L/NsJiF2AqGiKFWz6cxk4G72TU2vBQCfEEKgB5w8eRJjY2OYmZlxOynU42ZmZrC4uIiNjQ23k2KQH9jqkccJhUIBp06dwvr6OoaHhx3vJ7tVrl692qmkdUwgEEA6ne7KuaLRKA4dOtR0PvVYPbfkuTEAIqpvcnISd+7cwdramttJacra2hqmp6e7cq58Po98Po/JycmunK+TGACI9sj69Qb9zO/3Y35+Hjdu3EA+n3c7OY6srKzg8OHDOH36dMfPtbW1hdu3b2N+fh5+v7/j5+s0BgCiPTpy5Ijt//vV0NAQFhYWsLy87HZSHDl37lzL05ublclkcO3aNQwNDXXlfJ223+0EEPW7Xun3bye/39+X4wCdNmh5whYAEZFHMQAQEXkUAwARkUf11BjA0tISCoWC28mgHrexsYH/+I//2PNXOPz+97/HE088gYMHD7YpZb3jwYMHAIBXXnkFn/jEJ1xODUnvvPOO20mo0jMfBHvllVdw//59t5NBHvKb3/wGn/nMZ3Dy5Em3k0IeMjY21ivfn7XUMwGAqNuGh4cxOjraK5/KJOo2fhKYiMirGACIiDyKAYCIyKMYAIiIPIoBgIjIoxgAiIg8igGAiMijGACIiDyKAYCIyKMYAIiIPIoBgIjIoxgAiIg8igGAiMijGACIiDyKAYCIyKMYAIiIPIoBgIjIoxgAiIg8igGAiMijGACIiDyKAYCIyKMYAIiIPIoBgIjIoxgAiIg8igGAiMijGACIiDyKAYCIyKMYAIiIPIoBgIjIoxgAiIg8igGAiMijGACIiDxqv9sJIOqG//f//h9++9vfVi175513sLS0hI2NjarlP/rRj/CVr3ylm8kjcoVPCCHcTgRRp/3Lv/wLXnzxxV23e/zxx/Gf//mf+MQnPtGFVBG5aoldQOQJ3/nOd/DEE0803Gb//v1QFIWVP3kGAwB5wsGDBxEIBHDgwIG62zx8+NBRK4FoUDAAkGe8+OKL+OCDD+qu/+hHP4pvfvObXUwRkbsYAMgzvvnNb9bt3jlw4AAuXbq0azcR0SBhACDPOHDgAMbGxmy7gT744AOMj4+7kCoi9zAAkKeMj4/bdgP9yZ/8Cb7+9a93P0FELmIAIE85c+YMhoaGqpY9/vjjePnll7F/Pz8WQ97CAECesm/fPrz00ktV3UDvv/8+gsGgi6kicgcDAHlOMBis6gb6zGc+g69+9asupojIHQwA5Dlf/vKX8YUvfAHAo+6fy5cvw+fzuZwqou5jACBPmpiYwL59+/D+++/jhRdecDs5RK5gACBPCgaD+PDDD/EXf/EXOHXqlNvJIXKFJ6c9/PrXv0alUnE7GeSyz33uc/jSl76ExcVFt5NCLhseHsbw8LDbyeg6T34b6MmTJ/H222+7nQwi6hGxWAwzMzNuJ6PbvPttoLFYDEIIvtr0isViOHHihOvpaOb1v//7v1093/r6OgBgfX3d9Wvna+d14sQJl2sj93g2ABB99KMfdTsJRK5iACAi8igGACIij2IAICLyKAYAIiKPYgAgIvIoBgAiIo9iACAi8igGgCatra0hFArB5/Ph+eefx6uvvopAIOB2sgZGNBpFNBp1Oxk9Sdd1zM3NuZ2MnjM3N8evdmkRA0ATVlZW8LWvfQ2vvvoqhBBYWVnBT37yE2QyGcfHqFQqNV89bLfMTYlEoqfS0029di8kXdcRi8Vw8OBB+Hw++Hy+uoFSrje/etX29rbxhioUCmFlZcV2u0wmg0AggEAgUPO8nT9/HhMTE9B1vRtJHigMAE1YWloCABw7dgwA8F//9V9NH+Pu3buOlrkln89jamrKtfNfv34d169fd+38vXQvpEqlgsnJSVy+fBmqqqJcLiOZTGJ2dtY2CAghUCqVAAClUglC9ObXfVUqFeTzedy6dQvlchlnzpzBs88+W1PBp1IpJBIJLCwsYGFhAb/4xS+QSCSM9SMjI5iensbk5CRbAk1iAGjC7du397R/pVKpKrj1lrmlUqngjTfecDsZrumle2E2Pz+PkZERnD59GgDg9/uN3zCYnZ1FKpWq2Uf+7rH19497yd27d6EoCoDqazJ3qW5vbyMYDGJ6ehp+vx9+vx+qqmJqagr5fN7Y7vTp03jqqacwPz/f3YvocwwADlib0Y2a1bISMTfTZdNU0zTj3Y1cb7dMkn2+Pp8PgUDAaB7ruo5UKmU8KJlMxthme3u75eucn5/HP//zP7e8/15Zr8vJdeq6bnQPADvdV6FQCFtbW8ax7bpDrMvq3Qs3xyV0XUc4HMbZs2dt12uahmAwaBsE7FQqFaRSKeP6EolEVddJM2WrXvl0Slb+VqqqGv9/8803AQBHjx41lj355JMAgLfeeqtqv9HRUYTDYXYFNUN40IkTJ0QsFmt6PwDCmmXWZaqqCgCiVCqJYrEoAAhVVZs6hhBClEoloSiKSCaTQgghstmsACByuZxQFMXYZ3V1VQghbM/VjGw2axzLLj27icVi4sSJEy2dWzJfl/Xvetcp15u3KZfLxn3Y3NwUQjzKT+t1yWOZl9ldeyQSEZFIZE/XJoQQ6+vrAoBYX193vE86nRYARLFYrFkn0xmJRIyyYbfeTFEUEY/HhRA7ZUxRFFEul431TspWo/LZqnK5LACIdDptLJP30e7aFUWpWibTad7fiVbrgwGwyADQBCeVdyQSaVjhOw0AyWTSdjtZETk9jhOlUsmoFFo9TjsCgN25nVyn3Ta5XE4AEJqm7flY7dJKAJCVux25vFwuGxW3DHjm9ZKspEulkrFsdXVVADAqcrnfbvm0W/lsRTabrQpG9dJSb7kMIOZ77gQDgMd0MgBIxWJRaJrWcgAwvxOzvppNy27MlX+rx+m1ANDuY7VDKwGgUXrMy2ULR1EUo4K37mf3blpWmuZ3007yabfy2QpFUYxWR6O0tLK8ES8HAI4BdEAikcD3v//9un2cTsi+aGHzAxbtlMlk8Nxzz7X1mNR9Q0NDyOVyyGQydWfD2E1i8Pv9ANDUVGbz9u0qn6lUCoqiGAPdUqNnyDxWQK1hAGizVCqFqakp3Lx5E8ePH9/z8cwDmZ0QCATwuc99ru4gab/zUiUxMjKCdDqNTCYDTdNq1svK1G6QtNV8akf5zOfzKBQKuHLlSs06uzTLwehnnnlmz+f2OgaANgsGgwB2PivQqng8DgBYWFgw3s114pOgjd7Btbu10U2yYrpw4YLLKdkbWZE7nd+uKIrxGQGr8fFxAMC9e/eMZfK4o6OjTaWrXeVT13UsLy9XffYjn88jFAoBgNE6Naf53XffrVpnFYlEmkqDlzEAOGSecywrF+v0OWDnHcv29nbVuyPrevPDYrfsO9/5DoBH87wPHToEn8+HI0eOYHR0tOq88uEzVxD9Og3Omp/NXqecClmpVLCwsABFUaq6EOS7XHlf1tbWjHWywrG7F25OA5WtSGsAkNdud69feOEF20rwm9/8JhRFwY0bN4z9fvnLX0JVVZw7d67meI3yvFH5BGBMDzU/N1a6rmNychLhcLiqBfrFL37RCNzHjh1DPB7Hz3/+c1QqFVQqFfz85z9HPB6veZMlWwZf/epX656TLLo/7uC+Zgd9UGewy/oSYmf2SSQSEaVSyZgVJKfxWdfXWybEo4FkOQvEfAy789ota1Urx2jHILCT/G20zDxFNh6PV80mEeJRfsr1cqqgnMrY6F64OQ1UDu6aB0fr5Y2VdZqkPF48Hjf2SyaTtrNunJSteuVTiJ3ZcHZpkOSgtN3LPJtJiJ3psIqiiGw2a3s8OaPJ/Aw54eVBYJ8QfdzOb9HJkycxNjaGmZkZt5MyMGZmZrC4uIiNjY2un1uOVfR6US4UCjh16hTW19cxPDzseD/ZErl69WqnktYxgUAA6XS6K+eKRqM4dOhQ0/nk4fpgiV1ARD1ucnISd+7cqeqy6gdra2uYnp7uyrny+Tzy+TwmJye7cr5BwQBAfc1uHGbQ+P1+zM/P48aNGw371HvJysoKDh8+XDOtsxO2trZw+/ZtzM/PG9NayRkGgAFl95XA/fQ1wU4dOXLE9v+DZmhoCAsLC1heXnY7KY6cO3euLdOgnchkMrh27VpPf/Fdr9rvdgKoM3q9P7xdvHKdwKOWQD+OA3Qa86R1bAEQEXkUAwARkUcxABAReZQnxwA++OADLC0toVAouJ2UgbGxsYH33nuv6a8U8JIHDx4AAF555RV84hOfcDk1JMmfz/QitgCIiDzKky2AAwcOYHR01Iuf/OsY+UngpaUlt5PSs+QngV977bWmPglMnXXy5Em3k+AatgCIiDyKAYCIyKMYAIiIPIoBgIjIoxgAiIg8igGAiMijGACIiDyKAYCIyKMYALpI13WkUikEAgG3k0J9yPxD9bRjbm6u6ofryTkGgD1q5odXYrEYgsEgMpmM4+NXKpWaH26xW+Z1nc4Tt/Nc13XEYjEcPHjQKFPRaNR223764Z/t7W2EQiH4fD6EQiGsrKzYbpfJZBAIBBAIBGqen/Pnz2NiYmJgfxGukxgA9kgIgXK5XPW3+ZXNZo11t27davr4d+/edbTM6zqdJ27meaVSweTkJC5fvgxVVVEul5FMJjE7O2sbBIQQxheclUqlnv3RnEqlgnw+j1u3bqFcLuPMmTN49tlnayr4VCqFRCKBhYUFLCws4Be/+AUSiYSxfmRkBNPT05icnGRLoEkMAG3Q6HdIz5071/JxK5VKVUGvt8zrOp0nbuf5/Pw8RkZGjN/X9fv9eOGFFwAAs7OzSKVSNfvIn0fs5Z9JvHv3LhRFAVB9TeYu0u3tbQSDQUxPT8Pv98Pv90NVVUxNTVX9PvLp06fx1FNPYX5+vrsX0ecYADpINr0bvQOTlYu5WS+bspqmGe+G5Hq7ZZLsI/b5fAgEAkZz2jr2kMlkjG22t7fbf+FNqFQqSKVSxrUkEomqprxdN4Z1mV2e6LpudBsAMPI4FApha2trz8cHgGg0Wrcbpl10XUc4HMbZs2dt12uahmAwaBsE7OyW382UlXrlzSlZ+Vupqmr8/8033wQAHD161Fj25JNPAgDeeuutqv1GR0cRDofZFdQM4UEnTpwQsVisrccEIMzZWSwWhV32WrdTVVUAEKVSydhHVdW629dbViqVhKIoIplMCiGEyGazAoDI5XJCURRjn9XV1ar0mc+1F7FYTJw4caLp/RRFEfF4vOoaFEUR5XLZWFYvb83L6v1tvuZyuWzk9+bm5p6OL4QQkUhERCIRx9e6vr4uAIj19XXH+6TTaQFAFIvFmnUyPZFIxLjXduvNdstvp2WlUXlrVblcFgBEOp02lsn7ZXftiqJULZPpNO/vRCfqgz6xyADQJuYKx/yqt50UiUQaVvhOA0AymbTdTlZQTo/TqlYCgKw0SqWSsWx1dVUAMCqWeulsNZ9yuZwAIDRN2/Pxm9VKAJCVux25vFwuGxW3DGzm9VI783u38taKbDZbFYzqpaXechlAzPfWCQYAj+mlFoB5e03TWq7YzO/c7IJQLwYAu3d38iE2v7trZwBodV+3AkCj85qXy5aMoihGBW/dr535vVt5a4WiKEaro1FaWlneiJcDAMcAOuTYsWOOt00kEvj+979ft0/UCdlHLSyzkESPzgABgNu3b9cskwPqzUyVpUeDvblcDplMpu5smHbmd7vLWyqVgqIoxkC31OiZMI8VUGsYADrIycOQSqUwNTWFmzdv4vjx43s+p3mAs9fJh9tu0K7TD/cgVh4jIyNIp9PIZDLQNK1mfSfyux3lLZ/Po1Ao4MqVKzXr7NIsB6OfeeaZPZ/b6xgAXBYMBgE012KwE4/HAQALCwvGu79e/+To+Pg4AODevXvGMpn2Tv24vKywLly40JHjt5usyJ3Ob1cUxfiMgFU787td5U3XdSwvL+P69evGsnw+j1AoBAB47rnnatL87rvvVq2zikQiTaXB01zqe3JVu/v8ZD8qgKoBLCvzjBPZTyv7UovFotjc3Ky7vlQqGYNbdsvMxza/isVi1TqZPnOazYOCrWplDEAOXpr7rZPJZM3MJOvMHTlwCezMTLHLE7mNHOAsl8siEonUzB5p9fhuzgKS97TevbMbPHaS307LSqPyJoQwxrMazQqSM4nsjmOeyROPx4WqqqJcLhszueRMJjPOAmoaB4H3yq7w1ourdtvIWSmRSESUSiVjVpB8kKzr6y0T4tEDIB988zHszuskvc1odRpoqVQS8Xi8qrK2BtFisWhUFPLhllMQG+WJPKZ5Kmw8Hm/b8bsRAGRFax4cdVrerIFOHq9RfjdTVuqVNyF2ZrfZpUGSgdfuZZ7NJMROIFQURWSzWdvjycDd7BsaLwcAnxA9PErYISdPnsTY2BhmZmbcTsrAmJmZweLiIjY2NtxOisHJB/G6qVAo4NSpU1hfX8fw8LDj/WS3ytWrVzuVtI4JBAJIp9NdOVc0GsWhQ4eazicP1wdLHAMg6nGTk5O4c+cO1tbW3E5KU9bW1jA9Pd2Vc+XzeeTzeUxOTnblfIOCAYAGkvXrDfqZ3+/H/Pw8bty4UfX9N71sZWUFhw8frpnW2QlbW1u4ffs25ufnG34vF9ViAKCBdOTIEdv/96uhoSEsLCxgeXnZ7aQ4cu7cubZMa3Yik8ng2rVrPf3Fd71qv9sJIOqEXun3bye/39+X4wCdxjxpHVsAREQexQBARORRDABERB7l2TGAa9eu4dq1a24nY+D08u/P9opTp065nQQiAB4NAD/96U/526GEq1ev4vTp0x373iHqH818MG+QePKTwETAo4d+dHTUi58AJQL4SWAiIu9iACAi8igGACIij2IAICLyKAYAIiKPYgAgIvIoBgAiIo9iACAi8igGACIij2IAICLyKAYAIiKPYgAgIvIoBgAiIo9iACAi8igGACIij2IAICLyKAYAIiKPYgAgIvIoBgAiIo9iACAi8igGACIij2IAICLyKAYAIiKPYgAgIvIoBgAiIo9iACAi8igGACIij2IAICLyKAYAIiKPYgAgIvIoBgAiIo9iACAi8igGAPKEf/qnf4LP56t6bWxs4Nq1azXL/+3f/s3t5BJ1BQMAeUIwGHS03dDQEM6cOdPh1BD1BgYA8oS/+Zu/wdGjRxtuc+DAAUxMTGDfPj4W5A0s6eQJPp8PL730Eg4cOFB3mw8++MBxS4FoEDAAkGcEg0F88MEHddd/7nOfw1/91V91MUVE7mIAIM/44he/iD//8z+3Xff444/jH/7hH7qbICKXMQCQp0xMTNh2A73//vu4dOmSCykicg8DAHnK+Pg4/vCHP1Qt8/l8+Mu//EucOHHCpVQRuYMBgDzl6aefxhe/+EX4fD5j2f79+/Hyyy+7mCoidzAAkOe8/PLLeOyxx4y///CHP7D7hzyJAYA859KlS/jwww8BAPv27cNf//Vf4zOf+YzLqSLqPgYA8pwnn3wSf/u3f4t9+/bB5/NhYmLC7SQRuYIBgDxpYmLCaAVcvHjR5dQQuYMBgDzpe9/7Hg4cOIC///u/x5/+6Z+6nRwiV+x3OwGd8Morr+D+/ftuJ4N63Kc+9Sn8/ve/x+joqNtJoR43NjY2kOVkIFsAv/rVr7CxseF2MjxjY2MDv/nNb9xORtO+8IUv7PoFce3y4MEDvPHGG3jw4EFXzkft8+tf/xqFQsHtZHTEQLYAAGB0dBQzMzNuJ8MTZmZmsLi4iKWlJbeT0rMKhQJOnTqF1157DcPDw24nh5pw8uRJt5PQMQPZAiAiot0xABAReRQDABGRRzEAEBF5FAMAEZFHMQAQEXkUAwARkUcxABAReRQDQAO6riOVSiEQCLidFE+IRqOIRqNuJ6Mv6LqOubk5t5PRc+bm5lCpVNxORt9gAGggFoshGAwik8m4nZSm6bqOaDQKn88Hn8+HVCplu10mk0EgEEAgEOjL62ynSqVS9UthvUrXdcRiMRw8eNC4v/UCp1xvfvWq7e1thEIh+Hw+hEIhrKys2G7XqMyeP38eExMT0HW9G0nuf2IAnThxQsRisbYcC4Dot2wqlUpidXXV+DuZTAoAQtO0qu2SyaRQFEWUy2VRLpeFqqoiHo83fb5YLCZOnDix53S7LZ1Od+xer6+vCwBifX19T8cpl8tCURTj/pbLZeP+RiIR231KpZIAIEql0p7O3Unlclmk02nj//Ka5DLJSZldXV01tmmHdtYnPWaxv2o2h7weAMyVv2S9jmKxKABUbZvL5QQAkcvlmjrfIAQAWbH2egDQNM22opf3N5lM2u7X62XYWtELsbcyq6pqzRueVg1yAGAXkEmlUkEqlYLP50MgEMDW1lbNNrLvVW4jm6nW8YJMJmNss729XXUMuX8ikYCu6zXN8nrncOr06dM11wUAkUjEWPbmm28CQNW3YT755JMAgLfeequp87WDNf+c5Keu60Z3AAAkEgmj+8B87+y6P6zLNE0zuhPMy3tpXELXdYTDYZw9e9Z2vaZpCAaDdbv7rMzl3VwezedzWqb3WmYVRbFdrqqq8f9myuzo6CjC4TC7gnbjdgjqhFYjtqIoQlVVo+kom6Eym0qlklAUxXiXlc1mjXcf8t0jTO9Q5DsWVVWNc2iaJorFohDi0bvOSCRS9S6n0TlaUSwWjXNsbm4ay1VVtX1XCEAoitLUOdrRAjDnn/Xvevkp15u3kd0C5uuVXSCweTdpXmb9WwghIpFI3a6VZrSjBSC7qGT5MZPplvfaWl7s7rWiKEb3iSx35q4Tp2W63WVWiEf3EZYuoGbKrEynXcuiWYPcAmAA+CP5cJkrSVkIZaGTAcEMpr5XuwrErpIx98XKykna7RzNMFdysIwB2KW10fJG2tUF5KRCdrKN7BbY7XqdHKtd2hEArG8WzORyc1eWuSxb95OVtLksrq6u1nQjOcm3dpZZc/qs/fjNlFn57LajG4gBoM+0csMavbuwe1dqfVm3tdvffJ5kMmk7SLXbOVqRy+WMykO+4xvkANDuY7VDOwJAo/SZl8s3FYqiGBW8dT+78i4rTfO7aSf51okyax7obpSWVpY3iwGgz7Ryw5wUot0KlJOHZXNzs+qBsb5D6VQltLm5aRvM7K7B3Lx3ggFgd90MAELstILku+jdrr3ecjfyLZlM2s5Ga7bMMgDsioPArbAbHHbq+PHjSKfTyOVyUFUV4XDY9gM9ezlHvfOayUE38yCZHNh75pln2nput5gHEL1mZGQE6XQamUwGmqbVrLe7/1Kr+daOMpvP51EoFHDlypWadV4os93GAPBH8XgcwKMCuNs2CwsLxsyaZj+R6fP5UKlUMDIyglu3biGXyyEcDrf1HHbksZLJJADgueeeAwDcu3fP2Obdd9+tWtevZEV04cIFl1PSXrIid/pJV0VRkEwmMTs7W7NufHwcQPX9l8dt9sfP21VmdV3H8vIyrl+/bizL5/MIhUIAWiuz5plvZMPtNkgntNJkkwOmiqIYsyzkQBn+2MQ0zyYxv4rFYtU62bdvHkQ298VGIhHjHMVisaobqNE5nFIUxXa2kXVQLh6PG7Oe3P4gmPm6S6VSU/kJ7Axcymu1zgqxzgySA54wdR/ILoZSqWTck36YBbTbB73sBo/lYLF5nCCZTNbM7nFyD3Yrs5qmCaDxrCA5k8juOOaZPE7LLGcBOcIxALNisWhUFLLCl9PbZGE3T6tUVdUo5NZC22iZrGBgMwbQ6BxOyYpCvjRNs/1wmHlbRVFENptt6jxSOwKA3YPvND9l5SIrkHg8XjPAXiwWjfWyUrDeW9lvHolEjGW9FABkRWu+l/Xyyspuam+pVBLxeLwqiNrNutntHgjRuMxGIhGhqmrD6cXyubN7mWczCeGszMoA345PPw9yAPAJIYRdy6CfnTx5EmNjY5iZmXE7KZ4wMzODxcVFbGxsdP3c8gNbvV6MC4UCTp06hfX1dQwPD7d8HNmtcvXq1XYlrWsCgQDS6XRXzhWNRnHo0KG25NMA1ydLHAMg6iOTk5O4c+cO1tbW3E5KU9bW1jA9Pd2Vc+XzeeTzeUxOSwBZIwAAIABJREFUTnblfP2MAYD6lvVrC7zA7/djfn4eN27caDhhoZesrKzg8OHDNV9R0glbW1u4ffs25ufn4ff7O36+fscA0Efsvtq3n77ut92OHDli+/9BNzQ0hIWFBSwvL7udFEfOnTtXMw25UzKZDK5du4ahoaGunK/f7Xc7AeRcr/dzd5uX88Pv9/flOECnMU+awxYAEZFHMQAQEXkUAwARkUcN5BjA//3f/+HatWu4du2a20nxjMcff9xTA9CtOnXqlNtJoCZ95CMfcTsJHTOQAeDAgQO4ePFi099pQq1ZWlrC2tranr+vaJDdv38f4XAYmqbhs5/9rNvJoSb86Ec/cjsJHTOQAWDfvn0YHh7G2NiY20nxhI2NDRQKBeZ3A4VCAeFwGN/4xjf29Elg6r4B/ASwgWMAREQexQBARORRDABERB7FAEBE5FEMAEREHsUAQETkUQwAREQexQBARORRDABEfUDXdX7SukVzc3OoVCpuJ6MnMQC0oNGPsczNzSGTybDAdVGlUuno9xB1+vi70XUdsVgMBw8eNMpZNBq13baffiCoUqlgbW0NiUQCgUDAdpvt7W2EQiH4fD6EQiGsrKzYbpfJZBAIBODz+RAIBJBKpYx158+fx8TEhGd+Na4ZDAAtEEKgVCoZf5fLZQghIITA+fPnkUgkWOC66O7du319/EYqlQomJydx+fJlqKqKcrmMZDKJ2dlZ2yBgLpulUqmnfzRH0zT867/+K6amppDJZGrWVyoV5PN53Lp1C+VyGWfOnMGzzz5bs+3c3BwCgQCuX78OIQSuX7+OYDBotJhGRkYwPT2NyclJvjGzYABokfkn58y/PToyMoL5+XkAYIHrgkqlgkQi0bfH3838/DxGRkaM39P1+/144YUXAACzs7NV73QlWTZ7/WcRr1+/juvXr9ddf/fuXSiKAqD6uq2thXA4DODRs2f+986dO8Y2p0+fxlNPPWU8m/QIA0AHDA0N4Qc/+AEymUzNu0fZlyubqrJJq+s6UqmUUbgzmYyxzfb2dtUx5P6JRAK6rtc08+udo9dUKhWkUimjq0Jej2TXjWFdpmma8Y5QLtd13egSAIBEImF0IWxtbe35+AAQjUbrdsO0i67rCIfDOHv2rO16TdMQDAZtg4Cd3fK7mTLYjTImK38rVVWr/tY0DQCwtrYGAEZarcFldHQU4XCYLXMzMYBOnDghYrFYx88DQNTLwnK5LAAIVVWNZaVSSSiKIpLJpBBCiGw2KwCIXC4nFEUxjre6uiqEEKJYLNYcQ9M0USwWjXNEIpGqNDQ6R6fEYjFx4sSJpvdTFEXE43EhxE66FUUR5XLZWGbNY5kn5mX1/jbnZblcFqqqCgBic3NzT8cXQohIJCIikYjja11fXxcAxPr6uuN90um0AGDcbzOZHnn/rffXrlzult9Oy2C7y1ij58hMPlPpdLpmncyH1dVVkUwmRalUqtlGXovd/o10qz5xwSIDwB7sVnCt65PJZM32AIyKxO54dpWRuXDLSszpOTqhlQAgKw3ztayurgoARsUihPM82W0bIYTI5XICgNA0bc/Hb1YrAcAa3K1pFOJRpSgrbhnYzOulduZ3u8uY0/zNZrNVActKBvhIJGK7jQwg5vvvBANAn+nVAGB+h2V91TuedZks5Mlk0raQ73aOTmglAMjrMJMPqKIoxrJ2BoBW93UrADQ6r7XVJ/NNVvDW/dqZ3+0uY073VRTFaJlYaZpmPBORSKRuoGglnQwAfaYXAoB8uMzvipoNGHbLNjc3qx5A67uZTlf2dloJAJ2uoL0UAITYad3Iiq/X88NJ2sySyaTRfWW3DoBR4W9ubgoAttszAFRZ5CBwh/z7v/87ANgO4JkHIpt1/PhxpNNp5HI5qKqKcDhs+wGhvZyjG+QAn92AnHWQr906fXw3jIyMIJ1OI5PJGIOiZp3I726VsXw+j0KhgCtXrtiuDwaDAHZm4x05cgQAMDU11ZX09TMGgA7QdR0/+9nPoCgKzp07ZyyPx+MAgIWFBWN6aLOf8PT5fKhUKhgZGcGtW7eQy+WMaXDtOkc3jI+PAwDu3btnLJPp7dRvOcsK68KFCx05frvJitzpVGJFUYzPCFi1M7+7WcZ0Xcfy8nLVjJ58Po9QKGT8bZ0tJANBvVlEkUik7ensW263QTqhG0022cyGqekphDBm9Jj7YyXzrBPzq1gsVq2TxzOfw9y3G4lEjJkhxWKxqhuo0Tk6pZUuIDl4ac6nZDJZNdtECFEzc0cOXAI7M1Nkl1ipVDLyQm4jBzjNfcPtOL6bs4DkPbab6SLTZn20neS30zK4WxnTNE0AzmYF1XuO5HnqjTeYZ/LIAW55r+U9zGazVcfjLKAaHANohV2BlC9N0+oOVAnxqBDKB1RVVeOhsR6n0TJZEcnzOT1Hp7Q6DbRUKol4PF5VWVsrgWKxaFQC8sGVUxBlhST7vyORSFWglJWQ3D8ej7ft+N0IALKiNZcnuzJnxxro5PEa5bfTMihE4zIWiUSEqqq2aTCr9wxJMjjbvcwznoR4FATk9qqq1lT+QuwEhnqBs55BDgA+IXr4s+ItOnnyJMbGxjAzM+N2UjxhZmYGi4uL2NjYcDspBvmBrV4p3oVCAadOncL6+jqGh4cd7ye7Va5evdqppHVMIBBAOp12OxmGaDSKQ4cONZ2XA1yfLHEMgKiHTU5O4s6dO8anXPvF2toapqen3U6GIZ/PI5/PY3Jy0u2k9BQGABo41q836Gd+vx/z8/O4ceMG8vm828lxZGVlBYcPHza+v8htW1tbuH37Nubn56u+t4sYAGgAyWmA1v/3q6GhISwsLGB5edntpDhy7tw5HD9+3O1kGDKZDK5du9bzX47nhv1uJ4Co3Xql37+d/H5/X44D9ALmW31sARAReRQDABGRRw1sF1ChUMDi4qLbyfCEQqGABw8eML8buH//PgDgV7/6FQqFgsupoWY8ePDA7SR0zMB+DuDtt992OxlENCBisdhAfg5gIAMAkRPDw8MYHR0dxAebyAl+EIyIyKsYAIiIPIoBgIjIoxgAiIg8igGAiMijGACIiDyKAYCIyKMYAIiIPIoBgIjIoxgAiIg8igGAiMijGACIiDyKAYCIyKMYAIiIPIoBgIjIoxgAiIg8igGAiMijGACIiDyKAYCIyKMYAIiIPIoBgIjIoxgAiIg8igGAiMijGACIiDyKAYCIyKMYAIiIPIoBgIjIoxgAiIg8igGAiMijGACIiDyKAYCIyKMYAIiIPGq/2wkg6obf/va3eO+996qWPXjwABsbG1haWqpa/pWvfAWf//znu5g6Inf4hBDC7UQQddpPfvITvPrqq462/d3vfoenn366wykict0Su4DIE8bHx+Hz+Rpu4/P58KUvfYmVP3kGAwB5wrFjx/DlL38Z+/bVL/KPPfYYLl++3MVUEbmLAYA84+WXX27YCnj48CFGR0e7mCIidzEAkGdcunSp7rp9+/bhzJkzOHr0aBdTROQuBgDyjE996lP4+te/jscee6xmnc/nw8TEhAupInIPAwB5ysTEBOwmvvl8Pnz3u991IUVE7mEAIE/53ve+h/37qz/+sn//fly4cAGHDx92KVVE7mAAIE/5+Mc/jm9/+9tVQeDhw4d46aWXXEwVkTsYAMhzXnzxRTx8+ND4+4knnsC3vvUtF1NE5A4GAPKcCxcu4ODBgwCAAwcO4Pnnn8fHPvYxl1NF1H0MAOQ5TzzxBJ5//nk89thj+OCDDxAMBt1OEpErGADIk8bHx/Hw4UMcOnQIf/d3f+d2cohcwW8DJU969tln8clPfhKjo6M4cOCA28khcsVAfhvoyZMn8fbbb7udDCIaELFYDDMzM24no92WBrYFcPHiRX6vS5csLS1hdXUVr732mttJacp7772HT3/607t+S2g73L9/H+FwGJqm4bOf/WzHz0ft88orr7idhI4Z2AAwPDyMsbExt5PhCRsbGygUCszvBgqFAsLhML7xjW9geHjY7eRQEwbwnb+Bg8BERB7FAEBE5FEMAEREHsUAQETkUQwAREQexQBARORRDABERB7FAEBE5FEMAA3ouo5UKoVAIOB2UjwhGo0iGo26nYyepOs65ubm3E5GX5qbm0OlUnE7GT2JAaCBWCyGYDCITCbjdlKapus6otEofD4ffD4fUqlUzTaVSgVra2tIJBIMcniUH934Wohm6bqOWCyGgwcPGvezXqCU682vXuWk/G1vbyMUCsHn8yEUCmFlZcV2u0wmg0AgAJ/Ph0AgUFXez58/j4mJCei63pHr6GtiAJ04cULEYrG2HAuA6LdsKpVKYnV11fg7mUwKAELTtKrtIpGIiEQie77GWCwmTpw40fL+vSKdTnfsXq+vrwsAYn19van9yuWyUBTFuJ/lctm4n5FIxHafUqkkAIhSqbTndHfSbuWvXC6LdDpt/F9et1wmaZomAIhcLieEECKXy9WU99XVVaEoiiiXy02ns531SY9Z7K+azSGvBwBz5S81ug4GgJ2KttcCgKZpthW9vGfJZNJ2v34qs/XKn7Wir7dtvWWKolQtU1W15k2QE4McANgFZFKpVJBKpYxm5NbWVs02si9WbiObpNbxgkwmY2yzvb1ddQy5fyKRgK7rNc30eudw6vTp0zXXBQCRSKSp43STNf+c5Keu60bTHwASiYTRVWC+d3bdIdZlmqYZXX3m5W6OS+i6jnA4jLNnz9qu1zQNwWDQtnvPjrl8m8uf+XxOy/Bey6gTiqLYLldVtepvTdMAAGtrawBgpPX69etV242OjiIcDrMryMztENQJrUZsRVGEqqpGM1E2OWU2lUoloSiK8a4rm80aTU/57hGA8Q68WCwKAEJVVeMcmqaJYrEohHj0rlM2gaVG52hFsVg0zrG5uWm7DXqgBWDOP+vf9fJTrjdvUy6XhaqqVdcru0TM1yiPZV5mlw+ym2KvWmkByC4pWV7MZDrlvbWWD7v7qSiKiMfjQoidcmbuFnFahttdRp2Wv3K5bNsFJMROPqyuropkMmnb/SWvxW7/Rga5BcAA8EfyYTNXkrLAycIpA4IZTH2xdgXZrpIxF05ZOUm7naMZ5koONmMA9dLYrHZ1ATmpkJ1sY9cH3Oqx2qWVAGB9c2Aml5u7rsxl17qfrKTNZW91dbWmG8lJPrWzjNY7p51sNtuwH18G/kgkYruNfJ6b7QZiAOgzrdwwWXis6r0rtb6s29rtbz5PMpm0LaS7naMVuVzOqEzkO8BGaWxWrwWAdh+rHVoJAI3SY201Ao/6vGUFb93PrnzLCtHcV+4kn9pdRp3uax4Mt9I0zXimIpFI3UDRSjoZAPpMKzfMSUWyW+Fx8vBsbm5WPUDWdyOdqoQ2NzcdV5bNYgDYXScDgBA7rR5Z8e12rfWWu5FPTo6XTCZt37zIdQCMCl+W9Xa92RnkAMBB4BbYDQ47dfz4caTTaeRyOaiqinA4bPsBn72co955vcY6WDjIRkZGkE6nkclkjEFRMzmgajcA2mo+tbuM1pPP51EoFHDlyhXb9cFgEADg9/sBAEeOHAEATE1NdSV9/YwB4I/i8TiAR4Vtt20WFhaMmTXNfkLT5/OhUqlgZGQEt27dQi6XQzgcbus57MhjJZPJPR2nH8iK6cKFCy6nZG9kRe70U6yKoiCZTGJ2drZm3fj4OADg3r17xjJ53GZ/O7tTZdSOrutYXl6umtGTz+cRCoWMv62zhWQgqDeLqJdnw3Wd222QTmilySYHTBVFMWZdyIEz4NEsCPNsEvOrWCxWrZNNUfMgsrlvNhKJGOcoFotV3UCNzuGUoii2s43sBunMaWzlQzJCtKcLyHzdpVKpqfwEdgYyzX3AZtaZQXIAVN5bIXb6tkulknFPenEW0G4f9LIbPJaDxeZxgmQyWTO7x0me71ZGrR/MaqRR+ZOzjezOZZ7JI59TWQbkvc1ms1XH4yygGhwDMCsWi0ZFISt8Od1NFn7ztEpVVY1Cby2gjZbJCgY2YwCNzuGUrDjkS9O0hh8Os0tnM9oRAOqlxUl+yspGVhbxeLymMikWi8Z6WQFY763sR49EIsYyNwOArGjN987p/bIGQHm8eDxeFTTN+eQ0z4VoXEYjkYhQVdU2DWa7lT/5LNq9rFOas9ls1bNrrfyF2AkMzX5CepADgE8IITBgTp48ibGxMczMzLidFE+YmZnB4uIiNjY2un5u+YGtXi/GhUIBp06dwvr6OoaHhx3vJ7tVrl692qmkdUwgEEA6nXY7GYZoNIpDhw41nZcDXJ8scQyAqIdNTk7izp07xqdc+8Xa2hqmp6fdToYhn88jn89jcnLS7aT0FAYA6lvWrzEYRH6/H/Pz87hx40bDCQq9ZGVlBYcPH675ShK3bG1t4fbt25ifnzcGiOkRBoA+YvdVv/309b/tJqf7Wf8/aIaGhrCwsIDl5WW3k+LIuXPnemracSaTwbVr1zA0NOR2UnrOfrcTQM71ej93t3kpP/x+f1+OA/QC5lt9bAEQEXkUAwARkUcNZBfQhx9+iEKhgMXFRbeT4gmF/9/e/YS2kd1xAP9qSbK7GFZpDk4hy4Z2wXT/gCi0JfTSxviygVEvsR17m+aiLuPDwnajQjEjvMEmpzFdSiFB0s1Q+c+eJAqlxIaEUvuyIIETsA/LKpseNKUwaimFLO3rYXmT0Wgkjf6MRtL7fkBgz4zee3rz5v00781oHj/Gv/71L9Z3G1999RUA4E9/+hMeP34ccWmoG//+97+jLkJoJvI+gDfffLPhlncK37lz5/D8+fOoi0E0cC+//DJ+85vf8D6AcfHyyy9jbW0NQgi+hvBaW1vDm2++GXk5Rvl1fHwMADg+Po68LHx19/rud78bcY8WnokMAERE1BkDABGRohgAiIgUxQBARKQoBgAiIkUxABARKYoBgIhIUQwARESKYgAgGkNhPYR93G1ubjoPqqfOGAB60O63+Dc3N1EqldgIh6her4f6HISw0++WZVlYW1vD1NSU0+4ymYzvtuP6vIhKpYJcLodkMtm2zLlcrmH93Nwcbt68ObEPCBo0BoAeCCFQq9Wc/23bdm4bn5ubQy6XYyMcokePHo11+t2o1+tIpVK4desWdF2HbdsoFArY2NjwDQLutlqr1SDE6P/01+bmJjKZDL797W/j97//fcsyVyoVfPDBBw3LEokEVldXkUql+CUsAAaAHrmfLuR+zFwikUA+nwcANsIhqNfryOVyY5t+t/L5PBKJhPO4xXg8jhs3bgAANjY2sL293fQe2VbH4YlYKysrsG0bW1tb0DQNb7zxhu929Xodn332me+6K1eu4NKlS85xSK0xAIRgenoaH330EUqlUtO3Rzl2G4vFkEwmcXBw4Czf3t5GMpkE8M1j7OQ2T58+bUhDvj+Xy8GyrKZT5FZ5jJp6vY7t7W1naEJ+Hslv2MK7zDRNlEqlhnWWZaFUKjl1KYcJVlZWcHp62nf6AJDJZFoOu4TFsiyk02lcvXrVd71pmlhaWvINAn461X83bXIQbU7W5/r6esdn9+bzeXz44Yct18/PzyOdTvMsvBMxgd566y2xtrYWej4ARKsqtG1bABC6rjvLarWa0DRNFAoFIYQQ+/v7AoAol8tC0zQnvcPDQyGEENVqtSkN0zRFtVp18jAMo6EM7fIIy9ramnjrrbe6fp+maSKbzQohXpRb0zRh27azzFvHsk7cy1r9765L27aFrusCgDg5OekrfSGEMAxDGIYR+LMeHx8LAOL4+Djwe7yKxaIA4Ox/N1k+2R68+9uvnXaq/6BtchBtrlwuCwCiWCyKbDYrAAhN08T+/n7Ttvv7+055Wh2DspzFYjFwGVoZVn8SgV0GgD60CwB+6wuFQtP2AJyOxC89v86oVqs5/8tOLGgeYeglAMhOwv1ZDg8PBQCnIxEieJ102kaIF52MaZp9p9+tQQQAb7B3k8tt23Y6bhno3OulQdb/INqcaZoNQcMdsGVnL8Q37V0GrVblk+/37uteMQCMmVENAO5vVN5Xq/S8y+RBUSgUnG9qbp3yCEMvAUB+Djd50Gqa5iwbZADo9b2jEgDalcN7FijrUXbw3vcNsv4H0ebaBWz32Ya782/1viDrusEAMGZGIQDIg8n9LajbgOG37OTkpOGA837DCbuz99NLAAi7g1Y5AAjxovOUQzqjXj9BylMsFpuGvxgA+rLLSeCQfP755wDgO2Hnnojs1szMDIrFIsrlMnRdRzqd9r0hqJ88hkHTNADwnaTTdT3UvMNOfxQkEgkUi0WUSiWYptm0Poz676fNyTz9rpqTZU0mk7h8+XLLyXvqHgNACCzLwqeffgpN0zA7O+ssz2azAICtrS2noXd7R2csFkO9XkcikcC9e/dQLpeRTqcHmscwLC8vA0DDs5tleefn50PJU3ZQ165dCyX9sMmOPOilxZqmOfcIeA2y/gfR5mSeX375ZVN5ZFmFz+MaJfffboZhBP8gKory/CMswzhlk6fVABrG4uUVPe7xV8l91Yn7Va1WG9bJ9Nx5uMdyDcNwToWr1WrDMFC7PMLSyxCQnKx011OhUGgY7xVCNF25Iycq4RoblkNitVrNqQu5jZzQlFdMuce3+0l/lK4Ckvvc294kv8njIPUftE12anPeCd5W5P6R6Waz2ab95SXz8uJVQIFwDqAXfo1dvkzTbLhqwatarToHpK7rzkHiTafdMtkRyfyC5hGWXi8DlVd0uDtr78R2tVp1OmB5MMtLDmVHIce7DcNoCJSy05Hvz2azA0s/igAgO1p3+/Jrg378OtJO9R+0TQrRvs0ZhiF0Xe/YmQshGsrjt7+8Wn1mGchbBcVuTHIAiAkxBveGd+ntt9/GwsICPvnkk6iLooRPPvkEu7u7ePLkSdRFccgx4VFp3o8fP8a7776L4+NjvPPOOz2nI4dVbt++PaiiDU0ymUSxWBxKXplMBufPnx9IPU1wf7LHOQCiMZJKpfDw4UMcHR1FXZSuHB0dYXV1dSh5VSoVVCoVpFKpoeQ3zhgAaOJ4f85gksTjceTzedy9exeVSiXq4gRycHCACxcuOL9fFKbT01Pcv38f+Xy+489JEAMATaCLFy/6/j0ppqensbW1hQcPHkRdlEBmZ2cxMzMzlLxKpRLu3LkzFj98NwrORF0AokEblXH/MMXj8bGcBwgb66Q7PAMgIlIUAwARkaIYAIiIFDWxcwB7e3t4/Phx1MVQwpMnT/C3v/0ttJ9wCMs//vEPvPLKK5iamgo9r3/+858AgI8//hivvfZa6PnR4Dx79izqIoRmIm8E+/jjj/HVV19FXQwacX/+85/x+uuv4+233466KDTiFhYWxu4LTgB7ExkAiIJ45513MD8/P4l3eBIFwTuBiYhUxQBARKQoBgAiIkUxABARKYoBgIhIUQwARESKYgAgIlIUAwARkaIYAIiIFMUAQESkKAYAIiJFMQAQESmKAYCISFEMAEREimIAICJSFAMAEZGiGACIiBTFAEBEpCgGACIiRTEAEBEpigGAiEhRDABERIpiACAiUhQDABGRohgAiIgUxQBARKQoBgAiIkUxABARKYoBgIhIUQwARESKYgAgIlIUAwARkaLORF0AomH43e9+h7/85S8Ny549e4a9vT08efKkYfmvf/1r/PCHPxxm8YgiERNCiKgLQRS2P/zhD3j//fc7bnfu3Dn8/e9/x2uvvTaEUhFFao9DQKSEn/3sZ3jllVfabnPmzBlomsbOn5TBAEBKmJqaQjKZxNmzZ1tu89///jfQWQLRpGAAIGW8//77+Prrr1uuf/XVV/Hee+8NsURE0WIAIGW89957LYd3zp49i8XFxY7DRESThAGAlHH27FksLCz4DgN9/fXXWF5ejqBURNFhACClLC8v+w4Dfetb38JPf/rT4ReIKEIMAKSUn/zkJ5ienm5Ydu7cOfziF7/AmTO8LYbUwgBASnnppZfw85//vGEY6Pnz51haWoqwVETRYAAg5SwtLTUMA73++uv40Y9+FGGJiKLBAEDK+cEPfoDvfOc7AL4Z/rl16xZisVjEpSIaPgYAUtLNmzfx0ksv4fnz57hx40bUxSGKBAMAKWlpaQn/+9//8L3vfQ/vvvtu1MUhioQSlz08e/YMf/3rX6MuBo2Yy5cv4/vf/z52d3ejLgqNmIWFhaiLMBRK/Bro7u4uFhcXoy4GEY0JBbpFANhT4gxAUmSnjoRYLIadnZ2R/ib1n//8B6+++mpk+c/PzwMA9vb2IisDNVLtyyLnAEhZUXb+RKOAAYCISFEMAEREimIAICJSFAMAEZGiGACIiBTFAEBEpCgGACIiRTEAdMGyLGxvbyOZTEZdFGVkMhlkMpmoizGSLMvC5uZm1MUYOZubm6jX61EXYywwAHRhbW0NS0tLKJVKURelJ5ZlIZPJIBaLIRaLYXt7u2mbp0+fYmVlBbFYDCsrKzg4OIigpKOjXq+P5E9FW5aFtbU1TE1NOfuzVaCU692vcVCpVJDL5ZBMJtuWOZfLNayfm5vDzZs3YVnWMIo53oQCdnZ2xKA+KoCBpTVMtVpNHB4eOv8XCgUBQJim6SyzbVsUi0Xnb7mNXNYNAGJnZ6f/gkesWCyGtr+vX78url+/3vX7bNsWmqY5+9O9rwzD8H1PrVYTAEStVuurzMNimqbQNE0Ui0VRrVZbblcul32PycPDQ6FpmrBtu6t8B9lXjIFdngEo4osvvsCVK1ec/+Vv4KfTaWfZo0ePoGkaACAejzvbqDrkVa/Xkcvloi5Gk3w+j0Qi4exP977a2NjwPbOTz0H2Pg95FK2srMC2bWxtbUHTNLzxxhu+29XrdXz22We+665cuYJLly4hn8+HWdSxxwDQRr1ex/b2NmKxGJLJJE5PT323k2Oxcjs5bOKdMyiVSs42T58+bUhDvj+Xy8GyrKZT3lZ5BOXu/OVnAwDDMJxlsvP30nW9q7wGxVt/QerTsiyUSiVnGznK7W4wAAAMHUlEQVQ8sLKy0rD//IZDvMtM03SG+9zLo5yXsCwL6XQaV69e9V1vmiaWlpZ8g4Afdxt3tz93fkHbcL9tFIBTr+vr64jH4223zefz+PDDD1uun5+fRzqd5lBQO1GfgwxDr6d1mqYJXded00h5mu1Oq1arCU3TRKFQEEIIsb+/LwCIcrksNE1ztpen69VqVQAQuq47aZim6Zzm2rYtDMMInEcvqtWqk8fJyUnL7WzbjnQIyF1/3v9b1adc797Gtm2h63rD55VDIu56lmm5l3n/F0IIwzBaDrV0o5chIDkk5TcsIssp9623ffgdA5qmiWw2K4R40c7cQydB2/Ag2qgczikWiyKbzQoAQtM0sb+/37Tt/v6+Ux6/feQuZzftV7UhICU+aS87VR5o7g5SdojutGRQcINrLNavcfp1Mu6xWdk5Bc2jG+5ODp45AK/9/f2exlFl+QYxBxCkQw6yjexc3J+317QGpZcA4P1y4CaXyzkCb/v1vk920u62d3h4KAA4Hbl8X6d6GkQbNU2zIWi4A7d7/qpWqzlBq1X55Ps7tXEvBoAJ1MtOlQ3Py9vY3N+QvC+/7f2WybwKhYJvZ9spj16Uy2WnM3EfTN583QdeN0YtAAw6rUHoJQC0K4/3rFF+g5YdvPd9fm1cdpqaprXNs9vjoNfPJgO3+2zD21471Uk3ZWAAmEC97NR+OpFO6XiXnZycNBxA3m8sYXVCJycnLdMuFAotA0MQDACdhRkAhHjRecqzuE6ftdXyYdVTkPL4XRXEANAzXgU0KK0miIOYmZlBsVhEuVyGrutIp9O+N/j0k0erfP1UKhU8fvwYv/zlLwea3yiIakI7ColEAsViEaVSCaZpNq2Xk/5+k6S91lM/bVTm6XcTlyxrMpnE5cuXW07iU3cYAFrIZrMAvukMg2y3tbXlNNxu79CMxWKo1+tIJBK4d+8eyuVyw+WZg8jDj0yrUCg4yyzLwoMHD7C+vu4sq1QqWFlZ6SuvqMmO6dq1axGXpD+yIw96p6umaSgUCtjY2Ghat7y8DOCbS4Qlma58XGVQg2ijMs8vv/yyqTyyrEKIppfk/tvNfaUbeUR5/jEsvZzWyclSTdOcU045aQbXmKT7ahL3q1qtNqyTY/vuiWT32KxhGE4+1Wq1YRioXR5BaZrme7WRe5JOXsnhl1e3VwJhAENA7s9dq9W6qk/gxUSm/KzucW0hRNOVQXIC1L1/ZX3UajVnn4ziVUCdbvTymzyWk8XueYJCodB0dU+QOu/URr0TvK3I/STTzWazTfvNS+blxauAOuIcQDvVatXpJHRdb7jUzX2guS+r1HXdafTeg6HdMtnBwGcOoF0eQcmOQ75M02ya4JWf1e/V7nJRP4MIAK3KEqQ+ZWcjO/BsNts0wV6tVp31spPw7l85jm4YhrMsygAgO1r3vmtVN15+Ham8osYdNN31FLTOhWjfRg3DELqud+zMhRAN5fHbb16tPrMM6N3c/axaAIgJ0eK8aYLs7u5icXGx5SkiDV4sFsPOzg4WFhYiyRtoPSQwKuSQx97eXlfvk8Mqt2/fHniZwpZMJlEsFoeSVyaTwfnz57uqJ8X6ij3OARCNmVQqhYcPH+Lo6CjqonTl6OgIq6urQ8mrUqmgUqkglUoNJb9xxQBAE8X7MwaTKB6PI5/P4+7dux0vUhgVBwcHuHDhQtNPkoTh9PQU9+/fRz6f7/hzEqpjABhzfj/1O64//zsIFy9e9P170kxPT2NrawsPHjyIuiiBzM7OtrzseNBKpRLu3LkzFj98F7UzUReA+qPIWGVgKtVHPB4fy3mAsLFOguMZABGRohgAiIgUxQBARKQopeYAur29nfrz29/+tutr3FUiL+Nkuxwdz549i7oIQ8UzACIiRSl1BsBvo8MTi8Xwq1/9KpI7gcdFr3cCU3jkncCq4BkAEZGiGACIiBTFAEBEpCgGACIiRTEAEBEpigGAiEhRDABERIpiACAiUhQDANGEsCzLeVykKjY3N1Gv16MuxthiABiQdg9j2dzcRKlUYkMdknq9HupDcMJOvxeWZWFtbQ1TU1NOu8tkMr7bjtMDg+r1Oo6OjpDL5ZBMJpvWz83N4ebNmxP79LewMQAMiBACtVrN+d+2bQghIITA3NwccrkcG+qQPHr0aKzT71a9XkcqlcKtW7eg6zps20ahUMDGxoZvEHC31VqtNtIP0TFNE3/84x/xwQcfoFQqNa1PJBJYXV1FKpXiF6weMAAMkPsRdO5nkSYSCeTzeQBgQw1ZvV5HLpcb2/R7kc/nkUgknOftxuNx3LhxAwCwsbGB7e3tpvfItjrqj01cX1/H+vp6222uXLmCS5cuOccYBccAMCTT09P46KOPUCqVmr5ByrHbWCyGZDKJg4MDZ/n29rZz6lsqlZxtnj592pCGfH8ul4NlWU2n9a3yGCX1eh3b29vOsIT8LJLfkIV3mWmazjdFudyyLJRKJacec7kcYrEYVlZWcHp62nf6AJDJZFoOuYTJsiyk02lcvXrVd71pmlhaWvINAn467YNu2uQw29z8/DzS6TTPsLslFLCzsyOG9VEBtMzLtm0BQOi67iyr1WpC0zRRKBSEEELs7+8LAKJcLgtN05z0Dg8PhRBCVKvVpjRM0xTVatXJwzCMhjK0yyMsAMTOzk5X79E0TWSzWSHEizJrmiZs23aWeetX1od7Wav/3fVo27bQdV0AECcnJ32lL4QQhmEIwzC6+rzXr18X169f7+o9XsViUQBw9r+bLKNsD9797ddOO+2DoG1y0G2u3XHlLkOxWOwpfWmYfcUI2FXik45KAPBbXygUmrYH4HQmfun5dUi1Ws35X3ZkQfMIQ7cBQHYQ7s9xeHgoADidiEw3SH102kYIIcrlsgAgTNPsO/1eDCIAeIO9m1xu27bTcctg514vDXIfDLrNdapz+eXKvS97wQAwgUY5ALi/UXlfrdLzLpPfZAuFgvNNza1THmHoNgDIz+AmD2pN0xrSHVQA6PW9oxQA2pXFexYo61J28N73DXIfDLrNBXnvIPYLA8AEGpUAIA8m97egbgOG37KTk5OGA877LSjszt5PtwEg7A5a9QAgxIszHjmkMw511E16DABd2+Uk8BB9/vnnAOA7YeeejOzWzMwMisUiyuUydF1HOp32vSGonzzCpmkaAPhO4um6HmreYac/KhKJBIrFIkqlEkzTbFofxj4Y5TZHvApoaCzLwqeffgpN0zA7O+ssz2azAICtrS3n8tBu7+iMxWKo1+tIJBK4d+8eyuUy0un0QPMI2/LyMgDgiy++cJbJsob10HTZOV27di2U9IdBduRBLy3WNM25R8BrkPsgqjZnGEao6U+cqM9BhmFYp3XytBpAw1i8vKLHPf4qua88cb+q1WrDOpmeOw/3WK5hGM6VINVqtWEYqF0eYUGXQ0ByotJdR4VCoeHKEiFE05U7cpISeHEVihwOq9VqTj3IbeRkprxayj223U/6o3YVkNzn3vYm+U0eB9kHQdtkpzZnmqYAgl0V1Oq4cuNVQD3hHMCg+DV2+TJN07lkzk+1WnUOSF3XnYPEm067ZbIzkvkFzSMs3QYAIb7pNLLZbENn7T3gq9Wq0wHLg11ebig7HznWbRhGQ5CUHY58fzabHVj6UQUA2dG625dfG/TjDX4yvXb7IGibFKJ9mzMMQ+i67lsGt1bHlJcM1K0CXlCqBYCYECN8H/iA7O7uYnFxcaRveZ80sVgMOzs7WFhYiLooAODcsDVKbUAOq+zt7fWVjhxWuX37dt9lGrZkMolisdh3OplMBufPn++7DhTrK/Y4B0A05lKpFB4+fIijo6Ooi9KVo6MjrK6u9p1OpVJBpVJBKpUaQKnUwgBAE8/7UwaTJh6PI5/P4+7du6hUKlEXJ5CDgwNcuHDB+f2iXp2enuL+/fvI5/MNv79FwTAA0MS7ePGi79+TZHp6GltbW3jw4EHURQlkdnYWMzMzfadTKpVw586dkf9Ru1F1JuoCEIVNkfFcxOPxsZwH6Idqn3fQeAZARKQoBgAiIkUxABARKUqpOYBRfvbpJFpcXMTi4mLUxRh5bJcUFSUCwI9//GPs7OxEXQwiopGixJ3ARETUhHcCExGpigGAiEhRDABERIo6A6C/nyIkIqJxdPR/6+4osJd5B1kAAAAASUVORK5CYII=;" vertex="1" parent="1">
          <mxGeometry x="180" y="540" width="341.93" height="569" as="geometry" />
        </mxCell>
        <mxCell id="tvrvrnsWNNNO1hUHJI35-2" value="" style="shape=image;verticalLabelPosition=bottom;labelBackgroundColor=default;verticalAlign=top;aspect=fixed;imageAspect=0;image=data:image/png,iVBORw0KGgoAAAANSUhEUgAAAbIAAAPRCAYAAACYjC3BAAAABmJLR0QA/wD/AP+gvaeTAAAgAElEQVR4nOzdf4gb550/8LccO5fWtOvztevG7bkt5cLZDrdtrg3OHZfUrnu5uh1dabze7iab3B9rM+JaSOrtHzUj1sbG9A9tEu5r6CLtP2Eh0u7mL4lef2BtcSmWCBQk8Lp4KabahATpKIzyx8E1dZ/vH8kzHo1G0mg0o5nRvl8gkn1m5plnnnme+cw880iOCSEEiIiIoml9V9AlICIiGgQDGRERRRoDGRERRRoDGRERRdpurzP8wQ9+gLfeesvrbImIaAScOXMGk5OTnubp+RPZz3/+c9y+fdvrbIlC5fbt2/jlL38ZdDFC7b333sMbb7yB9957L+iiUEj84he/wObmpuf5ev5EBgCTk5O4ePGiH1kThcLFixextraG9fX1oIsSWpubm3j00Ufx8ssv4+jRo0EXh0LgyJEjvuTLd2RERBRpDGRERBRpDGRERBRpDGRERBRpDGRERBRpDGRERBRpDGRERBRpDGRERBRpDGQDaDQayOVyiMfjRloymUQymfR1v8PYxzCN2vH0Yycfu51YLNbysdNoNLC4uDjkku0si4uLaDabtsucnKNhYyAbwMLCAqanp1EoFHzbR7PZDE1jMdve3kYikUAsFkMikcDGxkbQRXItrHU8DGE9diEE7P7N30ajgYWFBezdu9e4kHa6EbBecMN4nFKz2US5XEYmk2m5MXbDad8sFAqIx+OIx+Nt17CTJ09idnYWjUajbbtO5yZQwmOHDx8WCwsLXmcbWgCED9VoyOfzvubvhq7rIp/PG/+fzWYFACMtatzU8cLCgjh8+LBPJRoeP9vXrVu3BABx69Ytx9t060+6rgtFUUSpVDL+lm1P0zTbber1ugAg6vV6/wcwRJqmCU3TBr6eOO2b2WxWKIoidF0Xuq4LVVVFOp1uWadUKhnr2HFTVp/iwxoD2YD8DGSy44YtkNkFLL8Dul/c1vEoBDK/25fXgSyVStkGLLlNNpvtmGdUDNqPnPTNWq0mABg3BEIIUalUBABRqVRatlVVVaRSKc/K6lcgC3xo0fqeqVAoIBaLIR6PY3t7u2XdZrOJXC5nDBNkMpmWR99Go2E8LjebTSQSCSSTyY77SCQSxj5kvuY0uc9MJtMyjGH3uG13LID98IY8vl75p1Ip45FfLrfbh9O6cVrPvSiKYpuuqmpf+diVy0k5zecZgFF/iUQCW1tbRt52Q0rWNLs6HpawHnsY39s1Gg3Mz8/j+PHjtstTqRSmp6eRy+Uc5edlf5Hv7OTyIIfZnfTNmzdvAgAOHjxopD388MMAgDfffLNlu8nJSczPz3e85oWG16Gx34gr7whhukOQdwyqqratKx9/6/W6UBSl5dHXmlelUhGqqrakyzuOUqlk7KPbflVVNYYm7JbDdFdi3o95uXlYQw7l1Gq1vvPvtA83ddOtnvul67rroUXr8Tgpp1xuXkcOjwAQd+7cMerBWlcyL+s56rcrePFEFtZjl8Ncg/Lyiczab6zbCCGMoTnrU4Vdfl71F7mtfBosFou2ZXDKTVvsxq5vyrZit29FUVrS5DF7NQoz0kOLdhViTZMNxBwUZDAyDynI7azjuk72YZemaVrXwNLPRfHOnTsCgCgWi67zt0vrt2561UG/isVi17H0Xtwcs906cnjEPBTiNq9evBpajOKxO+VlIJNBqtM2QrQOlcqAbl4uedlf5Dso6zpubwS8Ph92fbPTPuzSZSC0G15kILNw0mDs7iJkJZvvIvo5Sf1c2Gu1mkilUq4Dmbxz6zTe7DR/u7RB6saLjmN+Ae+GVxdzr/PqJmyBzOu8vOBlIOtWTnO6fBJVFMUIVNbtvOwv5ic368cNr8+HXd/st47dnJNORvYdmVNLS0ttaWNjYwDg6/R34IP3EN/73vc6jj878f/+3/8DAJw/f97z/IOsm1wuB0VRcOzYMV/3Q+TE+Pg4KpUKCoUC5ubmbL8L5WV/keuLD6ekmz9B69Q3u11n3LznDoPIBDJZ+XYvHf2s/Fwuh3PnzuHatWt45JFHXOWRyWRw5coVXLt2zZf8g6qbarWKzc1NnD171rd9uBHVzuiFnXzs0sTEBPL5PAqFAlKpVNtyP/qLeaJNGHTrm3bHLyewPPbYY8MpoMciE8hmZmYAAHfv3jXS5N3W5OSkb/udnp4GABw6dMjV9uVyGefOnUOxWLTNY9D8gWDqptFo4Pr167h8+bKRVq1WkUgkfNmfE/JicurUqcDKEJRRP3YZkDr92oSVoijIZrO4cuVK2zIv+0s6nQYArKysGHkE/csjvfrm008/DaD1+N95552WZVaapvlVXG94PVjZ7xioeXaVfCEpx6theiErX+Sax76z2WzbDCLYjNva7cOcJvOzS5Nj4LVazZisIZdb17f+LWf8WN+LyfV65W9eXq/XRSqVsi1jv3XTrZ6dnrNO7wb6nbnYrQ67lVP+LV/O67ouNE1rm3Vlnc0nX+oD92efWevYCS/ekYX12KM0a7HXF57tJol42V/M65k/spzyvbeTWYzm/O0mTjnJy2nfTKfTQlXVrl+IFoKzFh2vb63sTmlCfHCS0ul0S0e2m42DDi9te+3DLk3OBtM0TdTrdWOWoXkqc6dPtxfBTvK3W+5F3fSq517kBdLuY54t5kSvOuxV9kqlYtRzOp1uuwDUajVjueyMcrq0vBhZ69gJLwJZWI89jIFMtn3zxIVOdWZlDfAyP6/6S61WMwKmue8KcX9Wsl0Z7I672/E4yaufvilvDhRFaZlJbSZvfuz6Rb/XDSH8C2SxDwvkmSNHjuDMmTO4ePGil9kStZBf3vW4+Tp28eJFrK2t4fbt20Pfd9DH7tTm5iYeffRR3Lp1C0ePHnW0Tbdjk8N1dhOmwi4ejyOfz4cur16SyST27dtnW+du2qFP8WE9Mu/IiGhnm5ubw40bN1Aul4MuSl/K5TIuXLgQurx6qVarqFarmJubG8r+BsFARpFj/SmhnWQnH/vY2BiWl5dx9epVVKvVoIvjyMbGBvbv3+/J11O8zKuXra0tLC0tYXl52fhqQpjtDroAFB5Of2fQyVCCl3lZHThwoOX/wz7E5qWdcuydhq3Gx8exsrKC5eVlTExMBFG0vpw4cSKUefVSKBRw6dIljI+Pty0L4z+Hw0BGBi8vin5eYEf14u3EqB+7k+MbGxuL5HuyKOlWv2FsgxxaJCKiSGMgIyKiSGMgIyKiSPP8Hdn//d//4dKlS7h06ZLXWROFyoMPPhjKF99h8+ijjwZdBAqJv/qrv/IlX88D2Z49e3D69Glff/+QKGjr6+sol8uB/qZe2L311luYn59HKpXC3/7t3wZdHAqBH/7wh77k63kg27VrF44ePYozZ854nTVRaNy+fRubm5ts511sbm5ifn4e//Zv/+b4lz1otPn1i098R0ZERJHGQEZERJHGQEZERJHGQEZERJHGQEZERJHGQEZERJHGQEZERJHGQEZERJHGQEZEoRGLxVo+dhqNBn9RxWeLi4toNpu2y5yco2FjIHPIevKCPInNZrNl32EqGw2HtQ1ELf9ehBC2/+5Vo9HAwsIC9u7da7TzZDJpm0eU+kSz2US5XEYmk0E8Hh8or+3tbSQSCcRiMSQSCWxsbNiuVygUEI/HEY/HUSgUWpadPHkSs7Oztv8KeadzEyQGMoeEENB13fhb1/XATuavf/3rlr+FEKjX68bfQZaNhsPaBqKWvxvNZhNzc3N44YUXoKoqdF1HNpvFlStXbIOZuV/U6/VQ94lUKoWf/vSnOHfuXFtQ6Uez2US1WsVPfvIT6LqOp556Cl/72tfa8szlcshkMlhZWcHKygr++7//G5lMxlg+MTGBCxcuYG5uruOTWagIjx0+fFgsLCx4nW1oABA+VJtjuq4LRVFsyxB02XaShYUFcfjw4UD23a0NhCn/W7duCQDi1q1bjrfp1oZTqZTQNK3jNtlstmOeUTFoH87n8z3zrNVqAoAolUpGWqVSEQBEpVJp2VZVVZFKpTwrq0/xYY1PZANqNBrI5XLGcEChUEAsFkM8Hsf29raxjnyMB4BMJmM89m9tbRl52Q2BWNNSqZRxd+V2uKTZbBplkEMz8r2DeX/m9xDmZebjkunxeNwYwjAfb7PZRCKR6Dj8s9M0m03kcjmjLjOZTMvwjds2MIw2lkwmAzuPjUYD8/PzOH78uO3yVCqF6elp5HI5R/n1Og9O+rV5Xbt+EARFUWzTVVU1/v/mzZsAgIMHDxppDz/8MADgzTffbNlucnIS8/PztkOMoeJ1aNxpT2TyzhWmOxx5x6Oqass25nV0XReqqgoA4s6dO0IIIer1ese7J3Oa9e9e6VZyv/V6va2spVKp5W8zRVFEvV43yqooinEXXCwWjTs6a51UKhXb/KLM7ROZoiginU4LIe7XoaIoQtd1I81NGxhGG9M0zfaJqBMvn8jy+bwAIGq1mu02snyyDdotN+t1Hpz0a/O2dv3ADad92Cld1wWAlic12Sbs9q0oSkuaPGYnT3pO+PVExkDWJ7uT5yTNbh35OG9+dHebV7d0K03TWjqjdbtUKtV20ahUKi1DN9ls1rac8kIn85QXhlHjJpDJi5y8GRDi/o2DuW7dtoFhtLF+eBnIZJDqtI0QrUOiMnCbl0tenode/aBfXgeyYrHYEqC77cMuXQZCu+FFBrII8zKQOV3P60Am1Wo1I2iZt5MXP3nHKsQHwc0c2Mx3rNaPm7JEjZtAZncnLC8U5jthLwOZ223DFsi6lcecLp84zaMH1u28PA+9+kG/vO43iqK0vAvrtg+v0rvhOzLyVCaTwfe+9z3bMfWJiQmoqopz586h2Wyi2Wzi97//PQ4dOmSsI9+hiA+n4po/ZG9paaktbWxsDAAGmqlG942Pj6NSqaBQKHSccefleQhzP8jlclAUBceOHWtJ7/QeDWh9lxYlDGQhMKzGk0gkAHzQwM+dO4dr167hkUce6Vqmn/3sZ/j1r3+NF154wXY980QC6k5eQOxenPvdBqJ6gXJjYmIC+XwehUIBqVSqbbkf5yFs/aBarWJzcxNnz55tW2Z3/HICy2OPPTacAnqMgSxAsvGfOnXK932Vy2U89dRTAIDp6WkAaHnCspJPZdPT08hkMm13del0GgCwsrJi3PXyFxe6m5mZAQDcvXvXSJN1Nzk56cs+h9nG/CQDktPvNCmKYnzHzMrL8xDGftBoNHD9+nVcvnzZSKtWq8aN7NNPPw2g9fjfeeedlmVWmqb5VVxveD1YOcrvyOQ4OkyTGMyzwGSaeT3zOD1ML5N1XReaprXNErLOMpMvoYH7s6XkuHy9XjdewtrNRpNkHnImldy+VquJO3futJXVup35XZlk3p/5U6vVupZlVLh5RyYnI5jf32Sz2bYZnW7bgN9tLIyzFmVbs7ZdyW6SiJPz4LRfd+sHQtyfOOVkFqPd9cXMSV5yFqVdmcwzD9PptFBVVei6bsxutevnnLU4Yuwaht3Hbl1zmnl6ejqdbmuwtVrNWC4bj5zeKzuPnIyhaVrHjmT3kfuybi9nMdpNbVYUpWUGmLWs8kJh3t68T+tFdFS4nX5fr9dFOp1uCTpetAEh/G1jQgQbyGQ7N09c6NT/rOzaYK/z4LRfC9G5Hwhxf4Zwr37Q7XrST17yJsXuY+3H8uZAURRRLBZt85M3OXY3CgxkO1AUn1DknRq1C/KXPToJWxvz45c9Ov3KRNh5eUM3zJtDTdP4yx4UbWtra769uyHq19zcHG7cuIFyuRx0UfpSLpdx4cKF0OXVS7VaRbVaxdzc3FD2NwgGsiGw/vRNmCWTyZafojpx4kTQRSIHotTG3BobG8Py8jKuXr2KarUadHEc2djYwP79+9smSwWdVy9bW1tYWlrC8vKy8dWEMNsddAF2ggMHDrT8vwjBd0w6kTMZ0+m07dRdCqcotTEn5O87Wo9jfHwcKysrWF5exsTERBBF64uXN4LDvKksFAq4dOkSxsfH25aF8Z/DYSAbgihdVM6ePcsAFkFRamPdODmOsbExnD9/fgil2bm61W8Y2xqHFomIKNIYyIiIKNJ8GVrc3NzE2tqaH1kThcLm5ibee+89tvMu3nrrLQDAz3/+c2xubgZcGgqD9957z5d8Y8LjAc8jR47gd7/7nZdZEhHRiFhYWMDFixe9zHLd80BGRPcdPXoUk5OTXndcIrpvne/IiIgo0hjIiIgo0hjIiIgo0hjIiIgo0hjIiIgo0hjIiIgo0hjIiIgo0hjIiIgo0hjIiIgo0hjIiIgo0hjIiIgo0hjIiIgo0hjIiIgo0hjIiIgo0hjIiIgo0hjIiIgo0hjIiIgo0hjIiIgo0hjIiIgo0hjIiIgo0hjIiIgo0hjIiIgo0hjIiIgo0hjIiIgo0hjIiIgo0hjIiIgo0hjIiIgo0hjIiIgo0hjIiIgo0hjIiIgo0hjIiIgo0hjIiIgo0nYHXQCiUfGb3/wG7777bkvae++9h9u3b2N9fb0l/Stf+Qo+97nPDbF0RKMrJoQQQReCaBT8+Mc/xo9+9CNH6/7+97/HF77wBZ9LRLQjrHNokcgjMzMziMViXdeJxWL40pe+xCBG5CEGMiKPHDp0CF/+8pexa1fnbvXAAw/ghRdeGGKpiEYfAxmRh55//vmuT2X37t3D5OTkEEtENPoYyIg8NDU11XHZrl278NRTT+HgwYNDLBHR6GMgI/LQJz/5SXz1q1/FAw880LYsFothdnY2gFIRjTYGMiKPzc7Owm4ycCwWw7e//e0ASkQ02hjIiDz2ne98B7t3t35Fc/fu3Th16hT2798fUKmIRhcDGZHHPvaxj+Fb3/pWSzC7d+8ennvuuQBLRTS6GMiIfPDss8/i3r17xt8PPfQQvvnNbwZYIqLRxUBG5INTp05h7969AIA9e/bgmWeewUc/+tGAS0U0mhjIiHzw0EMP4ZlnnsEDDzyA999/H9PT00EXiWhkMZAR+WRmZgb37t3Dvn378PWvfz3o4hCNLP76PZFPvva1r+ETn/gEJicnsWfPnqCLQzSyRuLX79fW1rr+ogIREbUbgcs/AKyP1BPZ6upq0EWgCJiamsKLL76IJ554wvd9vfvuu/jUpz7V81fxw+aVV14BALz00ksBl4T8UCqV8OqrrwZdDM+MVCA7c+ZM0EWgCJiamsITTzzB9tKF/IdAWUeja5QCGSd7EBFRpDGQERFRpDGQERFRpDGQERFRpDGQERFRpDGQERFRpDGQERFRpDGQERFRpDGQRUyj0UAul0M8HjfSkskkksmkr/sdxj6ihnXSWaPRwOLiYtDFGGmLi4toNptBFyMUGMgiZmFhAdPT0ygUCr7to9lshvInlba3t5FIJBCLxZBIJLCxsRF0kQIV1vPUaDSwsLCAvXv3IhaLIRaLdQz4crn5E1bNZhPlchmZTKblRtINp225UCggHo8jHo+39fmTJ09idnYWjUZjoLKMBDECVldXxYgciiMAfD3efD4fuvrUdV3k83nj/7PZrABgpPUDgFhdXfW6iEPn53k6ffq0OH36dN/b6bouFEURpVLJ+FueK03TbLep1+sCgKjX6wOV2W+apglN0wbuf07bcjabFYqiCF3Xha7rQlVVkU6nW9YplUrGOv0YsWvm2kgcyYidlJ78DGTyQhS2+rQLWG7rYRQCmd/nyW0gS6VStgFLnqtsNmu7XdjaWzeD9j8nbblWqwkAxg2BEEJUKhUBQFQqlZZtVVUVqVSqrzKM2DVzbUcOLVrfMxUKBcRiMcTjcWxvb7es22w2kcvljGGPTCbT8ijfaDSMx/9ms4lEIoFkMtlxH4lEwtiHzNecJveZyWRahmU6DR/YvTOzG66Rx9cr/1QqZQxhyOV2+3BaN07ruRdFUWzTVVXtKx+vWI/NybGa2woA4xwkEglsbW0ZedsNs1nT7M4TEOx7u0ajgfn5eRw/ftx2eSqVwvT0NHK5nKP8vGxf8p2dXB7ksLSTtnzz5k0AwMGDB420hx9+GADw5ptvtmw3OTmJ+fn5nT3EGHQo9UK/dxfyThamOx55B6Sqatu68nG+Xq8LRVFaHuWteVUqFaGqaku6vIMqlUrGPrrtV1VVY6jFbjlMd2/m/ZiXm4dp5BBUrVbrO/9O+3BTN93quV+6rgc6tGitEyfHKpeb15FDRgDEnTt3hBD3h9rM9S3zsp5n6zmRw1+DcvNEZm1nZrKccmjO+lRh13+9al9yW/k0WCwWbcvglF29D8KuLcs2YbdvRVFa0uQx99MXRu2JbCSOxM1JsWuM1jTZ4M1BQQYj8xCJ3M46Tu1kH3ZpmqZ1DSxOLmjSnTt3BABRLBZd52+X1m/d9KqDfhWLRVfvBuT+vRhadFNvduvIISPz8JDbvLziJpDJIGVHppuHRGXgNi+XvGxf8h2UdR23Ad/rerdry532YZcuA2E/w4sMZCHkVyCzuyuSjcZ8V9RPo+vnwl6r1UQqlXIdyOSdaKcG7jR/u7RB6saLC4F5QkG/whbIvM7LC24CWbfymNPlE6eiKEagsm7nZfsyP7lZP254Xe92bbmfa4qbMjGQhZBfgWyQi47TfXRKS6fTQlEU44nKTSDTNK1tGMJN/oMcsx+BLJvNts3e6gcDWW9+BjIh7j+FyicRp20kDPXkZX6d2nKniTyA/bD8Tg9kO3Kyh1PypazdS1Q/JxnkcjmcO3cO165dwyOPPOIqj0wmgytXruDatWu+5B9U3VSrVWxubuLs2bO+7SMoQU1cCcLExATy+TwKhQJSqVTbcj/al3lCTRh0a8t2xy8nsDz22GPDKWCEMJB1MTMzAwC4e/eukSa/ST85OenbfqenpwEAhw4dcrV9uVzGuXPnUCwWbfMYNH8gmLppNBq4fv06Ll++bKRVq1UkEglf9jcs8gJ76tSpgEsyGBmQnP7ahKIoyGazuHLlStsyL9tXOp0GAKysrBh5BP3LI73a8tNPPw2g9fjfeeedlmVWmqb5VdzwC/qZ0Av9PiabZ4XJF6xyeAO4/4JZvpg2j+Vns9m2GVGweay324c5TeZnlyaHFWq1WsvQX71eb1vf+recwWR9LybX65W/eXm9XhepVMq2jP3WTbd6dnrOOr3r6HfmIjwYWux2Hrodq/xbTljQdd12CNg6k1FOdIBpaMl6noQI56zFXl94tpsk4mX7Mq9n/shyyvfETmYxmvO3m2jkJC+nbTmdTgtVVbt+IVoIzloUO/UdmbXxdEoT4oNGl06nWy5AdrOLAPuX0L32YZcm3x9omibq9boxy9A8BbvTp9uLbSf52y33om561XMv8sJu9zHPfnPCi0DW6zzYrWNOq1QqxrlKp9NtF8VarWYslxcoOYVcXqCt50mIYAOZbCvmiQud6sbK7l2ul+2rVqsZAdPc1oW4P4u30/vkbsdiPR4nefXTluXNgaIoLTOPzeRNTj83hqMWyGJCCIGIW1tbw9TUFEbgUGgIYrEYVldXcebMmUD2DSD0bVUO362vr/e1nRyuO3/+vOdl8ls8Hkc+nw9dXr0kk0ns27evrzofsWvmOt+REZFn5ubmcOPGDZTL5aCL0pdyuYwLFy6ELq9eqtUqqtUq5ubmhrK/sGIgIxoS688rjaKxsTEsLy/j6tWrqFarQRfHkY2NDezfvx/Hjh0LVV69bG1tYWlpCcvLyxgbG/N9f2G2O+gC0M7m9J/tGIUhkAMHDrT8/ygck53x8XGsrKxgeXkZExMTQRenpxMnToQyr14KhQIuXbqE8fHxoe0zrBjIKFCjejG3s5OOdWxsLJLvyaKE9XsfhxaJiCjSGMiIiCjSRmpocW1tLegiUESUSqWgixBqb7/9NgD2qVE1au1/pL5HRkREzo3A5R8A1kfqiWxETgr5LMgvREeF2y9EUzSM2s0/35EREVGkMZAREVGkMZAREVGkMZAREVGkMZAREVGkMZAREVGkMZAREVGkMZAREVGkMZCNsEajgVwuh3g8bqQlk0kkk0nf9z2s/VA4NRoN41+LJn8sLi6i2WwGXYxQYCCz2NjYQCwWQywW63ghlsvNnzBaWFjA9PQ0CoWCr/tpNpuhrYOw8buuwnAuGo0GFhYWsHfv3pHpS8AHdVsul5HJZFpuDt3Y3t5GIpFALBZDIpHAxsaG7XqFQgHxeBzxeLytH588eRKzs7Mj+4+09kWMgNXVVeHloei6LrLZrAAgNE2zXaderwsAol6ve7ZfPwDwtG7s5PN53/fhJQBidXU1kH37XVde5X/69Glx+vTpvrfTdV0oiiJKpZLx96j0JU3ThKZpA/cpXddFPp83/l/Wj0yTstmsUBRF6LoudF0XqqqKdDrdsk6pVDLW6YfX18yArY3Ekfh1UmSDzWazHZeHnd+BTF64olAXUlCBzO+68jJ/t4EslUrZBqxR6EvSoH3KGrDs8qzVagKAcUMghBCVSkUAEJVKpWVbVVVFKpXqqwyjFsg4tNhDKpXC9PQ0crlcz3WbzSZyuZwxRJLJZFoe+xuNhjFU0Gw2kUgkkEwm295lFQoFY8hhe3sbAIx8zWlyn5lMpmUIp9NQg907M7uhnVgs1rJOt32kUiljyEMut9uP0/qxq4d4PN5yzEHoVXa7oTFrWqe6km0CgFHPiUQCW1tbA+cPDO99ZaPRwPz8PI4fP267vJ++BHjbXuQ7O7m801DeMCiKYpuuqqrx/zdv3gQAHDx40Eh7+OGHAQBvvvlmy3aTk5OYn5/f2UOMQYdSL/j5RCaEMIYTrHdC1n0qimI8+tfrdaEoSstjv7xbxod3WpVKRaiq2pIu91EqlQQAoaqqcVcm79JUVTX2qaqqMSxjtxymOz3zfszLzUM6cmiqVqu52ken/bipn07HPCi4eCLrVXY5PGY+Zll2a33b/W0+ZjmMBEDcuXNnoPyFuD8k1g83T2R2bcdcLlkWJ31JCO/ai9xWPg0Wi0XbMjhlV8eD0HW9bWhRnn+7fSuK0pImj9nuSa+TUXsiG4kj8TuQmYds5Dlg2AUAACAASURBVIXFvFyI+53DHBRkMDIPp8hOYB3TtuscTtI0TesaVJxc6KQ7d+4IAKJYLLak97sPu7R+66dXPQyi30DmZdmdHp8cRjIPGbnN3w03gUwGKTv99CUhvK1z+Q7Kuk6/wb3bPgdRLBbb3nN12oddugyE/QwvMpCFkN+BTIj7d8SKohidy7zc7g5KNjDzHVQ/DbSfi3qtVhOpVMp1IJN3rd06g9N92KUNUj9BBzIvy97P8bnZNshA1m3f/fQlIbytc/OTm/Xjhtft0Tw5ptc++k3vhIEshIYRyIS4f5cs756cXECcXmgGCWTpdFooimI8UbkJZJqmtQ1ZuN3HIMcdxkDmd6DZaYFMiO59qVteQdaJH/lls9m2mYhC3A++dvu2G2bf6YGMkz36MDExgXw+j0KhgFQq1bJMvsC1e+FqfonrtVwuh3PnzuHatWt45JFHXOWRyWRw5coVXLt2zbd9BFU/Xgiy7GGvG7e69SXAnzo3T54Jg2q1is3NTZw9e7Ztmd3xywksjz322HAKGCEMZH1SFAXZbBZXrlxpSZ+ZmQEA3L1710iT37qX/2y8H6anpwEAhw4dcrV9uVzGuXPnUCwWO+Yx6D6A4OrHC0GUXV50T5065Uv+fpAByemvTXTqS4C3dZ5OpwEAKysrRh5B//JIo9HA9evXcfnyZSOtWq0ikUgAAJ5++mkArcf/zjvvtCyz0jTNr+KGX9DPhF7w4zG515c0rS+25Uts87h/Npttmz0FmyEAc7rdLDiZn12aHIKo1Wotw371er1tfevfcraT9b2YXE/qtg/z8nq9LlKplG05+60fWQ9y2KnbuegX+hxadFJ2IUTbTEM5OQGm4SBrXcnyAPcnMei6bjvU6zb/oGct9tuXhPC2vZjXM39kOeV7XyezGM35230J2Ule8n20XZnMMw/T6bRQVbXrF6KF4KxFwXdk9uwamB3rhaZer4t0Ot1yYbKbiQTYv7A278tpmnzXoGmaqNfrxgxD89TsTp9uL8HNx9xtH3bLO+XTT/10O+ZB9RvInJRdiA8uKLJO5UVFTvuWF1VrXcnyyIuf3D6dTnuW/7ACmTz35okLbvuSzM+r9lKr1YyAaW67QtyfldvtHXGnY7Eej5O85A2J3cc8k1OI+zcHiqK0zSaW5A1NPzd6oxbIYkIIgYhbW1vD1NQURuBQaAhisRhWV1dx5syZoIsCAMYXl8PUfuXw3fr6el/byeG68+fPe14mv8XjceTz+dDl1UsymcS+ffv6qvMRu2au8x0ZEXlmbm4ON27cQLlcDroofSmXy7hw4ULo8uqlWq2iWq1ibm5uKPsLKwYyogBZf3Ip6sbGxrC8vIyrV6+iWq0GXRxHNjY2sH//fhw7dixUefWytbWFpaUlLC8vY2xszPf9hRkDGVGADhw4YPv/UTY+Po6VlRVcv3496KI4cuLECddfK/Ezr14KhQIuXbqE8fHxoewvzHYHXQCinWxE3lG0GRsbi+R7sihh/d7HJzIiIoo0BjIiIoo0BjIiIoq0kXpHFvafOqLweOWVV/r+jpQbf/zjH/HQQw9h7969vu/LS3L6PPvUaHr77beDLoKnRuIL0aVSCS+//HLQxSBq88tf/hKf+cxncOTIkaCLQtRmGDdzQ7A+EoGMKKyOHj2KyclJXLx4MeiiEI0q/rIHERFFGwMZERFFGgMZERFFGgMZERFFGgMZERFFGgMZERFFGgMZERFFGgMZERFFGgMZERFFGgMZERFFGgMZERFFGgMZERFFGgMZERFFGgMZERFFGgMZERFFGgMZERFFGgMZERFFGgMZERFFGgMZERFFGgMZERFFGgMZERFFGgMZERFFGgMZERFFGgMZERFFGgMZERFFGgMZERFFGgMZERFFGgMZERFFGgMZERFFGgMZERFFGgMZERFFGgMZERFF2u6gC0A0Kv7rv/4Lv/nNb1rS3n77bayvr+P27dst6T/84Q/xla98ZZjFIxpZMSGECLoQRKPg9ddfx7PPPttzvQcffBD/8z//g49//ONDKBXRyFvn0CKRR/793/8dDz30UNd1du/eDUVRGMSIPMRARuSRvXv3Ih6PY8+ePR3XuXfvnqOnNiJyjoGMyEPPPvss3n///Y7LP/KRj+Ab3/jGEEtENPoYyIg89I1vfKPjsOGePXswNTXVc/iRiPrDQEbkoT179uDMmTO2w4vvv/8+ZmZmAigV0WhjICPy2MzMjO3w4l//9V/jq1/96vALRDTiGMiIPPbUU09hfHy8Je3BBx/E888/j927+dVNIq8xkBF5bNeuXXjuuedahhf/9Kc/YXp6OsBSEY0uBjIiH0xPT7cML37mM5/B448/HmCJiEYXAxmRD7785S/j85//PIAPhhVfeOEFxGKxgEtFNJoYyIh8Mjs7i127duFPf/oTvvvd7wZdHKKRxUBG5JPp6Wn85S9/wd///d/j0UcfDbo4RCOLU6i6+MUvfoFmsxl0MSjCPvvZz+JLX/oS1tbWgi4KRdjRo0dx9OjRoIsRWvz1+y6OHDmC3/3ud0EXg4h2uIWFBVy8eDHoYoQVf/2+l4WFBQgh+Angs7CwgMOHDwdejkE+//u//+tr/rdu3QIA3Lp1K/Bj5cefz+HDhwO+CoYfAxmRjz7ykY8EXQSikcdARkREkcZARkREkcZARkREkcZARkREkcZARkREkcZARkREkcZARkREkcZARh01Gg3kcjnE4/GgizKQZDKJZDIZdDFCqdFoYHFxMehijLTFxUX+1J3PGMh2gGaziXK5jEwm01dQWlhYwPT0NAqFgqv9VqtVxGIx45NIJFzlE3XNZjOU/4RLo9HAwsIC9u7da5yjTgHffB7lJ6zctnc729vbSCQSRvvd2NiwXa9QKCAejyMej7f1l5MnT2J2dhaNRmOgslAXgjo6fPiwWFhYCLoYA9M0TWiaJgCIfk+5m22kdDptbA9A5PP5vrZfWFgQhw8fdrXvMMnn867rsJdbt24JAOLWrVt9bafrulAURZRKJePvbDYrAAhN02y3qdfrAoCo1+sDl9tPg7R3M13XjTZrrh9rO85ms0JRFKHrutB1XaiqKtLpdMs6pVLJWKdfo3Id8tEaA1kXo9aAhh3I+g1cVqMQyGTACFsgS6VStgFLnu9sNmu7XZTufQcNZHbt15pnrVYTAIwbAiGEqFQqAoCoVCot26qqKlKpVN/lGLXrkA/WOLTog2aziVwuZwzBZDIZR+uYhx6s76cKhQJisRji8Ti2t7dRLpc7DvUsLi4aadvb267KHY/HsbW15boOtre3EY/HkUwmUS6XXeczKGs99qpXuY4cKgKATCZjDC2Z68Su7q1pqVTKGGoypwf53q7RaGB+fh7Hjx+3XZ5KpTA9PY1cLucov0HbsrVssv3G4/GOQ3nDoCiKbbqqqsb/37x5EwBw8OBBI+3hhx8GALz55pst201OTmJ+fp5DjH4IOpSGmds7IUVRWu52VVVtu/tVFMUYfqjX60JRlJahB3kXD9Pdnrz7U1VVCCFEsVjsOBSkaVrbHSF63KEqiiJUVTXKIIdS3DQTOZwmP4qi9D0k5cUTmbkerX93qldzuc1Db6qqCgDizp07Qoj7Q22wuUM3p9nVoRz+GpSbJzJ5bmq1WtsyWU45NGfXhqy8aMvmbeXToGzf1jI45bbtdqLretvQomwTdvtWFKUlTR5zvyMVfCLriUOL3bhpQPLib75oy/FxSXZQ6zqwDOnYdURrmrzgmMfedV3vOmxkR17c5EVa5jPIxUDXdVGpVIwyWt8b9OLV0KKTwOJkHTlkZB4ecpuXV9wEMnk+7Mh085CouU1Yt/OyLcu+Y13HbcD3ut6LxWLbe65O+7BLl/2p3+FFBrKeGMi6cdOAnLwPsbuLk43cHPCcdH55cTVfNIrFou1dbLeO3e3O0ouLQTqdbrtD7SVsgczrvLzgJpB1K485XT5xmp+mrdt52ZbNT27Wjxte17t5ckyvffSb3g0DWU98R+Y1J1PVl5aW2tLGxsYcb282MTEBRVHw+uuvG2m/+tWvMDEx0Vc+dmXy0pkzZ1xP46dgjI+Po1KpoFAoYG5uzva7UF62Zbm+sPnHJYOWy+WgKAqOHTvWkt7pPRrQ+i6N/MVA5jHZsKvVas917F76umn8MzMzKBQKKJfL2N7exuOPP953Hn4bGxsbmY49KsfhxMTEBPL5PAqFAlKpVNtyr9sygIEmGfmhWq1ic3MTZ8+ebVtmd/xyAstjjz02nAISA5nXZMNeWloy7mDllyqlmZkZAMDdu3eNNLnu5ORk3/s8ceIEAOC1117DzZs38eSTT/adRzqdBtA9AA+i2Wy6OrYwkRfYU6dOBVySwciA5PTXJhRFQTabxZUrV9qWedmWZRtcWVkx8gj6l0cajQauX7+Oy5cvG2nVatXoz08//TSA1uN/5513WpZZaZrmV3F3rkBHNkPOzdi0nHkF0/i+qqptkyjkzC757iGbzbbN4JLby5fL5skX1hmA8gV+pxfJ5m3tvpQpZ1QpimLMZpMv8uUxOJXNZkWxWGzJ2813yrx4R2aux3q97rhe5d/y3aOcQGN9z2edySgnOpjrTLaHer1unJ8wzlrs9YVnu0kiXrZl83rmjyxnKpUSgLNZjL3au5O87Pqy/JjbczqdNmb7dvpCtBCctegjTvboxm0DqtfrRqfXNK0liJnXMf/yRTabtZ0NJT+d0iQ56cNuX3Yd0e4eplarGRdmVVVbpkP3M3XePPXe7msATnkRyDode696lf9fqVSMi1k6nW67KNZqNWO5vEBZ60yeG03TjLQgA5kMGOaJC07ahxDCdsKOl225VqsZfUdV1ZZgq2maUFW156QhJ+3dSV6yL9h9rP1MtnlFUVpu4szkTU6/X0NhIOtpLSZECN6khtSRI0dw5swZXLx4Meii7EgXL17E2toabt++PfR9yy8uh717bG5u4tFHH8WtW7dw9OhRx9vJ4brz58/7VTTfxONx5PP50OXVSzKZxL59+/quc16HelrnOzKiHWhubg43btwI9FdX3CiXy7hw4ULo8uqlWq2iWq1ibm5uKPvbaRjIiCysP680isbGxrC8vIyrV6/6NsHHaxsbG9i/f3/bFPig8+pla2sLS0tLWF5eNr6aQN7aHXQBKDqc/tMdYR+O6+XAgQMt/x/14+lkfHwcKysrWF5e7vt7h0GQs3PDllcvhUIBly5dwvj4+ND2udMwkJFjo3pBt9opxwl88GQWxfdkUcL69R+HFomIKNIYyIiIKNIYyIiIKNL4jqyL999/H+vr69jc3Ay6KDvS7du38e6770b+p6389N577wEAfvCDH+DjH/94wKUhP9Tr9aCLEHp8IiMiokjjE1kXe/bsweTkJL9RHxD5yx7r6+tBFyW05C97vPzyy339sgdFx5EjR4IuQujxiYyIiCKNgYyIiCKNgYyIiCKNgYyIiCKNgYyIiCKNgYyIiCKNgYyIiCKNgYyIiCKNgYxoB2s0GlhcXAy6GCNtcXERzWYz6GKMNAayAJTLZSSTScRiMcRiMSSTSVSrVTQaDcf/eKUfms0myuUyMpkM4vF423JZXrvP4uIiCoXCSHXYZrPp6/nwO/9eGo0GFhYWsHfv3pa2aMfunIdVr3bsVrVaNfLsdvyZTKZl+cmTJzE7Ozuy/9p4GDCQDVkymcRrr72G2dlZCCEghMD3v/99bG9vt/zLxEFIpVL46U9/inPnzqFQKLQtF0K0/ICpruvGMZw8eRKZTGakOuyvf/3rSOffTbPZxNzcHF544QWoqgpd15HNZnHlyhXbYGY+9/V6PdT/+GivduzG4uIikskkPvWpT+HatWsdj79areLcuXMtaRMTE7hw4QLm5uZG6kYvTBjIhkg+ef3kJz/BI488YqSPj49DURSUSqUASwdcvnwZly9f7rqO+Z9rHxsbM/5/YmICy8vLADASHbbZbCKTyUQ2/16Wl5cxMTGBY8eOAfjgXH73u98FAFy5cgW5XK5tG3nuzW0gjJy0434kEgnouo6VlRUoioJDhw7ZrtdsNvHGG2/YLjt27Bg+/elPG32EvMVANiTlchlXrlzBhQsXOq4jLypmzWYTuVzOGM7JZDItTzyNRgO5XM4YQikUCojFYojH49je3ka5XO44JLS4uGikbW9vD3yM4+PjePHFF1EoFAJ/2uhWZ3Z1YU1LpVLG3bxMbzQaKBQKRl3LIaREIoGtra2B8wc+uNnpNLznlUajgfn5eRw/ftx2eSqVwvT0tG0wszNoG7WWTbbLeDyOjY0Nl0fpDXkuLl++3HLjZmd5eRnf//73Oy6fnJzE/Pz8yIxYhIqgjg4fPiwWFhY8yUvTNAFA1Ov1vrZTFEWk02khhBD1el0oiiIURRG6rhvLAQgAolQqCSGEqNVqAoBQVVUIIUSxWBQAhKZptuWqVCotaTK/Trot13W9Zd+DWFhYEIcPH+57u151Vq/X245B1pk5rdPf5rrWdV2oqioAiDt37gyUvxAfnA+789TJrVu3BABx69Ytx9vk83kBQNRqtbZlsjyyvdq1DSsv2qh522w2K4S4326tZXCqVzvupVKpCAAin8+LdDotAAhFUUSxWGxbt1gsGsfWab/ymPP5fF/l8PI6NKLWGMi68LIBuelUsiObg1+pVBIAjM7eKW9rmrwwyYuLEB9chO0umoMEMifLnXITyLysMyfrCHH/gpdKpQbOv19uAplsC3Zkuq7rRgCSAdq8XPKyvrPZrO06/QT2bvn3K5VKtQRS802LDFpCfBCAZSDvtl95k2duJ04wkPXEQNZN0IFMdhoz2RkURematzVNXmzNF5disWh7txvlQOZlnTkNZG63DSqQdduvOV0+WSqKYgQq63Ze1rf5yc36cWPQ+u1202J+kjQHsV77dVMmBrKe1viObEhUVQWAviZBLC0ttaXJcfp+Z2NNTExAURS8/vrrRtqvfvUrTExM9JVPL/L4NE3zNF+nvKyznW58fByVSgWFQqHjBB4v61uuLz6cCWv+hIXsL/K4C4UCnn766SCLROBkj6E5deoUAOAPf/iD420URQEA25fDMjD2Y2ZmBoVCAeVyGdvb23j88cf7zqOX3/72twDQcSKB37yus374nX8QJiYmkM/nUSgUkEql2pb7Ud/miTNB6nbzKY87Ho/js5/9bMcJPjQcDGRDoigKFEWxvYOVtre3W35lYWZmBgBw9+5dI012qsnJyb7LcOLECQDAa6+9hps3b+LJJ5/sO49uGo0GXn31VSiKYuxr2LyuMyfkhVferISdDEhORwcURTG+Y2blZX2n02kAwMrKipFHkL88IstvvvmU5ZLH3e3psdOTZFCjFSMtoDHNSPB6bFrOylJVteUFuhAfzGgyv4sQ4v4Ld3N6Npttm+mFD8fd5UQO+Y4CaJ8lKV/0d3rhbN7WPDGk1/JKpdJW1kG5eUfmpM6EEG0zDeUEBZjef8h3NvV63agvuY581ygnzJjfBw2Sf5CzFmVb6nT+7CaJeNlGzeuZP7Kc1skX3fRqx07zkudWljGdTredayu5XyvOWvQNJ3t040cD0nVd5PN540KHD1+Kp9Np2+nQckaU+QJq7pjWTt8pTZIvq62B1G476/adlsvAaJ7J5QW30+971ZkQ928czBcWOfVbXrRkXWma1jLZQV4A5fbpdNqz/IcRyGTAMJ+vbufdzO4i7mUbrdVqRsBUVbWlT2iaJlRVdRxIuh2P07yEEC3HZneuO+3fSt7M9Hujx0DW01pMiBC9SQ2ZI0eO4MyZM7h48WLQRdmRLl68iLW1Ndy+fTvoohjke4+wdJvNzU08+uijuHXrFo4ePep4Ozlcd/78eb+K5pt4PI58Ph+6vHpJJpPYt29f33XO61BP63xHRrQDzc3N4caNGyiXy0EXpS/lcrnrr+MElVcv1WoV1WoVc3NzQ9nfTsNARuSQ9WeXomxsbAzLy8u4evUqqtVq0MVxZGNjA/v377f9Kbcg8+pla2sLS0tLWF5e7vkzV+QOAxmRQ+Z/nSDof6nAC+Pj41hZWcH169eDLoojJ06caPmx7bDk1UuhUMClS5dC/2PLUbY76AIQRUVY3ot5aWxsLJLvyaKE9es/PpEREVGkMZAREVGkMZAREVGk8R1ZD5cuXcKlS5eCLsaOxt+s6+3RRx8NughEgWEg6+KVV17p69fqiazOnz+PY8eO+fY7j7Qz9PNl952Iv+xB5KOjR49icnKSv8pA5B/+sgcREUUbAxkREUUaAxkREUUaAxkREUUaAxkREUUaAxkREUUaAxkREUUaAxkREUUaAxkREUUaAxkREUUaAxkREUUaAxkREUUaAxkREUUaAxkREUUaAxkREUUaAxkREUUaAxkREUUaAxkREUUaAxkREUUaAxkREUUaAxkREUUaAxkREUUaAxkREUUaAxkREUUaAxkREUUaAxkREUUaAxkREUUaAxkREUUaAxkREUUaAxkREUUaAxkREUUaAxkREUUaAxmRR/7zP/8TsVis5XP79m1cunSpLf1Xv/pV0MUlGhkMZEQemZ6edrTe+Pg4nnrqKZ9LQ7RzMJAReeSf//mfcfDgwa7r7NmzB7Ozs9i1i12PyCvsTUQeicVieO6557Bnz56O67z//vuOn9yIyBkGMiIPTU9P4/333++4/LOf/Sz+8R//cYglIhp9DGREHvriF7+Iv/u7v7Nd9uCDD+I//uM/hlsgoh2AgYzIY7Ozs7bDi3/6058wNTUVQImIRhsDGZHHZmZm8Oc//7klLRaL4R/+4R9w+PDhgEpFNLoYyIg89oUvfAFf/OIXEYvFjLTdu3fj+eefD7BURKOLgYzIB88//zweeOAB4+8///nPHFYk8gkDGZEPpqam8Je//AUAsGvXLvzTP/0TPvOZzwRcKqLRxEBG5IOHH34Y//Iv/4Jdu3YhFothdnY26CIRjSwGMiKfzM7OGk9lp0+fDrg0RKOLgYzIJ9/5znewZ88e/Ou//iv+5m/+JujiEI2s3UEXICxKpRJefvnloItBI+aTn/wk/vjHP2JycjLootCIWV9fD7oIocEnsg+99dZbeOONN4Iuxo72xhtv4O233w66GJ76/Oc/3/OHhPtRLpdRLpc9y4+i5+233+a1yoJPZBa8ywlOLBbDSy+9hDNnzgRdlNCST3ZspzvX2toav8phwScyIiKKNAYyIiKKNAYyIiKKNAYyIiKKNAYyIiKKNAYyIiKKNAYyIiKKNAYyIiKKNAYyAgA0Gg3kcjnE4/GgizKwZDKJZDIZdDEiodFoYHFxMehijLTFxUU0m82gizHSGMhGTLPZRLlcRiaT6SsoLSwsYHp6GoVCYaD9V6tVY9/mfyF5J2k2m5E49kajgYWFBezduxexWAyxWKzjDYBcbv6Elds+0IvTtp3JZFqWnzx5ErOzs2g0Gp6VhSwECSGEWF1dFaNQHZqmCU3TBIC+j8fNNmapVEooiiLy+byo1Wp9bw9ArK6uut5/WOTzed/a0unTp8Xp06cHzkfXdaEoiiiVSsbf2WxWABCaptluU6/XBQBRr9cH3r+fBukDnTht25VKxXa/pVJJKIoidF0fuCyjcq3y0BqfyEbM5cuXcfny5aHvN5FIQNd1rKysQFEUHDp0aOhlCINms4lMJhN0MXpaXl7GxMQEjh07BgAYGxvDd7/7XQDAlStXkMvl2rYZHx9v+W9Yed0HnLbtZrPZ8cd8jx07hk9/+tNYXl72rFx0HwPZgJrNJnK5nDHcYncRs1vHPMxgfT9VKBQQi8UQj8exvb2NcrnccVhncXHRSNve3nZV7ng8jq2tLdd1IIejLl++jLGxMdf5eMFal73qVq5TKBSMdeTQUCKRaKkXu/q3pqVSKWN41pwepvd2jUYD8/PzOH78uO3yVCqF6elp22BmZ9D2bS2bbNPxeBwbGxsuj9Ib/bTt5eVlfP/73++4fHJyEvPz8xxi9EPQz4Rh4fZxXVGUlqEYVVXbhmYURRHpdFoI8cHwjKIoLcMMiqIYwxFyqKdWqwkAQlVVIYQQxWKx47CPpmmiUqm0pKHHsIqiKEJVVaMMclip3zqQQyn5fF6k02kBQCiKIorFYl/5yDIPOrRorkvr353qVi43r6PrulBVVQAQd+7cEULcH1oz15HMy5xmV49yuGtQXgwtyqFPuyEyWW45NGfXrqy8aN/mbbPZrBDifpu3lsEpN+3ZrJ+2XSwWjWPrtF95zPl83nWZhODQoo011saH3DQOefE3vzOQY+GS7IzWdQAYHVYI+8ZvTZMXF/M4u67rthfIbp1YXsjkBVrm46bjp1KplouNOQDIju2UF4FM5tMrsDhZR17IUqnUwHl5xYtAJtuRHZku36FZ24l1Oy/bt+xP1nXc3gAMeh6ctu16vW4E8m77lX3M3J7cYCBrw0AmuWkcsqN3Ixu+mWzQ5oDnpKPLC6v5AlEsFm3vWLt1Yrsy9dqmk24BwHy37TSvMAUyr/PygheBrFv5zOnyCVRRFCNQWbfzsn2bn9ysH6+P0+32dm3bHMR67deLtsFA1oaBTHLTOJw0Si8vkEIIY9hG6nS36qYzeRXIBsmLgay7YQYyIe5fuOVQoZM2apceRL35Ecis6XazGBnIho6zFgehKAqAD75f0msduxe8qqr2vc+ZmRkUCgWUy2Vsb2/j8ccf7zsPL8ljsPvCpzz2qHNznkbFxMQE8vk8CoUCUqlU23Kv2zeAgSYeeclJ247H4/jsZz/bcSIQDQcD2QBkY15aWjIa+/b2NhKJhLHOzMwMAODu3btGmlxX/rP1/Thx4gQA4LXXXsPNmzfx5JNP9p1HOp0G0D0AOyWP4Q9/+IORJo9PHntUyQvqqVOnAi6Jt2RAcvprE4qiIJvN4sqVK23LvGzfsl2urKwYeQT5yyNO2rYQou0jmf/fTNM0n0q8gwX5PBgmbh7X5SwrmMbyVVVtm0QhhwPle4ZsabMF0wAAIABJREFUNts2W0tuLydymCdfWL+AKl/Wd3ppbN7W7guYcvaUoijGsIh8aS+PoR+aprUcXzqdbhn+dAoeDC2a67JerzuuW/m3fP8oJ9FYj8M6k1FObDDXm2wT9XrdOEdRmLXY6wvPdpNEvGzf5vXMH1lO6+SLbnr1Aad5uWnbcr9WnLXoG74jk9w2jnq9bnRwTdNagph5HTl9V14szZ3L2nE7pUnyvYXdvuwuBJ06lbwoq6raMvXZzS83mI8vnU67+gUDLwJZp+PvVbfy/yuVihGI7I6jVqsZy+UFyVpv8vxommakhSmQyYBhnnnnpM0IIWwv4l6271qtZvQnVVVbgq2maUJVVceBpNvxOM1LiP7bdqf6kzc9g/4yCgNZm7WYEB2ef3eYtbU1TE1NdRwOIP/FYjGsrq7izJkzgewb6DwcFBZyuGt9fX2gfORw3fnz5wcu07DF43Hk8/nQ5dVLMpnEvn37Bq5zXqvarPMdGdEONDc3hxs3bqBcLgddlL6Uy2VcuHAhdHn1Uq1WUa1WMTc3N5T97TQMZLTjWX9OaScYGxvD8vIyrl696smkn2HY2NjA/v37jd+HDEtevWxtbWFpaQnLy8uB/4TbqNoddAEonJxOHR6F4Y0DBw60/P8oHJMT4+PjWFlZMX5AOOzkjN2w5dVLoVDApUuXQv9jy1HGQEa2dsrFHNhZx2o1NjYWyfdkUcL69R+HFomIKNIYyIiIKNIYyIiIKNL4jsyCv48WrKmpKUxNTQVdjNBjOyW6j4HMYnV1Negi7FhTU1N48cUX8cQTTwRdlNB65ZVXAAAvvfRSwCWhoJRKJbz66qtBFyNUGMgsgvhVCfrA1NQUnnjiCZ6DLuQverCOdjYGslZ8R0ZERJHGQEZERJHGQEZERJHGQEZERJHGQEZERJHGQEZERJHGQEZERJHGQEZERJHGQEa0gzQaDSwuLgZdjB1vcXERzWYz6GKMDAYyn5XLZSSTScRiMcRiMSSTSVSrVTQajUB/L6/ZbKJcLiOTySAej7ctl+W1+ywuLqJQKIxUR2w2m76eD7/zd6LRaGBhYQF79+5taY927M57WPVqy17ntb29jUQigVgshkQigY2NDdv1CoUC4vE4YrEY4vE4crmcsezkyZOYnZ3dMf8iue8ECSGEWF1dFV5Xh6ZpQlVVcefOHSOtXq+LfD4vAHi+v37Lpmla13LU63Vjua7rRnqlUhGKoghFUUS9XvesTADE6uqqZ/n1Q56TsOd/+vRpcfr06b6303VdKIoiSqWS8Xc2mxUAhKZpttvI8+/lOfaDk7bsVV66rot8Pm/8v6xDmSalUikBQFQqFSHEB30GgEilUsY6pVJJKIrS0rec8ONaFXFrrI0Ped04NE0TiqJ0XF4qlULRGHt1/k7L6/W6Ecz67Yjd9hVEIJMXeb/Oh5f5uw1kqVTKNmDJ85vNZm23C0MbdcrLm8NOeVkDVqd1O6VZrwmqqrYENycYyNowkEleNg4ZpOTdbyfW/Znv8ACIdDrdcjdcr9dFNps1OoO8y1cURdRqNWO/5o8k7xABiFqt1lIGN4FMCCGKxaLt3ahbbgJZrzqzqwtrmvkOXH7kk7Os63Q6LQC0PWG7zV+md3oa6sRNIJNPVsVisW2ZfEroFMw6PZUM0k6tZZP7VxTFtoxODSOQdVpXVdWWNHlM8hpQq9VantAk2Yf6eeplIGvDQCZ52TjkhavfIRlFUUQ6nRZC2D/xyLt6uw4iO5LsGHYXSE3T2jrSIIFM13XbTuyWm0DWq87Mw6OSrDO74GP921zXuq4LVVUFACOYuc1fiOEFMhlIrEFElkuWxe5Ca3fuvWin5m1lAJVt11oGp4IIZLIP2N3MyTotlUoim83aXg9kvfRzM8hA1oaBTPKycbjpUHZ3ZvIJy3yn7GQYQ3Yg85Cfrutdh5bcHovXF49+ApmXdeZkHSHs33W4zd8NN4FMtgc7Mt08/Gl94jTzss7lU511nX6De7d9uuU0r2Kx2HV4Xd74aJpmu44MhP0MLzKQtVnjrMWQkP/O1Pj4uJF2+PBhAMDrr7/eV16nT58GAPzsZz8z0n77298a6aPCyzpzamJiAgAwPz/vS/5+uHLlSs91xsbGsLy8DOCDY+s0m87LOpfrW2dGOilvWLz66qu4cOECxsbG2pYtLi7iqaeegq7rAIDZ2dm2mb5yuyi1p1AKOpSGhZd3OfIurJ9JEOhwB2hNt1vPLk0O90id7nI77dfJcnk36fYO2m5f/TyReVlnTuvVy/zdcPNE1m3f1nT5xCmfMqJQJ37k5ySvbDZrDLHaLTNfA+7cuSMA2K7fb7n5RNaGT2R+OHXqFADgD3/4g+NtFEUBANs7YVVV+y7DzMwMCoUCyuUytre38fjjj/edRy+//e1vAQDHjx/3PG8nvK6zfvidf1AmJiaQz+dRKBSQSqXalvtR51tbW662C1K1WsXm5ibOnj1ru3x6ehrA/SeuAwcOAADOnTs3nALuMAxkPlAUBYqiYGlpqeM629vbLb+wMDMzAwC4e/eukSaHISYnJ/suw4kTJwAAr732Gm7evIknn3yy7zy6aTQaePXVV6EoirGvYfO6zpyQF115sxIFMiA5/QK7oijIZrO2Q3xe1nk6nQYArKysGHlE4ZdHGo0Grl+/jsuXLxtp1WoViUTC+FsGfEkGNGu6pGmaDyXdQYJ+JgwLrx/X5Yws63RtIT6YqWT9MrF82W5Oz2azbbO8gNYvKMvhH6B9lqR8yd/pRbJ5224voq3Lw/KFaCd1JoRom2lo/pqCXFdOdJDTwWV5YJrEICfM2H0XyE3+Qc9a7PWFZ7tJIl62U/N65o8sp/VLxd30aste5SX7tV25zTMP5aQY2XZkm7B+vYCzFj3BWYuSH41D/gqAvNDhw3cP6XTadip0vV43vq8kO4G5I1k7Tqc0Sb7vsAZSu+2s23daLgNjr+/IudFvIBOid50Jcf/GwXzBkNO+5UVV1pWmaUaazFMGbnz4jsOr/If9PTLzOet27s3svtTvZTut1WpGwFRVtaVfyF/G6fbDAp2OxXo8XuVl7svWj7WfFYtFY31VVW2/IycDHL9HNpC1mBBCgLC2toapqSmwOoITi8WwurqKM2fOBF0UADBm0YWpTcjhOzl70Ck5XHf+/HnPy+S3eDyOfD4fury8kEwmsW/fvr7OC69Vbdb5joxoB5ibm8ONGzdQLpeDLkpfyuUyLly4ELq8vFCtVlGtVjE3Nxd0USKPgYzIhnlW3ij8Qrn8ntjVq1dRrVaDLo4jGxsb2L9/P44dOxaqvLywtbWFpaUlLC8v234HjfrDQEZkQ06Xtv5/lI2Pj2NlZQXXr18PuiiOnDhxAo888kjo8vJCoVDApUuXWr5YTu7tDroARGE0qu8fxsbGIvmebNTwHHiLT2RERBRpDGRERBRpHFq0WFtbC7oIO1qpVAq6CKH29ttvA2A73cnYR9rxe2Qfkt/NICKKAl66DesMZEQ+Onr0KCYnJ3Hx4sWgi0I0qviFaCIiijYGMiIiijQGMiIiijQGMiIiijQGMiIiijQGMiIiijQGMiIiijQGMiIiijQGMiIiijQGMiIiijQGMiIiijQGMiIiijQGMiIiijQGMiIiijQGMiIiijQGMiIiijQGMiIiijQGMiIiijQGMiIiijQGMiIiijQGMiIiijQGMiIiijQGMiIiijQGMiIiijQGMiIiijQGMiIiijQGMiIiijQGMiIiijQGMiIiijQGMiIiijQGMiIiijQGMiIiirTdQReAaFT85je/wbvvvtuS9t577+H27dtYX19vSf/KV76Cz33uc0MsHdHoigkhRNCFIBoFP/7xj/GjH/3I0bq///3v8YUvfMHnEhHtCOscWiTyyMzMDGKxWNd1YrEYvvSlLzGIEXmIgYzII4cOHcKXv/xl7NrVuVs98MADeOGFF4ZYKqLRx0BG5KHnn3++61PZvXv3MDk5OcQSEY0+BjIiD01NTXVctmvXLjz11FM4ePDgEEtENPoYyIg89MlPfhJf/epX8cADD7Qti8VimJ2dDaBURKONgYzIY7Ozs7CbDByLxfDtb387gBIRjTYGMiKPfec738Hu3a1f0dy9ezdOnTqF/fv3B1QqotHFQEbksY997GP41re+1RLM7t27h+eeey7AUhGNLgYyIh88++yzuHfvnvH3Qw89hG9+85sBlohodDGQEfng1KlT2Lt3LwBgz549eOaZZ/DRj3404FIRjSYGMiIfPPTQQ3jmmWfwwAMP4P3338f09HTQRSIaWQxkRD6ZmZnBvXv3sG/fPnz9618PujhEI4u/fk/kk6997Wv4xCc+gcnJSezZsyfo4hCNLP76/YfW1ta6/ioDEVGY8NJtWOcTmcXq6mrQRdixpqam8OKLL+KJJ54Iuiieeffdd/GpT32q56/iO/XKK68AAF566SVP8qPoKZVKePXVV4MuRqgwkFmcOXMm6CLsWFNTU3jiiSd4DrqQ/0An62hnYyBrxckeREQUaQxkREQUaQxkREQUaQxkREQUaQxkREQUaQxkREQUaQxkREQUaQxkREQUaQxkBABoNBrI5XKIx+NBF2VgyWQSyWQy6GKEUqPRwOLiYtDF2PEWFxfRbDaDLsbIYCAbMc1mE+VyGZlMpq+gtLCwgOnpaRQKhb73F4vFbD+5XK7f4o8EWSdh02g0sLCwgL179xrnqFPAtzufYeW2zbvNa3t7G4lEArFYDIlEAhsbG7brFQoFxONxxGIxxOPxlv5w8uRJzM7OotFoDFRe+pAgIYQQq6urYhSqQ9M0oWmaAND38bjZplQqGdtZP/V6ve/9r66u9rVNGOXzed/a0unTp8Xp06f73k7XdaEoiiiVSsbf2WxWABCaptluU6/XXZ3HYRukzfebl67rIp/PG/8v61CmSalUSgAQlUpFCCFEpVIRAEQqlTLWKZVKQlEUoet6X2UclWuVh9ZYGx8atcYxrECWzWZFrVZrSavX6x0vjr32H/VAJgNG2AJZKpWyPSfynGezWdvtotQnvAhkvfKyBqxO63ZKUxSlJU1V1Zbg5sSoXas8sMahxQE1m03kcjlj+CWTyThaxzykYH0/VSgUjOGI7e1tlMvljsM8i4uLRtr29rarcsfjcWxtbbk6/hMnTuDQoUMtaRsbGzh9+rSr/AZlrctedSvXkcNAAJDJZIxhI3O92NW/NS2VShnDs+b0IN/bNRoNzM/P4/jx47bLU6kUpqenHQ8FD9qerWWTbTgej3ccpgsLRVFs01VVbfk7lUoBAMrlMgAYx3358uWW9SYnJzE/P88hxkEFHUrDwu1djqIoLXe6qqq23fkqiiLS6bQQ4oOnFUVRWoYU5B08AGPop1arCQBCVVUhhBDFYrHjMJCmacYQhoQed6eKoghVVY0yyCESL5qELHO/4METmbkurX93qlu53LyOrutCVVUBQNy5c0cIcX+ozVxHMi9zml09yiGrQbl5IpNDndYnZyHuP3HJ4TS7dmTlRXs2byufBmUbt5bBKa/abz956bpuO7QoxP06LZVKIpvN2g7Rynqx274TPpG14dCi5KZxyIu/uYHKcW9Jdk7rOrAM59h1HGua7BjmMXVd17sOGdmRFzZ5gZb5eHEhqFQqHYepevEikMl8egUWJ+vYvddwm5dX3AQy2W7syHTzkKi5XVi387I9y/5jXcdtwA8ikBWLxa7vueTNkKZptuvIftfP8CIDWRsGMslN43DyLkQ2ZDPZeM0Bz0nHlxdW8wWjWCza3sF264h2Zeq1jVOaprmeHBC2QOZ1Xl5wE8i6lcecLp84FUUxzqF1Oy/bs/nJzfpxI4hAZp5AY5VKpUQ2mzVuNjsFvH7LzUDWhoFMctM4nDRALy+QQghjGEfqdPfa6+LlRyBzO8nDvH8Gsu78DGRC3L9ZkhddJ23SLj2Iehp2IMtms8YQq90y4P7oyZ07dwQA2/UZyAbGyR6DkC9+q9Vqz3XsXuZaXxA7MTMzg0KhgHK5jO3tbTz++ON95+GXICd5+MnNeYqqiYkJ5PN5FAoFY8KCmdftGYDriUZBqlar2NzcxNmzZ22XT09PAwDGxsYAAAcOHAAAnDt3bjgF3GEYyAYgO/XS0pLxLX35ZUlpZmYGAHD37l0jTa47OTnZ9z5PnDgBAHjttddw8+ZNPPnkk33nkU6nAXQPwG7cuHEDExMTnuYZJHmBPXXqVMAlGYwMSE5/SUJRFGSzWVy5cqVtmZftWbbDlZUVI48o/PJIo9HA9evXW2YgVqvVln5vnd0oA1qnWY+apvlQ0h0k6GfCsHDzuC5nXcE0tq+qatskCjkcKN87ZLPZttlbcns5FGGefGF95yRf3nd6QWze1m5MXs6UUhTFmMkmX+LLY+jXIJM8JHgwtGiuy3q97rhu5d/yGMzvNcysMxnNXwiX9SbbRL1eN85RGGct9vrCs90kES/bs3k980eW0/ql4m56tXmv8rLr8/Jjnnko+5NsT7KdFIvFlvw4a9ETfEcmuW0c8r0Q8MHMJHMQM6+TTqdbLpbmDmLtEJ3SJPkew25fdh3M7rhqtZpxUVZVtWUqtJvJGoNM8jCXfdBA1un4e9Wt/P9KpWJcqNLpdNuFrFarGcvlxcdab/L8mOskyEAmA4Z5UoKTNiKEaAvkMj+v2nOtVjP6j6qqLcFW0zShqqptGcyctHmv8pJ9xu5j7Y/F/8/e3ca4cdz3A/9Slly7QnKK2pxq14kTBFViy+glbmLIKf52pKhNrXaZIrkH39ln98XJ2ENhIK4uLyoscRIkKHnBi40ggA+8e2McIN5D35RE0DQQL5AR6AgDRkjAp0KHwjAvcgoyMLD0myB2nPm/kGe1XM6Su8sll8v7fgACd/swOzs7u7/dmVmyUGg4x5xBTIg7Ac7PucNA1mQ9IYQQIKyvr2NiYgIsjugkEgmsra1hfHw8km0D6PvjL5vvNjY2fK0nm+vOnj0bep66LZlMIpfL9V1aYUilUjh06JCv48JrVZMN9pER7QEzMzO4du2a9U0TcVEsFnHu3Lm+SysM5XIZ5XIZMzMzUWcl9hjIaM9zfr3SIBoaGsLy8jIuX74c+iCfbtnc3MThw4dx/PjxvkorDDs7O1hcXMTy8rI1EISC2x91Bqg/ef3ZjkFo3pBDo+Xfg7BPKsPDw1hZWcHy8nIsRpfKEbr9llYY8vk8Lly4gOHh4aizMhAYyEhpUC/mKntpX4eGhmLZTzZoeAzCxaZFIiKKNQYyIiKKNTYtOqyvr0edhT1ta2sr6iz0tVu3bgFgPd3LeI4043tkH5PvZhARxQEv3ZYNPpE5sHJEJ8oXouMi6AvRNDh4092MfWRERBRrDGRERBRrDGRERBRrDGRERBRrDGRERBRrDGRERBRrDGRERBRrDGRERBRrDGREe0itVrN+LZqis7CwgHq9HnU2BgYDWZcVi0WkUikkEgkkEgmkUimUy2XUajXPv/nVDfV6HcViEUtLS0gmk03zZX5Vn4WFBeTz+YE6Eev1elePR7fT96JWq2F+fh4HDx5sqI8qquPer9rVZT92d3cxOzuLRCKB2dlZbG5uKpcrl8sNZTM7O+uaZrlctvImy/HUqVOYnp4e2B9y7TUGsi5KpVJ47bXXMD09DSEEhBB48cUXsbu72/BjjlFIp9P46U9/ihdeeAH5fL5pvhAC1WrV+t80TWsfTp06haWlpYE6EV9//fVYp99OvV7HzMwMnn/+eei6DtM0kc1mcenSJWUwsx//arXa11/d1q4ue1Wv11Eul/Hqq6/CNE08+eST+OY3v6lM84033mj4//Tp08o0FxYWkEql8Bd/8Rf4yU9+YpXjyMgIzp07h5mZmYG6IYyMICGEEGtrayLM4jAMQ2ia5jp/a2sr1O0FBaBlPtzmV6tVoWma0DRNmKYZWl7W1tZCScsP0zSFpmldOx5hpj86OipGR0d9r5dOp4VhGE3T5fHNZrPK9fqhjnrVri63k8vlPKepWtZJ13VhGEbL80PXdZFOp33lM+xr1QBYZ2l8LMzKIYPU1tZWy+Wc2zNNU2SzWevkyWQyolqtWvOr1arIZrNWgMzlcgKA0DRNVCoVa7v2j5ROp61plUqlIQ9BApkQQhQKBQHA00ntRZBA1q7MVGXhnGYYRlO5VatVkcvlrLLOZDICgNB1Xdy8ebPj9OV0VXBpJUggq1arAoAoFApN8wBYdUMVzFTHvtN66syb3L6maco8etVpIHNLU9f1hmmVSkUAEIZhuJ7jhmE0racizyF7+bXDQNaEgUwKs3LIC5efyimEEJqmiUwmI4RQP/HIu3p7kJQnlTxp5ImhukAahiFKpVLDtE4CmWmayhM9qCCBrF2ZyYu4fR9kmamCj/N/e1mbpil0XRcArGAWNH0hehfIZCBxBhGZL5kXAMr64RRGPbWvKwOorLvOPHgVdiCT9dt5oybLU340TWs410ulkrWevAFyC9KyXPzcDDKQNWEgk8KsHEFOKNWdmXzCst8pq9J2TpMXJXuThmmaLZuWgu5LmBcPv4EszDLzsowQdy5S9uagoOkHESSQyfqgIqfbmz+dT5x2YZa5fKpzLuM3uLfaZicKhYJr07lpmqJUKlllKwO7EHdaP2RAtt8AOZ/gZLD007zIQNaEgUyKOpDJim4nK7m9r83LBUJebO0XlkKhoLzTjXMgC7PMvAayoOtGGchabds+XT5d2p8wnOuFWeb2JzfnJ4iwA5mmaW27B4S43ezcbt/lOalqvfCbbwayJgxkUpiVQ57sfgZBhHnRFEJYzT2S211uJ4FKXsCC3kGrtuUnkHU70Oy1QCbEnQuufBKJQ5l0I71sNtvwlNWKs5y8llG76W4YyJqsc/h9F8ihuO+8847ndTRNAwDlcHZd133nYWpqCvl8HsViEbu7u3jsscd8p9HOm2++CQA4ceJE6Gl7EXaZ+dHt9KMyMjKCXC6HfD6PdDrdNL8bZb6zsxNovW4pl8vY3t7GmTNnPC0/NDTUsO/yb9Wwell+FC4Gsi7QNA2apmFxcdF1md3d3YZvWJiamgIAvP3229Y0eSLIn7f34+TJkwCA1157DdevX8cTTzzhO41WarUaXnnlFWiaZm2r18IuMy/kRdftvaF+JAOS1/eVNE2z3jFzCrPMM5kMAGBlZcVKI+pvHqnVarh69SouXrxoTSuXyy1feK7X6w37Lv+238jK/ZPl52QYRifZpqifCftF2I/rckSWc7i2ELdHKjlHOsnOdvv0bDbbNMoLHzdDyGZL2awBNI+SlB3Rbh3J9nXdOrRV80ulUlNewwCfTYteykwI0TTS0P6aglxW9tfI4eAyP8CdvkY5YMb5fmDQ9KMetSjrk9sxVA0SCbOe2pezf2Q+nYMmWmlXl72kJc9ZVZ7kqMJsNtsw+rBSqShHHMp6IvfV2Y9mX9+evhdsWmzCPjKpG5XDNE2Ry+WsCx0+7nvIZDLKodDVatUarisvoPaT0nlyuU2TZH+HM5Cq1nOu7zZfBkYvneB++Q1kQrQvMyHu3DjYLxhy2Le80MiyMgyjYaCDvPjJ9TOZTGjp9/o9Mvsxa3Xs7VQX3zDraaVSsQKmrusN54V8F6vVFwu47Ytzf7ykZT9PnR95DtmH3qteZ7Gzl5Gq3ghx56aH75F1ZD0hRB9/90wPra+vY2JiAiyO6CQSCaytrWF8fDzqrACA9b14/VQnZLPVxsaGr/Vkc93Zs2dDz1O3JZNJ5HK5vksrDKlUCocOHfJ1XHitarLBPjKiPWBmZgbXrl1DsViMOiu+FItFnDt3ru/SCkO5XEa5XMbMzEzUWYk9BjIiBfuovEH4YuShoSEsLy/j8uXLKJfLUWfHk83NTRw+fBjHjx/vq7TCsLOzg8XFRSwvL2NoaCjq7MQeAxmRgv3XCaL+pYKwDA8PY2VlBVevXo06K56cPHkSR48e7bu0wpDP53HhwgUMDw9HnZWBsD/qDBD1o0HtfxgaGoplP9mg4TEIF5/IiIgo1hjIiIgo1hjIiIgo1thH5tCtrzYib15++WXf70j1s/feew/33HMPDh48GEp6cvg86+nedevWraiz0Hf4QvTHtra28KMf/SjqbNCA+fnPf44HHngADz/8cNRZoQEzSDd8HdpgICPqomPHjmFsbAznz5+POitEg4rf7EFERPHGQEZERLHGQEZERLHGQEZERLHGQEZERLHGQEZERLHGQEZERLHGQEZERLHGQEZERLHGQEZERLHGQEZERLHGQEZERLHGQEZERLHGQEZERLHGQEZERLHGQEZERLHGQEZERLHGQEZERLHGQEZERLHGQEZERLHGQEZERLHGQEZERLHGQEZERLHGQEZERLHGQEZERLHGQEZERLHGQEZERLHGQEZERLHGQEZERLHGQEZERLHGQEZERLHGQEZERLG2P+oMEA2KH//4x/jlL3/ZMO3WrVvY2NjAjRs3GqZ///vfx9e+9rVeZo9oYCWEECLqTBANgitXruCZZ55pu9zdd9+N3/72t/jkJz/Zg1wRDbwNNi0SheTb3/427rnnnpbL7N+/H5qmMYgRhYiBjCgkBw8eRDKZxIEDB1yX+eijjzw9tRGRdwxkRCF65pln8OGHH7rOv/fee/HUU0/1MEdEg4+BjChETz31lGuz4YEDBzAxMdG2+ZGI/GEgIwrRgQMHMD4+rmxe/PDDDzE1NRVBrogGGwMZUcimpqaUzYuf+tSn8I1vfKP3GSIacAxkRCF78sknMTw83DDt7rvvxnPPPYf9+/nqJlHYGMiIQrZv3z48++yzDc2LH3zwASYnJyPMFdHgYiAj6oLJycmG5sUHHngAjz32WIQ5IhpcDGREXfDVr34Vn//85wHcblZ8/vnnkUgkIs4V0WBiICPqkunpaezbtw8ffPABnn766aizQzSwGMiIumRychJ//OMf8aUvfQmPPPJI1NkhGlgcQvWxW7du4fr161FngwbIoe0gAAAgAElEQVTMgw8+iK985StYX1+POis0YMbHx6POQt/gt99/bH19HRMTE1Fng4jIE166LRt8InNg5YhOIpHA2traQN1p/u53v8O9994bWnpjY2MAgI2NjdDSpHjhTXcz9pERdVGYQYyI1BjIiIgo1hjIiIgo1hjIiIgo1hjIiIgo1hjIiIgo1hjIiIgo1hjIiIgo1hjICABQq9WwurqKZDIZdVY6lkqlkEqlos5GX6rValhYWIg6G3vewsIC6vV61NkYGAxkA6Zer6NYLGJpaclXUJqfn8fk5CTy+Xyg7ebzeSSTSSQSCSSTSayurgZKZxDU6/W+/MmWWq2G+fl5HDx4EIlEAolEwjXgy/n2T78KWudVdnd3MTs7i0QigdnZWWxubiqXK5fLDWUzOzvrmma5XLbyJsvx1KlTmJ6eRq1W6yi/9DFBQggh1tbWxCAUh2EYwjAMAcD3/gRZRwgh0um0ACBKpZIQQohSqSQAiHQ67Xv7a2trvrffb3K5XNfq0ujoqBgdHfW9nmmaQtM0sbW1Zf2fzWYFAGEYhnKdarUqAIhqtdpRnrutkzpvZ5qmyOVy1t+yfOQ0u0wmY23PbRkhbp8bmqaJXC4nKpVKw7ytrS2haZowTdNXPgflWhWidZbGxwatcvQykKnWAyA0TfOdTtwDmQwY/RbI0um0MmDJY5fNZpXrxemc6DSQqYKRW5pugctO13VhGEbLQKXruu8bvkG7VoVgnU2LHarX61hdXbWaGJaWljwtY29ScPZP5fN5q4lud3cXxWLRtZlnYWHBmra7uxso38lkEjs7O4HLIJ1OAwCKxSIAWPm4ePFi4DSDcpZlu7KVy8imUQBYWlqymovs5aIqf+e0dDptNc/ap0fZb1er1TA3N4cTJ04o56fTaUxOTnpuDu60PjvzJutwMpl0bcrrBU3TlNN1XW/4f3d3F8lkEqlUyqrzTvJYX7x4EUNDQ67bHBsbw9zcHJsYOxV1KO0XQe9yNE1ruNOVd2HOZTKZjBDidnONpmkNTQryDh6A1fRTqVQEAKHruhBCiEKh4NoMZBiG1awnoc3dqaZpQtd1Kw+yGSVolZBNO1tbWyKbzQZqjkIIT2T2snT+71a2cr59GdM0ha7rAoC4efOmEOJOU5u9jGRa9mmqcpTNX50K8kQmmzqdTVtC3HniksdPVY+cwqjP9nXl06Cs4848eNVJ/VUxTVPZbCjLU340TWuo77JpPZfLWU2QmqaJQqHQtA1ZLl6e8CQ+kTVh06IUpHLIi7+9Est2b0menM5l4GjOUZ2EzmnyYmNvqjBNs2WTkYo8EeUFWqbT6YVAXvjbNae4CSOQyXTaBRYvy6j6+oKmFZYggUzWGxU53d4kaq8XzvXCrM/y/HEuEzTgh13uhULBtQ/LNE1RKpWsspWBXYjmPmP7TZEM7PZ0nHWsHQayJgxkUpDK4aUvRFZgO1l57QHPy4kvL6z2C0ahUFDewbY6qVV5ardOO+l0WmSzWSuwBunE7rdAFnZaYQgSyFrlxz5dPnHanzCc64VZn+1Pbs5PEGGXu31wTCuZTKbtvstz1/5E2mr5VhjImjCQSUEqh5cKGOYFUghhNeNIbnev7S5eYQYyeWctA9fNmzeb7lK9YCBrr5uBTIg7F1x5I+KlTqqmR1FOYaaXzWY9119nOfk9vxjIOsbBHp2QncPlcrntMqrOXGcnshdTU1PI5/MoFovY3d3FY4895juNsE1OTgKA1al95MgRAMALL7wQWZ7CFOQ4xdXIyAhyuRzy+bw1iMcu7PoMoKOBRt1QLpexvb2NM2fOeFp+aGioYd/l36oXnt0GlFBnGMg6ICvl4uKiVWnlC5XS1NQUAODtt9+2psll5c/W+3Hy5EkAwGuvvYbr16/jiSee8J1GJpMB0DoA++E8OWVAi/tJKy+wp0+fjjgnnZEByes3SWiahmw2i0uXLjXNC7M+y3q4srJipRH1N4/UajVcvXq1YcRtuVxu+cJzvV5v2Hf59zvvvNOwDHCn/JwMw+gk2xT1M2G/CPK4Lkddwda2r+t60yAK2Rwo+x2y2WzT6C25vmyesw++cI4AlB3Mbh3E9nVV/VRypJSmadZINtmJL/fBD7mu7LuTnf+qUVqtIISmRXtZVqtVz2Ur/5f7YO/rs3OOZJT7ai83WSeq1ap1jPpx1GK7F55Vg0TCrM/25ewfmU/noIlW2tV5L2mpzmf5kaMKs9lsQ72uVCrKEYey7sh9dfaj2de3p+8FmxabsI9MClo5qtWqdcIbhtEQxOzL2L8JQA6KkJwnjds0SfZjqLalOglV+1WpVKyLsq7rDUOhgwydLxQKDen5DWIy750GMrf9b1e28u9SqWRdzDKZTNNFsVKpWPPlxcdZbvL4GIZhTYsykMmAYR+44KWOCCGUF98w63OlUrHOH13XG4KtYRhC1/W2L9Z7qfNe0pL1V/WR55p96L3qtRc7exmp6pIQd26E/JxzDGRN1hNCCAHC+vo6JiYmwOKITiKRwNraGsbHxyPZNoC+P/6y2WpjY8PXerK57uzZs6HnqduSySRyuVzfpRWGVCqFQ4cO+TouvFY12WAfGdEeMDMzg2vXrrl+E0W/KhaLOHfuXN+lFYZyuYxyuYyZmZmosxJ7DGS05zm/XmkQDQ0NYXl5GZcvXw5tkE+3bW5u4vDhwzh+/HhfpRWGnZ0dLC4uYnl5ueVXWJE3+6POAPUnrz/bMQjNG/J1Afn3IOyTyvDwMFZWVrC8vIyRkZGos9OWHKHbb2mFIZ/P48KFCxgeHo46KwOBgYyUBvVirrKX9nVoaCiW/WSDhscgXGxaJCKiWGMgIyKiWGMgIyKiWGMfmUOQr42i8Lz88su+35HaS+TwedbTvevWrVtRZ6Hv8ImMiIhijU9kDnwaiE4ikcBLL70UyTd7xEXQb/agwSG/2YPu4BMZERHFGgMZERHFGgMZERHFGgMZERHFGgMZERHFGgMZERHFGgMZERHFGgMZERHFGgMZ0R5Sq9WwsLAQdTb2vIWFBdTr9aizMTAYyLqsWCwilUohkUggkUgglUqhXC6jVqt5/vHKbqjX6ygWi1haWkIymWyaL/Or+iwsLCCfzw/UiViv17t6PLqdvhe1Wg3z8/M4ePBgQ31UUR33ftWuLvtVLpcb9nt2dtb39nZ3dzE7O2utv7m52TD/1KlTmJ6eHthfJO85QUIIIdbW1kTYxWEYhtB1Xdy8edOaVq1WRS6XEwBC357fvBmG0TIf1WrVmm+apjW9VCoJTdOEpmmiWq2GlicAYm1tLbT0/JDHpN/THx0dFaOjo77XM01TaJomtra2rP+z2awAIAzDUK4jj3+Yx7gbvNRlPzKZjJUWAJHL5XxtzzRNax17OTvT2draEpqmNZxbXnTjWhVz6yyNj4VdOQzDEJqmuc7f2trqi8rY7uR3m1+tVq1g5vdEbLWtKAKZvMh363iEmX7QQJZOp5UBSx7fbDarXK8f6qhXYQUyZ8Dxuz3V+m7L6rou0um0r/wxkDVhIJPCrBwySMm7XzfO7dnv3gCITCbTcDdcrVZFNpu1AqS8y9c0TVQqFWu79o+UTqetaZVKpSEPQQKZEEIUCgXlnWZQQQJZuzJTlYVzmv3uWn7kk7Msa3mX7nzCDpq+nO72NOQmSCCTT1aFQqFpHgCrbqiCmdsTRyf11Jk3uX1N05R59CqMQFapVKynVC/nr9ftybrjJM8hP0+9DGRNGMikMCuHvHD5bZLRNE1kMhkhhPqJR97V24OkPPHkSSJPDNUF0jAMUSqVGqZ1EshM03Q9QYMIEsjalZm9eVSSZaYKPs7/7WVtmqbQdV0AsIJZ0PSF6F0gk4HEGURkvmReACjrh1MY9dS+rgygsu468+BVGIHM3uwvg6vbeex1e/I8Ud3wyXLxczPIQNaEgUwKs3IEOaFUd2byCct+p6xK2zlNXpTsTX6mabZsWgq6L2E158i0/ASyMMvMyzJC3O4flE8xnaYfRJBAJuuDipxub/50PnHahVnm8qnOuYzf4N5qm0GYpilKpZJVbjJoB91eoVBwbYKXQc5P8yIDWRMGMinqQCbv9O1kJbf3tXm5QMiLrf3CUigUlHe6cQ5kYZaZ10AWdN0oA1mrbduny6dL+1OIc70wy9z+5Ob8BBFmXZQymYxrX7fX7dkH2XSSjsRA1oSBTAqzcsiT3c8giDAvmkIIq7lHcrvL7SRQyQtY0Dto1bb8BLJuB5q9FsiEuHMTJJ8g4lAm3UpPCKEsAz/by2azrk90ftKxYyBrss73yLrg9OnTAIB33nnH8zqapgGA8r0SXdd952Fqagr5fB7FYhG7u7t47LHHfKfRzptvvgkAOHHiROhpexF2mfnR7fSjMjIyglwuh3w+j3Q63TS/G2W+s7MTaL1eGBoaCrxf5XIZ29vbOHPmTMi5IicGsi7QNA2apmFxcdF1md3d3YZvWJiamgIAvP3229Y0+cKx/Hl7P06ePAkAeO2113D9+nU88cQTvtNopVar4ZVXXoGmada2ei3sMvNCXnTlzUocyIDk9QV2TdOQzWZx6dKlpnlhlnkmkwEArKysWGn02zeP1Ov1QHWpVqvh6tWruHjxojWtXC43vVwtGYYROI8EPp9KYT+uyxFZzuHaQtweqeQcDSU72+3Ts9ls0ygvoPEFZdn0ATSPkpSd1W4dyfZ1W3VEO+f3ywvRXspMCNE00tD+moJcVvbXyOHgMj+w9TXKATPOPpOg6Uc9arHdC8+qQSJh1lP7cvaPzKcclu9lFGO7uuwlrWw22zD8v1KpuI4mbLU9ee6r9s2ZHkcthoJ9ZFI3Kod8w19e6PBx30Mmk1EOha5Wqw3fKpDNZhtOEudJ4TZNkv0dzkCqWs+5vtt8GRjbvWMThN9AJkT7MhPizo2D/YIhh33Li6osK8MwGgY6yIufXD+TyYSWfq/fI7Mfs1bH3k410CHMelqpVKyAqet6w3khvxmn1RcLuO2Lc3+8pGUfeq96VcXr9uznu/PjPBflTQ/fI+vIekIIIUBYX1/HxMQEWBzRSSQSWFtbw/j4eNRZAQDr+wX7qU7IZq6NjQ1f68nmurNnz4aep25LJpPI5XJ9l1YYUqkUDh065Ou48FrVZIN9ZER7wMzMDK5du4ZisRh1VnwpFos4d+5c36UVhnK5jHK5jJmZmaizEnsMZEQK9lF5g/AN5UNDQ1heXsbly5dRLpejzo4nm5ubOHz4MI4fP95XaYVhZ2cHi4uLWF5extDQUNTZiT0GMiKFI0eOKP+Os+HhYaysrODq1atRZ8WTkydP4ujRo32XVhjy+TwuXLiA4eHhqLMyEPZHnQGifjSo/Q9DQ0Ox7CcbNDwG4eITGRERxRoDGRERxRoDGRERxRr7yBzku0MUjYmJCUxMTESdjb7Hekp0BwPZx77+9a9jbW0t6mzQgDl79iyOHz/ete9+JCKA3+xB1EXHjh3D2NgYzp8/H3VWiAYVv9mDiIjijYGMiIhijYGMiIhijYGMiIhijYGMiIhijYGMiIhijYGMiIhijYGMiIhijYGMiIhijYGMiIhijYGMiIhijYGMiIhijYGMiIhijYGMiIhijYGMiIhijYGMiIhijYGMiIhijYGMiIhijYGMiIhijYGMiIhijYGMiIhijYGMiIhijYGMiIhijYGMiIhijYGMiIhijYGMiIhijYGMiIhijYGMiIhijYGMiIhijYGMiIhijYGMiIhijYGMiIhijYGMKCT/+q//ikQi0fC5ceMGLly40DT9F7/4RdTZJRoYDGREIZmcnPS03PDwMJ588sku54Zo72AgIwrJ3/7t3+L+++9vucyBAwcwPT2Nfft46hGFhWcTUUgSiQSeffZZHDhwwHWZDz/80POTGxF5w0BGFKLJyUl8+OGHrvMffPBB/M3f/E0Pc0Q0+BjIiEL05S9/GX/1V3+lnHf33XfjX/7lX3qbIaI9gIGMKGTT09PK5sUPPvgAExMTEeSIaLAxkBGFbGpqCn/4wx8apiUSCfz1X/81HnrooYhyRTS4GMiIQvaFL3wBX/7yl5FIJKxp+/fvx3PPPRdhrogGFwMZURc899xzuOuuu6z///CHP7BZkahLGMiIumBiYgJ//OMfAQD79u3D17/+dTzwwAMR54poMDGQEXXBfffdh//3//4f9u3bh0Qigenp6aizRDSwGMiIumR6etp6KhsdHY04N0SDi4GMqEu+853v4MCBA/j7v/97/Nmf/VnU2SEaWPujzkBU/u3f/g2//vWvo84GDbhPf/rTeO+99zA2NhZ1VmjAjY+P79l6tmefyH72s5/hxo0bUWdjz7px4wZ+/vOfR52Nrvv85z/f9ouE3bz//vv4j//4D7z//vsh54oGzX//939je3s76mxEZs8+kQHA2NgYzp8/H3U29qTz589jfX0dGxsbUWelb21vb+ORRx7Bj370Ixw7dizq7FAfe/jhh6POQqT27BMZERENBgYyIiKKNQYyIiKKNQYyIiKKNQYyIiKKNQYyIiKKNQYyIiKKNQYyIiKKNQayPapWq2F1dRXJZDLqrHQklUohlUpFnY1YqNVqWFhYiDobe97CwgLq9XrU2RgoDGQxV6/XUSwWsbS05Csozc/PY3JyEvl83vc2a7UalpaWkEgkkEgksLq66juNQVGv1xt+Cbpf1Wo1zM/P4+DBg9Zxc7sBkPPtn34VtP67KZfLDfs9Ozvre3u7u7uYnZ211t/c3GyYf+rUKUxPT6NWq3WcX7qNgSzm0uk0fvrTn+KFF17wFZReffXVQNur1+uYmZkBAAghUK1WceXKlcieii5evIiLFy9Gsm0AeP311yPbtlfymD3//PPQdR2maSKbzeLSpUvK4yaPKwBUq1UIIXqdZc+C1n83b7zxRsP/p0+f9rW9er2OcrmMV199FaZp4sknn8Q3v/nNhmVHRkZw7tw5zMzM8MksLGKPeuihh8T8/HzU2QgNAOH3cAZZJ5vNCgDCNE1rWqlUEgBEoVDwnM78/Lx46KGHfG2735imKTRN812GXr311lsCgHjrrbc6SiedTgvDMJqmy+OfzWaV68Xp8hCkLqvkcrmOtqda321ZXddFOp32n0mFQbue+bTOJzKf6vU6VldXraaHpaUlT8vYmxGc/VP5fB6JRALJZBK7u7soFouuTTsLCwvWtN3d3UD5TiaT2NnZCbT/V65cAQAMDQ1Z0z73uc8BQM+/ANhZju3KVS6Tz+etZWQT6ezsbEOZqMreOS2dTlt32vbp/dRvV6vVMDc3hxMnTijnp9NpTE5Oem4e7rRuO/Mm63MymWxqguu13d1dJJNJpFIpFIvFQGlomqacrut607SxsTHMzc2xiTEMUYfSqAS9g9E0reHuVtf1prtdTdNEJpMRQghRrVaFpmlC0zTrKUbexQMQW1tbQgghKpWKACB0XRdCCFEoFAQA5Z20YRiiVCo1TEObO1JN04Su61Ye5JOV3yrgto7ftMJ4IrOXo/N/t3KV8+3LmKYpdF0XAMTNmzeFELePm3OfZFr2aar9NgxDedz8CuOJLJfLCQCiUqk0zZP5NgxDAFDWKacw6rZ9Xfk0KOu7Mw9eBanLTrKs5EfTNFGtVjvanmmaAoDySU2Wi9enwFb2+hMZA5kP8uJvr9xbW1tC0zTrf3lCOpeBowlHdSI4p8kLjL0ZzzTNls1EKvIElRdpmU6Qk995wfeyfZWwmha9BBYvy8jmUXtTT9C0whJGIJN1SEVOtzeR2o+rc70w67Y8l5zLBL0BCOs4mKYpSqWSVW4yaAfdXqFQaAj0zm0561xQDGR7VJAD76U/RF7o7WSFtQc8Lye7vLjaLxKFQkF519rqxFLlqd06buSFy/50pwoC7fRbIAs7rTCEEcha5c8+XT6B2p9CnOuFWbftT27OT9j7GVQmk2nYryDb0zTNejLtJJ129nogYx+ZD15GRS0uLjZNk/1JfkdVjYyMQNM0q18KAH7xi19gZGTEVzqqPAV1/PhxFAoFvPvuuzh06BCWlpbw3nvvAbg9rJjiaXh4GKVSCfl83nU0XZh1Wy4vhGj69Ivx8fGORkKurq5C0zQcP348xFyRCgOZD7Ijt1wut11G1YGr6vBtZ2pqCvl8HsViEbu7u3jsscd8pxG2kydPIpfLQQiBM2fO4Fe/+hUMw/AdYPtRkGM0KEZGRpDL5ZDP55FOp5vmh123AQQedNQLQ0NDgferXC5je3sbZ86cCTlXpMJA5oM8kRcXF607VvnyozQ1NQUAePvtt61pctmxsTHf2zx58iQA4LXXXsP169fxxBNP+E4jk8kAaB2Ag1pdXcW1a9cwNzcXetq9JC+ozveG4k4GJK/vK2maZr1j5hRm3ZZ1cmVlxUqj3755pF6vBzpna7Uarl692vB+Y7lcbnq5WjIMI3Ae6WNRNmxGKUibshxpBVt7vq7rTYMo5Egu2deQzWabRmzJ9WU/k33whXOklOx4duuDsq+r6lSWo6M0TbNGr8mOe7kPfsgO8U7egwmjj8xejtVq1XO5yv9l36McQOPsD3EObJH9g/Yyk/WhWq1aZRGHUYuyrNxG5akGiYRZt+3L2T8yn+l0WgDeRjG2q/9e0spmsw3vQVYqFdfRhK22p7pGyI8zPY5aDA0He/hVrVatk9wwjKbRe3KZTCbTcMG0V3hnBXebJsnBFKptqU4Y1f1JpVKxLsy6rjcMf3a7mKnI9DOZTOCh0kKEE8jc9r1ducq/S6WSddHJZDJNF6VKpWLNlxcbZ5nJY2MYhjWtnwKZDBj2AQde6osQQjnQIcy6XalUrHNJ1/WGYGsYhtB13XWwRat9ce6Pl7TsQ+9Vr7d43Z48x1Qf5/krb4z8nH9u9nogSwjRR72rPfTwww9jfHwc58+fjzore9L58+exvr6OGzdu9Hzb8sXlfq/629vbeOSRR/DWW2/h2LFjgdORzXVnz54NK2s9k0wmkcvl+i6tMKRSKRw6dCiU47LHr2cb7CMjGnAzMzO4du1a4G+riEqxWMS5c+f6Lq0wlMtllMtl63tLqTMMZLSnOL9OaS8YGhrC8vIyLl++3JUBP92wubmJw4cPhzJ0Pcy0wrCzs4PFxUUsLy83fNUbBbc/6gxQf/D6Ux393hzXzpEjRxr+jvv+eDU8PIyVlRUsLy/H4jUJOVq339IKQz6fx4ULFzA8PBx1VgYGAxkBiH+A8mqv7KfK0NBQLPvJBg2PQfjYtEhERLHGQEZERLHGQEZERLG2Z/vIfv/73+PChQu4cOFC1FnZs+6++27Pg0z2skceeSTqLFCf+5M/+ZOosxCpPRvIDhw4gNHR0UDfpUad29jYQLFY7Kvv1us3v/71rzE3N4d0Oo3PfOYzUWeH+tj3v//9qLMQqT0byPbt24djx45hfHw86qzsSTdu3MD29jbLv4Xt7W3Mzc3hH/7hHzr6Zg8afHv0Gz0s7CMjIqJYYyAjIqJYYyAjIqJYYyAjIqJYYyAjIqJYYyAjIqJYYyAjIqJYYyAjIqJYYyAjGlC1Wo3fnBITCwsLqNfrUWcjthjIQlYsFpFKpZBIJJBIJJBKpVAul1Gr1SL9XsF6vY5isYilpSUkk8mm+TK/qs/CwgLy+fxAnWj1er2rx6Pb6bdTq9UwPz+PgwcPNtRFFdUx71ft6nE30srn80gmk0gmk8jn803zd3d3MTs7i0QigdnZWWxubrbd9tLSUkM5nzp1CtPT03vmV8tDJ/aohx56SMzPz4eapmEYQtd1cfPmTWtatVoVuVxOABBRFrdhGMIwjJb5qFar1nzTNK3ppVJJaJomNE0T1Wo1lPzMz8+Lhx56KJS0gpDHpJ/Tf+uttwQA8dZbb/lazzRNoWma2Nrasv7PZrMCgDAMQ7mOPPZhHd9u8VKPw0wrm80KTdOEaZrCNE2h67rIZDLWfNM0RS6Xs/6W5SynqZRKJeU2t7a2rG351Y3rWYysM5CFxDAMoWma6/ytra1IA5nU7gLgNr9arVrBLMiJ5hRlIJMX+m4dj7DSDxrI0um0MmDJY5vNZpXr9UP99CrMG0O3tCqVigBg3RAIcScIlUolIYRQBqxWeTNNs2Xw1HVdpNNp3/uw1wMZmxZDUCwWcenSJZw7d851mePHjzdNq9frWF1dtZpzlpaWGpoWarUaVldXrWaPfD6PRCKBZDKJ3d1dFItF1yahhYUFa9ru7m7H+zg8PIzvfe97yOfzeP311ztOL6h2ZaYqC+e0dDptNRHJ6bVazWpCAu40/czOzmJnZ6fj9AEglUq5Nu+FpVarYW5uDidOnFDOT6fTmJycxOrqqqf0Oq2jzrzJeplMJj01wUXp+vXrAID777/fmnbfffcBAN544w0AgKZpynV1XVdOX15exosvvui6zbGxMczNzbGJ0a+oQ2lUwryDkXdYfptlNE2zmilUTzzyrh62u0J5l6jruhBCiEKh4NpkZBiGdecoIeATmRC37ybt2+5E0CeydmVmbx6VZJnZp7n9by9r2ZQEwGouDpq+EHeasrwK8kQmmzQrlUrTPJkfWV9VdcMpjDpqX1c+Dcp668yDV+3qcRhpyWOvWt6t9UWeI6ontUKhYJWR2zZl2bVqmlTZ609kDGQhCHJSyRPZHvxk86O96UeVtnOavDDZm/xkE4bfvHY636sggSzMMvOyjBB3mpLszT1B0/crSCCTdUFFTrc3fdr7c53rhVnesu/IuYyfwN4q/U64peV3uhC3y0zV/F6tVhv61tzSkIHQb/PiXg9kbFqMyMbGBoDbTXbSQw89BAC4cuWKr7RGR0cBAP/1X/9lTXvzzTet6YMizDLzamRkBAAwNzfXlfTDdunSpbbLDA0NYXl5GQBaNmOFWd5yeWczrJf8xskrr7yCc+fOYWhoqGH6f/7nf+LMmTNt15frxaW+9QsGshDI9nA/w9MXFxebpslKrBri28rIyAg0TWu4uPziF7+wLsJhkftnGEao6XoVZlp1fB4AACAASURBVJntdcPDwyiVSsjn85iZmVHW3TDLWy4vhGj69Cu3/i9A3Qe2uroKTdOa+sPz+Ty+9a1vhZ4/uoOBLASnT58GALzzzjue15Eniepu2K2juJWpqSnk83kUi0Xs7u7iscce851GO2+++SYAuA4k6Lawy8yPbqcfhZGREeRyOeTzeaTT6ab53Shv+8CZfqfafzmA5dFHH21YtlwuY3t7W/nUlUwm8eCDD7oOFKLOMZCFQNM0aJqmvIOVdnd3G75lYWpqCgDw9ttvW9PkXfHY2JjvPJw8eRIA8Nprr+H69et44oknfKfRSq1WwyuvvAJN06xt9VrYZeaFvPDKm5V+JwOS19YBTdOQzWaVTXxhlncmkwEArKysWGn0+zePyKco+/7/5je/aZgH3N6Pq1ev4uLFi9a0crmM2dlZAK2fQt2eSKNq9YitiDrnIhd256gcleV8IVqI2yORnC8Tyw53+/RsNts00gtofEFZdgZDMUpSdvS7dRTb11W9C+Y2v19eiPZSZkKIppGGcoACbCPp5GCHarVqlZdcRg5kkANmnCPUgqYf5ajFdi88qwaJhFlH7cvZPzKf6XTa8yjGdvU4zLQymYzQdd31hWh53qv2rdXIQ7mME0ctBsJRi2GSb/nLCx0+HqabyWSUw6HlSCb7BdR+MjlPDLdpkhxh5wykqvWc67vNl4HR/lJoGIIOv29XZkLcuXGwXxDk0G95YZVlZRiGNU2mKQM3AJHJZEJLvxeBTAYM+/FqddztVEPKw6yjlUrFCpi6rjecE/JbcVp9qYDbvjj3J8y0hLhzc6BpmigUCg3z7Oe686M6D53bdpI3RX5vGPd6IEsI0ce9rV308MMPY3x8HOfPn486K3vS+fPnsb6+jhs3bkSdFYvsr+iXU2J7exuPPPII3nrrLRw7dszzerK57uzZs93KWtckk0nkcrm+S6tXUqkUDh065PvY7fHr2Qb7yIgGzMzMDK5du4ZisRh1VnwpFostvx0nqrR6pVwuo1wuY2ZmJuqsxA4DGRHQ9LVLcSbfE7t8+TLK5XLU2fFkc3MThw8fVn6VW5Rp9crOzg4WFxexvLzc9A4atcdARgTgyJEjyr/janh4GCsrK7h69WrUWfHk5MmTOHr0aN+l1Sv5fB4XLlxoePmcvNsfdQaI+kG/9IuFaWhoKJb9ZHsRj1Nn+ERGRESxxkBGRESxtqebFre3t7G+vh51Nvak7e1tvP/++yz/Fn79618DAH72s59he3s74txQP3v//fejzkKk9vR7ZP/zP/8TdTaIiEIxPz+/Z98j27OBjKgXjh07hrGxsb16gSHqBb4QTURE8cZARkREscZARkREscZARkREscZARkREscZARkREscZARkREscZARkREscZARkREscZARkREscZARkREscZARkREscZARkREscZARkREscZARkREscZARkREscZARkREscZARkREscZARkREscZARkREscZARkREscZARkREscZARkREscZARkREscZARkREscZARkREscZARkREscZARkREscZARkREscZARkREscZARkREscZARkREsbY/6gwQDYpf/vKX+L//+7+Gae+//z5u3LiBjY2Nhulf+9rX8LnPfa6HuSMaXAkhhIg6E0SD4Ic//CH+/d//3dOy//u//4svfOELXc4R0Z6wwaZFopBMTU0hkUi0XCaRSOArX/kKgxhRiBjIiELy2c9+Fl/96lexb5/7aXXXXXfh+eef72GuiAYfAxlRiJ577rmWT2UfffQRxsbGepgjosHHQEYUoomJCdd5+/btw5NPPon777+/hzkiGnwMZEQh+vSnP41vfOMbuOuuu5rmJRIJTE9PR5ArosHGQEYUsunpaagGAycSCfzzP/9zBDkiGmwMZEQh+853voP9+xtf0dy/fz9Onz6Nw4cPR5QrosHFQEYUsk984hP4p3/6p4Zg9tFHH+HZZ5+NMFdEg4uBjKgLnnnmGXz00UfW//fccw/+8R//McIcEQ0uBjKiLjh9+jQOHjwIADhw4AC++93v4k//9E8jzhXRYGIgI+qCe+65B9/97ndx11134cMPP8Tk5GTUWSIaWAxkRF0yNTWFjz76CIcOHcLf/d3fRZ0dooHFb78n6pJvfvOb+PM//3OMjY3hwIEDUWeHaGA1ffv9+vp6y28nICIiioriHc0N1yeytbW17uaGaA+YmJjA9773PTz++ONRZ6VvvfzyywCAl156KeKcUD/b2trCK6+8opznGsjGx8e7liGivWJiYgKPP/44z6cW5I+OsoyoHbdAxsEeREQUawxkREQUawxkREQUawxkREQUawxkREQUawxkREQUawxkREQUawxkREQUaz0JZLVaDaurq0gmkz1Zr1vp0B2qMk2lUkilUhHmqtEgHfd+K9t+UqvVsLCwEHU2yIOFhQXU6/XQ0+1JIJufn8fk5CTy+XxP1utWOnRHL8u0Xq+jWCxiaWnJV1DqJI9Btzmo6vU6EolE1NloUqvVMD8/j4MHDyKRSCCRSLgGfDnf/ulXYdY/r2nl83kkk0kkk0nlObO7u4vZ2VkkEgnMzs5ic3Oz7baXlpYayvnUqVOYnp5GrVYLtjNuhMPa2ppQTO4YgEDpBl2vW+nQHb0qU8MwhGEYgbYXNI+dbNO5/bW1tcDr94tcLte1Yz06OipGR0d9r2eaptA0TWxtbVn/Z7NZAUAYhqFcp1qtCgCiWq12lOduC6v+eU0rm80KTdOEaZrCNE2h67rIZDLWfNM0RS6Xs/6W5SynqZRKJeU2t7a2rG350SI2rTOQUWC9LtNeBrIw1497IJMBo98CWTqdVgYsecyy2axyvThdB8I8x9zSqlQqAoB1QyDEnSBUKpWEEEIZsFrlzTTNlsFT13WRTqd95b9VIAutaXFzcxPJZBKJRAILCwueHh3r9TpWV1etx/ylpSXX9WQ7uHys3d3dbUpLPsbK5oVOH1+dfSz5fL5p+zL/zjy1yo+qeSNok0etVrOaBIA7j/Kzs7PY2dlpWt5rmfs5Nqqyciu7ZDLZdOyC1B0Ve56TyaRy/+MoSNl6rReqOueclk6nraYm+/Qo++1qtRrm5uZw4sQJ5fx0Oo3JyUmsrq56Sq9dffdTn+3XqmQy6akJLkrXr18HANx///3WtPvuuw8A8MYbbwAANE1TrqvrunL68vIyXnzxRddtjo2NYW5uLrwmRh9Rz5VsdpARXT52whaNoYjMmqZZj6/ValVomtb0yCnXk2nL5eBoHtB13Zom7zB0XW9Kxw+5HdjuTLa2tqy0ZZ5U22uXn0wm07APcr/kdryyl7O9iUVu/+bNm0371K7MvS5nL1N7WTn/b1VOXuqOansqmqYJXdetPNrTCiqM9Tt9IgtStl7rhWxqs++jTMs+TVUOssmqU0GeyGS9qVQqTfNkPuUTgfOcUh3PdvXda32W68qnwUKhoMyDV53WPy9pyTqhWl7TNGVapmm6Ni0WCgWrjNy2KcuuVdOkU9ebFt0uOvZHR+cy8gDbg5EMEvYmAVXaN2/eFAAa2nANw2gZuIJWCK8XVOe0dvkRojHYpdPpwO32qrRl04D9GHgt86DHxkuZe11G1ezQ6hjKC5s9cMuTLe6BTJWPoGWrqhdB0wpLkEAmg5SKnG5vErXXC+d6nVyLnNPkzZNzmaABvxeBzO90IW6XmeoGuFqtNlyX3dKQ56af5sWuBzJVRG93IqjWkTtnvwvwW8iVSkWk0+nIA1m7/Ahx525Y07SmJ6dO86ia7rXMgx6bIBdbL3Wn3XS3dNqt48WgBbKw0wpDkEDWKj/26fZzTAYq53qdXIuc0+xPbs5PEP0ayOyDbOzsQaxdGn73reuBTN7lybsXL3d9nZxkbtMzmYwVFPohkLXKjyTv4FSVopM8qqZ3e7kgF0gvdaddvvzk2S8GstZphaGbgUyIO3VKPkF4OXdV06Mop14EMreBPEBjs6mUzWabApYQt1tFnE29vQpkoQz2GBkZQS6Xw7vvvmsNbMhmszh79qzrOrLzUNXZ59aB2Gq51dVVvPDCC/jJT36Co0eP+tyD8HnJT61Ww7vvvot0Oo3HH388/Hcr0FhGXss8jGPjVZC6Q50L+zj2M1nH8vk80ul00/xu1Pc4DTRS7b8cwPLoo482LFsul7G9vY0zZ840pZNMJvHggw+6DiDqKh9Rz1Uul2v7TgAc0Vf1JCLvlgqFgut6QjTfxauWa/e/V6r1vEzzsn351CHb8lV3P0HzKJ8C7Z2pXss86LHxss/OaV7qTqv0JDl4RtWxH+S4h7l+Pz2RqepF0LTCEuSJTDbXq+qOWz7dBv90ci1yTpP10DAMK2+yDzyIMMvdLS3V8HvZR2h/wlLtR6lUanndapV/WU5e9Wywh/Oj67qoVqsNI6NkO7W8eNvbrrPZbFOhyMdeWaHkqCBngcrlKpVKQ1Oe2/a9sK9nr5TOtFTTWuVHvmNhPwnliROkU1imLQO7TN854shrmXtZzrnPrf6X+2kffGHvr2hVd5zl43bxkiejpmnWySc78WV6frXbphdhBLJOy7ZdvXCOZJQXMXu52UcKy3OvH0cttnvhWTVIxG99b1Xm9uXsH5lPGYC9jGJsV//CTCuTyVgjflUvRNtHizs/rUYetguefTVqsVQque6kPEnsH0mOcLGfcKpCliNkZHr2uyR7HmQgqFar1qhB+1Biv3c3qvW8TvOan1bb8ptP+3HIZDLKsvRa5u2WcwtAbp9W5dSq7rTallOlUrHqmwyEcii03xGhXrfpJZ1OA1nQsvVaLyqVijVfXlic5easz0JEG8hkwLA/RXg9Xqoh5X7ru9s0IW6XpwyY8pyX5HXAbVh7q31x7k+YaQlx5+ZA07Sma6zqOi4/rQaquW1L3iz5OS9bBbLExxuzrK+vY2JiAo7JLe3s7OCee+7BZz/72abpX/ziF32lRf7J9uc4lvOg151EIoG1tTWMj49Hsm2g/+vF2NgYAGBjY8PXevKLguPYn5pMJpHL5fourV5JpVI4dOiQr2PXIjZtdDzYY3V1FUePHm26EAHAkSNHkM1mO90EDSjWHerEzMwMrl27hmKxGHVWfCkWizh37lzfpdUr5XIZ5XIZMzMzoaXZcSC7cuUKlpaWmr6mZWdnB+vr63j66ac73QS14PwanThh3emeONcLr4aGhrC8vIzLly+jXC5HnR1PNjc3cfjwYRw/fryv0uqVnZ0dLC4uYnl5GUNDQ6Gl23EgW1lZwSc+8Qn84Ac/aPhewVu3bimHaPYD1c859NtPPHjN45EjR6x17H/HQa/rThyOe1jiXC/8GB4exsrKCq5evRp1Vjw5efJkaK8HhZlWr+TzeVy4cAHDw8OhphtKHxkRqUXZRxYXQfvIaG/pah8ZERFRlBjIiIgo1va7zVhfX+9lPogG1tbWVtRZ6Gu3bt0CwGsOtdbqPHLtIyMiIuo3qj4y1ycyDvYg6hwHe7THwR7kRauHLPaRERFRrDGQERFRrDGQERFRrDGQERFRrDGQERFRrDGQERFRrDGQERFRrDGQERFRrMUukNVqNayuriKZTPZkvW6lMyhU5ZFKpZBKpSLMFVGjWq1m/aI0hW9hYQH1ej2y7fdNICuXy0ilUg2/S1UsFlGv1xt+I2p+fh6Tk5PI5/O+0g+6Xrt0nL9l1erXaovFYld++8rtd7WSySSWlpa6+sOKYZWrF/V6HcViEUtLS8obiVa/MbawsIB8Ph/pydZrznMnbumHpVarYX5+HgcPHmy4vqjE6ffp2p0PUj6fRzKZRDKZVJ6nu7u7mJ2dRSKRwOzsLDY3N9tue2lpqaFsTp06henp6eh+xFU4rK2tCcXkrjIMQ+i6LkqlkjXNNE2xtbUldF1vyg+AQHkMul67dCqVijVN13XX9eS+ABDVarXjfNhVq1VlvgzDEADEzZs3Q92eXVjl2o5hGNb+uG3PXg6maVrTS6WS0DRNaJoWetm3AkCsra31bHt2uVyuq8clrPRHR0fF6OhoCDlqZpqm0DRNbG1tWf9ns1kBQBiGoVxH1qFe1pMgvJwP2WxWaJomTNMUpmkKXddFJpOx5pumKXK5nPW3LBs5TaVUKim3ubW1ZW2rG1rEpvXIA1k6nRaaprnOl4Vm12+BTE5Lp9MCgKhUKk3rVCoVa363yleVtjwpWwXYbmy3m9ptz21+tVq1glm3TjZVXqIIZPIC3q3jEmb63Qxk6XRaGbBkHclms8r1en0z3wm3+i5vsGUQF+LO9VQ+NKgCVqvzyzTNlsFT13WRTqeD7kpLfRvIZKEWCgXXZUzT9BTI7HcTAEQmk2m6o7I/Dcmgout6U+AxTVNkMhlrecMwGtJyC2Ryf1QnRzabdb2TabU9Oc2+nmqaW746KS+/5SrE7WAh7wJV/8u7eE3Tmsq9UChYF8d0Ou16Rxw0kMlttLvjDFOQQNauzFsdeznNfrGx1/tcLmcdC1nndF1veGIPmr6c7vak46ZbgUzexKmuL/YbT9X5qqo/7Y6Ln7puvwZpmtbyGtiOW32XebVvW5aJ/alMlZ7bja88L922Kc+vbjzN9m0gkwfS792xqhA1TbMOjtudt1xP3qHI5ZwFL5sAq9WqdVdjP7Bugcy+rpNcX7Vuu+3JC47Mo8y3vSnWLW15I+CsmF7Ky2+5yuXd/pflrtpHedLLZewXDC83Ml7nu5VHtwQJZO3K3K0Zud2Njb087U1tsv7JYBY0fSH6K5DJOqVqIXEGZNW55NTuuHit63JdGUDlxd+ZB6/c6rvbtUgGTxV5fqhu9AqFgrVfbtuU+9uNG8W+DWStLjjOuz37ss71VHcBW1tbTXdbqu3dvHmz6Q5F9tm5rdcqkMm8OB/n5R2X28nfLlDag53b04pcT54Q9mYAe368llfQcvVaXl6WUTVTdBLIvMwPk99A1kldDlLuQtxpGbGXddD0g+hWIJN1X0VOtzeROp9K7cI8LvImzbmM3xuAVtsMMl2IO60izhvaarXacI10S0MGwm40L8YykAnReGfYqmlPdechC9R+5+H3wLr1a7UKZPJve2CyV9BW+9yqH02WhaZprgM3VIHfMIymOz2v5RW0XINcUP0M6hnkQNZJXQ4ayIKu2++BrFX+7NPt55a9Sd8uzONif3JzfsLczyDnj31gjJ2zKbJd2Xbj/OrbQCYrh+rRX+rkhAq6nBC3D5wMGn4Dmb1tWrabt8tDq+0501VVtFZpe10urHINclF09i+qnhK87mer+fLiE/Tu1y+/gazbgYaB7M48O1nf5NNIHMqtXXpug3EAddN6NptV9p3lcrmma3S/BbJI3yOTvwx7/fr1jtLRNA0AlO8w6LruKQ37cqurq3jhhRfwk5/8BEePHvWdn69//esAbu/X5uam9b8bL9ur1Wp49913kU6n8fjjj3f0vobX8gqjXL0aGRlBLpfDu+++a73nk81mcfbs2VC38+abbwIATpw4EWq6Yellmfc6/X4m618+n0c6nW6a343jsrOzE2g9r1R53t3dBQA8+uijDcuWy2Vsb2/jzJkzTekkk0k8+OCDynfr+uY9Ox9RryvkU5lbRyc83OGonlTkXZV9NJAqLdVIQ+dy7f6X0+xk+7zzicLL/qiWkenINn3VHZVqPRWv5RW0XL2Wl31aLpfzPOin3X66zbd30PcKfD6RdVKXg5S7EHf6ie0d9EHTD6JbT2StBpO55ds+yEg1PYzjIgdvGYbRMIAnaL+S23FQDb+X/XrOkYzObZdKpZYDolode7lvYevbpkUhbheivOgXCoWml1idBabqN5MXd3sbdzabVY7Us1c8eWFzHkS5XKVSaWjqq1aryu2rXqB0vq/hlvd225MDNuzlomoek9Ocaat4LS8vyzn3qdX/ch9UeZX/Oz+6rjfsj31d1QXKbX5cXoj2emycIw3lBUqWmRB36pX9QiWXkTdusn45g3vQ9OMwarHdC8+qQSJ+z4VWdd2+nP0j8ykDsJdRjO3Oh0wmI3Rdd30h2j5y2/lpNfKwXfDcU6MW7UqlUsNAB3mhdt6pOwtbkqNq7Ceq6sDa31XSdV35/oYMQvJ9Ljmq0D4EudVHUo1EVC3rdXvt0nLLh4rX8mq3nNe82PPkVgZuJ5Tz1QW3/Wy13XQ67dq32E1+A5kQ3o5NpVKxykteNOSQbnnBdNYrmR95kZTrZzKZ0NLvp0AmA4b9uHs9T1RP7X7PBbdpQjR+647zXVZ5/rdrOfB63tvfZ3Ne7+zfNuT8tPo2ILdtyRueXr9Hlvg4U5b19XVMTEzAMZmoq3Z2dnDPPffgs5/9bNP0L37xi7Gtj4lEAmtraxgfH486KwDu9Gn0U3nKvvKNjY3Q05ZfFBx2X2svJJNJ5HK5qLPhSyqVwqFDh7pS3i1i00bffGkw7V2rq6s4evRoUxADgCNHjiCbzUaQKxoEMzMzuHbtWssv8+5HxWIR586dizobvpTLZZTLZczMzPR82wxkFLkrV65gaWnJGlEl7ezsYH19HU8//XREORss9tFrkX1LeY8NDQ1heXkZly9fRrlcjjo7nmxubuLw4cM4fvx41FnxbGdnB4uLi1heXsbQ0FDPt89ARpFbWVnBJz7xCfzgBz9o+JmNW7duKYcDUzBHjhxR/j3ohoeHsbKygqtXr0adFU9OnjwZ6LWfKOXzeVy4cAHDw8ORbH9/JFslshkaGsLTTz+Np59+Gq+++mrU2RlY/dQv1mtDQ0Ox7CeLi6jLlk9kREQUawxkREQUawxkREQUa659ZPLdDiLqzA9/+MOuvCM1KOTQeF5zqJVbt265zmsKZJ/5zGcwOjra1QwR7RWf/OQn8fvf/z7qbPS1OA0zp+g88MADrrGp6Zs9iCg8x44dw9jYGM6fPx91VogGFb/Zg4iI4o2BjIiIYo2BjIiIYo2BjIiIYo2BjIiIYo2BjIiIYo2BjIiIYo2BjIiIYo2BjIiIYo2BjIiIYo2BjIiIYo2BjIiIYo2BjIiIYo2BjIiIYo2BjIiIYo2BjIiIYo2BjIiIYo2BjIiIYo2BjIiIYo2BjIiIYo2BjIiIYo2BjIiIYo2BjIiIYo2BjIiIYo2BjIiIYo2BjIiIYo2BjIiIYo2BjIiIYo2BjIiIYo2BjIiIYo2BjIiIYo2BjIiIYm1/1BkgGhQ//vGP8ctf/rJh2q1bt7CxsYEbN240TP/+97+Pr33ta73MHtHASgghRNSZIBoEV65cwTPPPNN2ubvvvhu//e1v8clPfrIHuSIaeBtsWiQKybe//W3cc889LZfZv38/NE1jECMKEQMZUUgOHjyIZDKJAwcOuC7z0UcfeXpqIyLvGMiIQvTMM8/gww8/dJ1/77334qmnnuphjogGHwMZUYieeuop12bDAwcOYGJiom3zIxH5w0BGFKIDBw5gfHxc2bz44YcfYmpqKoJcEQ02BjKikE1NTSmbFz/1qU/hG9/4Ru8zRDTgGMiIQvbkk09ieHi4Ydrdd9+N5557Dvv389VNorAxkBGFbN++fXj22Wcbmhc/+OADTE5ORpgrosHFQEbUBZOTkw3Niw888AAee+yxCHNENLgYyIi64Ktf/So+//nPA7jdrPj8888jkUhEnCuiwcRARtQl09PT2LdvHz744AM8/fTTUWeHaGAxkBF1yeTkJP74xz/iS1/6Eh555JGos0M0sDiEyoNbt27h+vXrUWeDYujBBx/EV77yFayvr0edFYqh8fHxqLMQC/z2ew/W19cxMTERdTaIaI/h5dmTDT6R+cBK1TuJRAJra2uxvyP93e9+h3vvvbcraY+NjQEANjY2upI+RYc3z/6wj4yoi7oVxIjoDgYyIiKKNQYyIiKKNQYyIiKKNQYyIiKKNQYyIiKKNQYyIiKKNQYyIiKKNQayHqrValhdXUUymYw6K3tGKpVCKpWKOht9qVarYWFhIepsDKyFhQXU6/Wos7EnMJD10Pz8PCYnJ5HP56POSiD1eh3FYhFLS0uuwbhWq2FpaQmJRAKJRAKrq6s9zmV/qdfrffnzLbVaDfPz8zh48KB1rNwCvpxv//QrL3UUAPL5PJLJJJLJpPJ83N3dxezsLBKJBGZnZ7G5udl227LeS6dOncL09DRqtVqwnSHvBLW1trYmwioqAKGl1WuGYQjDMFz3wTRNoWmayGQyQgghqtWq0DRNGIbhe1sAxNraWsd5jloul+va8R4dHRWjo6O+15PHaWtry/o/m80KAK7HqlqtCgCiWq12lOdua1dHhRAim80KTdOEaZrCNE2h67pVZ4W4XR65XM76W5aNnKZSKpWU29za2rK25UeY15w9YJ0l5QEDWSO3fZAnvP2klSd4oVDwvY24BzIZMPotkKXTaWXAksc1m80q14tTvXWro5VKRQCwgrgQd+poqVQSQghlwGp13pqm2TJ46rou0um0r/wzkPmyzqbFLqrX61hdXUUikUAymcTOzo5yOdlXIZeTzRjOPrV8Pm8ts7u725CGXH9paQm1Wq2p+cdtG2G6cuUKAGBoaMia9rnPfQ5ANF9s6yw/L+VZq9WsZifgTnPR7Oxsw/FTNbM5p6XTaavZyj49yn67Wq2Gubk5nDhxQjk/nU5jcnLSc5OwvY7b6599e17rcC/qqPw5pvvvv9+adt999wEA3njjDQCApmnKdXVdV05fXl7Giy++6LrNsbExzM3NsYmxm6IOpXEQ9O5I0zSh67r1hCKfWOxpyeY3eRdcKBSsu0N5Nw/bHaS8o9R13UojnU6LSqUihGi8O/SyjSCc+xB0erttdPpEZi8/5/9u5Snn25eRzU8AxM2bN4UQd5ra7Psl07JPU+27bP7qVJAnMtnUKeuLncynrD/O+qE6hqqmZHtTmtc63Ks6Ko+janlN05Rpmabp2rRYKBSs/XLbptzfVk2TTnwi84VNi14EqVTygiEvfELcOSHsacngZgdbX4Xq5FBdLO19F/Ii63UbfrW7SNj3SBAcuQAAC7tJREFUudXy7bYRRtOil8DiZRnZ/GRvIgqaVliCBDLnTY6dnG5vErUfS+d6MtjY697W1lZT86SXcupVHQ1ys1UoFJT9XNVqtaFvzS0Ned77aV5kIPOFgcyLIJWq1Z2ffbr9jtX5US2vmia3lc1mlZ3K7bbhl9u68iJmfwpVBQCv2+inQBZ2WmEIEsha5cc+Xd4MaZpmBSrneqo6Li/a9qcbL+XUqzoaJJDZB8bY2YNYuzT87gsDmS/sI+uWxcVFT8vJPhQhRNPHq5deegmapmFychKHDh1qejcojG14cfz4cRQKBbz77rs4dOgQlpaW8N577wG4PRSZ4mN4eBilUgn5fB4zMzPK96FUdVz2j/p9xaRXddSt/wtQ94Gtrq5C0zQcP368Kb/f+ta3Qs0bBcdA1ifcBoJ4cfToUeRyOZRKJei6jrm5OeWLrp1sw6uTJ08il8tBCIEzZ87gV7/6FQzDwMjISNe33QtuHf6DaGRkBLlcDvl8Hul0umm+DAqqQQxBy6nbdVSVZzno5NFHH21YtlwuY3t7G2fOnGlKJ5lM4sEHH3Qd9EO9xUDWJZlMBsDtk8HLcisrK9Zdr99vXEgkEqjX6xgZGcGrr76KUqmEubm5ULcRxOrqKq5du9aQl7iSF9jTp09HnJPOyIDk9RsnNE1DNpvFpUuXmuZNTU0BAN5++21rmkx3bGzMV756VUflU5Q9z7/5zW8a5sltX716FRcvXrSmlctlzM7OAmj95Oj2FGkYRng7Qo162ZAZV0Haq+VIJU3TrBFisnMcuDNiyz76zf6pVCoN82Sfk33AiL3vwjAMazuVSqWhT6rVNvyyb1/VH2eapiiVSoHenbFDCH1k9v2uVqu+yhO2AQtyJKhzVJtzcIvsI7QfX9n3U61WrfLox1GL7V54Vg0SkYNC7P1o2Wy2aTSilzJvV0fT6bQAvI1ibFdHM5mM1Y+reiFajqBU5afVyEO5jBNHLXYdB3t4EbRSVSoV62Kn63rDEGP7BaNSqVgXCl3XrZPXeRK1miYvlHAZWOG2DT9UJ7a9XOT/mUwm8LBpe1qdBjK3/HopT3nRlBe0TCbTdFGsVCrWfHmRch5fOdjFMAxrWpSBTAYM++CFVsfUTjU8XY7cswd/ezl5LXMhWtdRwzCEruuuQ+Rb7Ytqf2RA1zSt6WV9ec6qPs4RuaptO8kbHD/fisJA5st6QoiQe1MH0Pr6OiYmJkLveCZ3iUQCa2trGB8fj2TbAPr+eMvmO78vm8vmurNnz4aep25LJpPI5XJRZ8OXVCqFQ4cO+SpvXnN82WAfGdEeMzMzg2vXrqFYLEadFV+KxSLOnTsXdTZ8KZfLKJfLmJmZiTorA42BjMjG+fVKg2hoaAjLy8u4fPly28FI/WJzcxOHDx9uGgbfz3Z2drC4uIjl5eWGr22j8DGQ7XGqn+iI0892hO3IkSPKvwfN8PAwVlZWcPXq1aiz4snJkydx9OjRqLPhSz6fx4ULFzA8PBx1Vgbe/qgzQNFiG3yjvVQeQ0NDsewniwuWbe/wiYyIiGKNgYyIiGKNgYyIiGKNfWQ++P3aHerMyy+/HMkPcsaFHD7Pejl4bt26FXUWYoVPZEREFGt8IvOBTwe9k0gk8NJLL0XyzR5xEfSbPaj/yW/2IG/4REZERLHGQEZERLHGQEZERLHGQEZERLHGQEZERLHGQEZERLHGQEZERLHGQEZERLHGQEZEntVqNSwsLESdjZ5aWFhAvV6POhvUAgNZn2j1o5YLCwvI5/M8mXqkXq939cdEu51+t9RqNczPz+PgwYNW3UylUspl4/TjrPV6HcViEUtLS0gmk03zT506henp6YH9xfBBwEDWJ4QQqFar1v+maUIIASEETp06haWlJZ5MPfL666/HOv1uqNfrmJmZwfPPPw9d12GaJrLZLC5duqQMZvb6XK1W+/oHS9PpNH7605/ihRdeQD6fb5o/MjKCc+fOYWZmhjeTfYqBrI/YfxJ9aGjI+ntkZATLy8sAwJOpy+r1OpaWlmKbfrcsLy9jZGQEx48fB3C7fj799NMAgEuXLmF1dbVpHVmf7fW6H128eBEXL15suczx48fxl3/5l9Z5SP2FgSwmhoeH8b3vfQ/5fL7pjl72WyQSCSSTSWxublrTV1dXreaSfD5vLbO7u9uQhlx/aWkJtVqtqSnIbRv9pF6vY3V11WrKkvsiqZq5nNPS6bR1Vy6n12o15PN5qxyXlpaQSCQwOzuLnZ2djtMHgFQq5dpMF7VarYa5uTmcOHFCOT+dTmNyclIZzFTaHSc/9baX9XJsbAxzc3NsFelHgtpaW1sTvSoqAK7bMk1TABC6rlvTqtWq0DRNZLNZIYQQhUJBABClUklommalt7W1JYQQolKpNKWRTqdFpVKxtmEYRkMeWm2jWwCItbU1X+tomiYymYwQ4k6eNU0Tpmla05zlK8vDPs3tf3s5mqYpdF0XAMTNmzc7Sl8IIQzDEIZh+Nrf0dFRMTo66mudIHK5nABg1RE7uR+yzjjrhKoutztOXutt2PWy1blnz0MulwuUvh+9vOYMgHWWlAf9EshU87PZbNPyAKyLoio91YW1Wq1a/8sLstdtdIPfQCYvYvb92NraEgCsC51M10t5tFtGCCFKpZIAINLpdMfpB9GrQOa8sbGT003TtAKQDOz2+VKYxynsetnuuMgbSfvx7hYGMl8YyLzo50Bmv3t1ftzSc06TTxbZbNa6K7Zrt41u8BvI5D7YyQuPpmkN6YYVyIKuG7dA1iq/zid3Wd4yUDnXC/M4hV0vvazb7XovMZD5ss4+shiRgzwMw7Cmyf4W8fEIR/vHq5deegmapmFychKHDh1qek8ojG102+LiYtM0OWBGNRKNwjc8PIzS/2/vDnlah6I4gP+b4EcQ8A1m55GTJMVBE/REPVOkCAyqAgdp5ibINtdaQoKrIWktgqQSHJ+gT7ycvq50W/vWu/Zm/1+yhGxw72W9vWf0nF6iCEEQrCxKavI46TAvaTcYyDTy/v4OAKVJ93zRQV39fh++7yOKIti2jfF4XHrT6zZ9qGaaJgCUJuJt21bat+r2dTIYDOD7PoIggOu6v15XcZy6PC9pNxjINPH9/Y2HhweYponhcJg973keAGA6nWafgOvuvmAYBn5+fjAYDPD4+IgoijAejxvtQ7WrqysAwOfnZ/acjPXi4kJJn7KAnp2dKWm/KyQgVb3twzTN7B6zoiaPU1vzMn9FhDqiheuZ2tnV9WrJFQBYylVJBWI+9yDylXL5R5IkS69Je/k+8nkMx3GyqrQkSZYS2uv6UAU1c2RSbJB/j56fn5eq3NI0/VVpKIUGwL+KOMm9fH19Ze+DfI8UJEh1Zz6vs037OlYtyrwozklRViRS5ThVnbeb5qXruilQrYpx1bmXx6rFzmKxRxW7mFRlJ6Q8XNfNypDLJEmSLRq2bWcncrGddc/Joir9Ve1DlbqBLE3/Lmye5y0FneKilCRJFkhkQZISblkgpRrRcZylYC+Lovy853mNtd/lQCYBIz8Hy+ZpmWKgl/bWHaeq8zZN189Lx3FS27ZLx5C36rwrkg8lqwJ3kxjIapkbacrM6Cbz+RyWZTGJvEOGYWA2m+Hy8rLtoQBAduNyl+aAXIpbLBbK+5LLddfX18r7atr5+Tl839+6ndvbWxweHu7kPeCaU8uCOTIi2mg0GuHt7Q1hGLY9lFrCMMTNzc3W7cRxjDiOMRqNGhgVNY2BjGiD4vZJ+6jX62EymeD+/h5xHLc9nEpeX19xdHSU7Q/5vz4+PvD09ITJZLK0Byp1BwMZ0QYnJyelX++b4+NjTKdTvLy8tD2USobDIfr9/tbtBEGAu7u7zm9+vM8O2h4AUdcxT/FPr9fTMk+2jX37fXXEv8iIiEhrDGRERKQ1BjIiItIac2Q1FP/ZJKllWRYsy2p7GJ3HeUn7joGsgtPTU8xms7aHQUREJbizBxER6Yw7exARkd4YyIiISGsMZEREpLUDAOq3ziYiIlIj/AMcWbesRLz1HQAAAABJRU5ErkJggg==;" vertex="1" parent="1">
          <mxGeometry x="530" y="70" width="210" height="472.75" as="geometry" />
        </mxCell>
        <mxCell id="tvrvrnsWNNNO1hUHJI35-3" value="" style="shape=image;verticalLabelPosition=bottom;labelBackgroundColor=default;verticalAlign=top;aspect=fixed;imageAspect=0;image=data:image/png,iVBORw0KGgoAAAANSUhEUgAAAT8AAAGdCAYAAABkcnROAAAABmJLR0QA/wD/AP+gvaeTAAAgAElEQVR4nO2dX4gbSX7Hv1rbm7t4iRwfjGMft1kCceLzBhGTgDc5stjnxIehdQnr8azmPGsCsmnBQXbPk4eb9DA72Jgk9Ozuw8IOkp4yEMkz+zTiLndhNMT74BEmIRJ4FjwPDpp1vKghpOXAcTnfpvLgrXapVZK6W63u1vTvAw0z1d1Vv6761bfrX6sSjDEGgiCIeLH2QtgWEARBhAGJH0EQsYTEjyCIWELiRxBELNlvD9ja2sJ7770Xhi0EQRAjYW1trSusq+X32Wef4eOPPw7EIMIdH3/8MR49ehS2GZGmVquhVquFbQYRER49etRTz7pafhyZUhLhkkgk8M477+DSpUthmxJZJicnAZD/Es9YXV3F1NSU9ByN+REEEUtI/AiCiCUkfgRBxBISP4IgYgmJH0EQsYTEjyCIWELiRxBELCHxIwgiloQmfvPz85ifnw8r+VhDed9JIpHoOGQYhoGlpaWALYsXS0tLaLfb0nNOysgtsW35tdttz5loGAbm5+etgiiXyz5bt7cZJu9HCWMMst/2NQwDCwsLOHjwoFXmvV4e9koaxefktNtt1Go1FAoFpNPpoeLa3d1FLpdDIpFALpfD5uam9LpKpYJ0Oo10Oo1KpdJx7ty5c5iZmYFhGF339SqboWA2bt++zSTBe4719XVPz9lqtdjW1pb1f6lUYgCYrut+micFALt9+/bI0xk1XvPeCRcvXmQXL150dQ+AnvaYpskURbHK3DRNq8w1TZPe02q1GADWarXcGR8wmqYxTdP6Pr8TTNNk6+vr1t88f3gYp1QqMUVRmGmazDRNpqoqy+fzHddsbW1Z18hwa2sfPVuNpfhxh/bynKLwcYZ1HqfsBfEbJu+d4Lf46bouFTl+T6lU6hnnuDCs/9pFThZns9lkADrqT71eZwBYvV7vuFdV1Z6NCT/FL5Rur2EYKJfLVlPb/n+lUkEikUA6ncbu7q51DW8yA0ChULCa2Ds7O1bcsu6GPUzXdavJ7bZrcvr06Y7/+RiFpmmu8iAsopr3URyHNAwDs7OzOHPmjPS8ruvIZDKOhz3a7TbK5bL13IVCoaOL56QsxGuXlpas8726mUGgKIo0XFVV6++7d+8CAI4dO2aFHT16FABw7969jvsmJycxOzsr7f76igul9A3+5ufpiP/zNwN/U6iqyhh7rvjiNbzpDIA9ePCAMfa8ywHJW0cMs//vhWazaXUbePqjBD60/KKa97wLNix+tvx497zZbErvYYxZ5W9vvcjiUxTF6ua1Wi2mKEpHF89JWYj38lZntVqV2uAUP+qCiGmaXd1e7iuytBVF6Qjjz+ykRTmISHZ7nVQIJ9fwprPYTPYalxvESm1Pf1T4IX48nnHO+374KX5c2Hrdw1hnN158Adrv4wIljgNubW11dZ2d5B8fU7Nf4/Xl4Xd5VKvVrnG7XmnIwrl4yuoUid8I43JLvV63Kol98NZvoiZ+fsflB36KXz87xXDe4lUUxRI3+32ylg+v5GLLx0n+iS1E++EFv8tDnCAalIZf4b2I3JjfXiKVSmFmZgYAcO3atZCtIcJgYmIC9XodlUoF2WxWulZteXm5KyyZTAJA15KPQfDr2ZfLP8QjbMrlMhRF6Rob7zUuCHSODQbJnhG/sDIQAI4fPx5a2lEgzLyPCqlUCuvr66hUKtB1ves8r/yyQXyv+SdONkWBRqOB7e1tXL16teuc7Pn5JM6pU6eCMdDG2Isfd4ALFy6EZgN/05dKpdBsCIMo5P0o4SLW66sDO4qioFQq4ebNm13npqenAQAPHz60wni8/Kf3nZLP5wEAKysrVhxhf4FiGAY2NjZw48YNK6zRaCCXywEAzp8/D6Dz+R8/ftxxzs7IV1C46CP7hjgr2Gq1Ov7ng6R8PIRfw1j32irTNJmmaV2zRfZZSD6wDDyfNePjJq1Wy9VkhaIoTNd1awaQ2+DHTOUg4MOYX1TzfpxmewctYpZNlPCJEXFcsFQqdc3iOikL8Trx4Hbqus4AZ7O/YvyyhcVO4uKzzzKbxBnbfD7PVFXtu8iZsT0+2yvLJPGQXSOG1et1K7Pz+XxXoTWbTes8z0C+NIA7EJ+p1DTN1Up8XiH4oeu6dOHzKPBD/KKa91EUPy4yYvn2yjM79pcCjy+fz3e8SGQzooPKgrHOZVaqqnYItKZpTFVVqQ2y5+73PE7i4i882WFfAsbrj6IorFqtSuPjL0xZvRx78fOK2wffa/ghfsOkPQ55P4ovPIJYxjQKBolfWHENQtO0vfuFB0GMC9lsFnfu3Bm7vYBrtRrm5uYiF9cgGo0GGo0GstnsyNMaG/GzfwZEBEec8z6ZTKJYLOLWrVtoNBphm+OIzc1NHD58uGu5SdhxDWJnZwfLy8soFovWMqBR0nPT8qhx5MiRjr+Zz2uanH7f63e648Co8z4qcB+wP9/ExARWVlZQLBaRSqXCMM0VZ8+ejWRcg6hUKlhcXMTExETXuVH8NNjYiN+oK9xerdB+sNfzxsnzJZNJXL9+PQBr4ku//B2FD45Nt5cgCMJPSPwIgoglJH4EQcSSnmN+Ud57IM5MTU1hamoqbDMiD/kvMYie4nf79u0g7SAcMDU1hbfffhuvvfZa2KZElvfffx8A8M4774RsCREFtra28MEHH0jP9RS/S5cujcwgwhtTU1N47bXXqGz6sLa2BoD8l3hOL/GjMT+CIGIJiR9BELGExI8giFhC4kcQRCwh8SMIIpaQ+BEEEUtI/AiCiCUkfgRBxBISPyL2JBKJjkNG2LujxYGlpaWeO+U5KSO3DC1+dqP8NM4t7Xa7I+0o2Tbu2PN23OJ3Auux8bdhGFhYWMDBgwctH5qfn5fGMU7+1m63UavVUCgUkE6nh4prd3cXuVwOiUQCuVwOm5ub0usqlQrS6TTS6XTXZu3nzp3DzMyM9NfCe5XNMAwtfowxmKZp/W+aZmg/fvnJJ590/M8YQ6vVsv4P07Zxx5634xa/V9rtNrLZLK5cuQJVVWGaprU3r0wARZ9rtVqR9jdd1/GjH/0I165d6xIiN7TbbTQaDXz00UcwTROvv/46vv3tb3fFWS6XUSgUsLKygpWVFfz4xz9GoVCwzqdSKczNzSGbzTreK3koXOx21BeEvLsX3xdVZkPYtvkFQtq9rV/eRi3+UezeJttSk9/D9zGWnR8Xhq0fTvbX5XvxituA8i1M7XsCq6o63ru3GYaBcrlsNacrlQoSiQTS6TR2d3eta3gzGAAKhYLVbN7Z2bHiknUh7GG6rltvGq/djXa7bdnAuzZ8rEdMTxz7Ec+Jz8XD0+m01QUQn7fdbiOXy/XsPvlFu91GuVy2bCwUCh3dCq95G0TZzc/Pjzx/+mEYBmZnZ3HmzBnpeV3XkclkUC6XHcU3qCyc1BnxWpmPhYGiKNJwVVWtv+/evQsAOHbsmBV29OhRAMC9e/c67pucnMTs7OzoN8tyoZR9gU2RxR3cudpz9ee71PPz4jV8J3cIGx6LO9RzeFximP3/QeF2eLqtVqvLVr6RMv9fRFEUa4Nlvns9bxFUq9Wuzb7589brdWl8vYCHlp+iKCyfz3fYpiiKtVm217wNouy8bGTuZ8uPb7Atbggu3sNt5OUrOy8yqCyc1BnxXpmPecFp/XCKaZoMQEeLkPuFLG37nsD8mZ20KAcRyKblMqOchMmu4c1hsenrNa5+4Xb47vS97tN1vasy1Ov1jq5PqVSS2skrMY+TO7wb3IofrxRcmBl7LuKizV7zNoiyc4uf4seFrdc9jHV22bngi+c5fpbFIB9zi9/iV61WO0S9XxqycC6esq7vnhc/p9f5LX6cZrNpCZ14H6/Y/O3N2DNBFMVQfHvbDy+22J/DjfjJ3rbcscS3rZ/i5/XeKIpfP5vEcN66FXsA9vv8LItBPuYWv8VPUZSOsb1+afgV3gsSPxcZls/nmaIo7MGDB9L7uBObpml189ykFaT4jTpvSfyew1+MvMUzDnk1ivhKpVJH44DTbzJSNvQThPhFepGzOGA6SnK5HIBnU/HXrl3Dhx9+iOPHj/e16Z/+6Z/wySef4MqVK9LrxEH/sOAD0bKB41HnbVBlFxVSqRTW19dRqVSg63rX+VGURRR8TKTRaGB7extXr17tOid7fj6Jc+rUqWAMtBFJ8eOFeuHChZGnVavV8PrrrwMAMpkMAODll1/ueX0qlYKqqshkMigUCjh9+nTH+Xw+DwBYWVmx1iqF9XXA9PQ0AODhw4dWGLdpcnJyJGkGWXajhouY0zVniqJYawDt+FkWUfIxjmEY2NjYwI0bN6ywRqNhNSzOnz8PoPP5Hz9+3HHOjqZpozL3GS6aiT3hzXwA0llEHiZeJ46NAM8HfU3TZJqmdc0A2WcR+WAxhGYzb1q3Wi1rsFQ228jhcfBZMn5/s9ns6PaKg9TifbLmvZieeDSbzb62OAEuu718MF4ciyqVSl3dDK95O+qyi+psLy9Hu19wZBMlTsrCaZ3p52OMPZ+YczL7K6u7Ik7i4rPPMpvEGdt8Ps9UVe0YMpLVobGZ7ZU9sOyQXSuGiUtB8vl8V0E0m03rPM8UPt3PnYKPu2ia1tNBZAdPy34/n/2VLXXg44Iyms2mVQHE+8U07QLhNK/dLnVptVosn893CJUfeSs+zyjKjrHwxY/7kDh438u37cjKd1BZOK0zjPX2Mcaer1oY5GP96qqbuPjLTXbY6wh/oSiKwqrVqjQ+/nKUvVwiJX7DMkxLKCxkEx1B4EX8RkkUy24UX3j0+tog6nh5wQYR1yA0TRvvLzz2MqurqyMbMyOiRTabxZ07d1Cr1cI2xRW1Wg1zc3ORi2sQjUYDjUYD2Wx25GmFKn72T3uizPz8fMdnbGfPng3bpFAZp7IbhmQyiWKxiFu3bqHRaIRtjiM2Nzdx+PDhrsm4sOMaxM7ODpaXl1EsFpFMJkeeXs9Ny4PgyJEjHX8/a9VGEz4DnM/npVP5cWOcys4p/Jti+7NMTExgZWUFxWIRqVQqDNNc4eeLOciXfKVSweLiIiYmJrrOjeKnwUIVv3GqMFevXiXRExinshuEk2dJJpO4fv16ANbEl375Owp/ozE/giBiCYkfQRCxpGe3d3V1NUg7CIdsbW2FbUKkefToEQDyX+IZ/epLgtk606urq5iamhq5UQRBEEEhGTNc6xI/gggC/pIl9yNCYo3G/AiCiCUkfgRBxBISP4IgYgmJH0EQsYTEjyCIWELiRxBELCHxIwgilpD4EQQRS0j8CIKIJSR+BEHEEhI/giBiCYkfQRCxhMSPIIhYQuJHEEQsIfEjCCKWkPgRBBFLSPwIgoglJH4EQcQSEj+CIGIJiR9BELGExI8giFhC4kcQRCwh8SMIIpaQ+BEEEUtI/AiCiCUkfgRBxBISP4IgYgmJH0EQsYTEjyCIWELiRxBELCHxIwgilpD4EQQRS/aHbQCx9/nv//5vbGxsdITVajUAwNraWkf4wYMHceHChcBsI+JLgjHGwjaC2Nv8/Oc/x8TEBP7nf/5n4LUzMzP4h3/4hwCsImLOGnV7iZHzla98BW+88QZefPHFgddmMpkALCIIGvMjAmJ6ehq/+MUv+l5z6NAhnDt3LiCLiLhD4kcEwtmzZ/G1r32t5/kDBw5genoaBw4cCNAqIs6Q+BGBsG/fPnzve9/r2fV9+vQpdXmJQCHxIwIjk8n07Pr+xm/8Bv74j/84YIuIOEPiRwTG6dOn8fLLL3eFHzhwAFeuXEEikQjBKiKukPgRgXL58uWucT3q8hJhQOJHBMrly5fx9OnTjrDf+q3fQiqVCskiIq6Q+BGBcuLECfzu7/6u9f+BAwfwl3/5lyFaRMQVEj8icN566y2r6/v06VNMTU2FbBERR0j8iMDJZDL45S9/CQD4/d//ffz2b/92yBYRcYTEjwicV155BX/wB38AALhy5UrI1hBxhcSPCIW33noL+/btw6VLl8I2hYgprn7SanV1lcZnCF85duxY2CYQewS3P1Dl6ff8bt++7eU2YgRMTU3h7bffxmuvvRa2Ka55/PhxIOL3/vvvAwDeeeedkadFBM/W1hY++OAD1/d5Ej/qqkSHqakpvPbaa1QmfeA/mEp5tHfxIn405kcQRCwh8SMIIpaQ+BEEEUtI/AiCiCUkfgRBxBISP4IgYgmJH0EQsYTEjyCIWELiB8AwDJTLZaTT6bBNCY35+XnMz8+HbUYkMQwDS0tLYZuxp1laWkK73Q40TRI/AAsLC8hkMqhUKoGlubu7i1wuh0QigVwuh83NzcDSjiLtdjuSe3gYhoGFhQUcPHgQiUQCiUSi50uCnxePqNJut1Gr1VAoFIZ+6Tv15UqlgnQ6jXQ63VXXzp07h5mZGRiGMZQtrmAuuH37NnN5y9gAILBnM02Tra+vW3+XSiUGwApzAwB2+/Ztv00MnPX19ZHl/8WLF9nFixdd32eaJlMUhW1tbVn/87LSNE16T6vVYgBYq9UayuZRo2ka0zRtaL936sulUokpisJM02SmaTJVVVk+n++4Zmtry7rGDR51aZXE70uCFD+ZyHlNfy+IHxeZqImfrutSkeNlVSqVpPeNUx0Z1u+d+HKz2WQArJcIY4zV63UGgNXr9Y57VVVluq67ssGr+AXS7eVjJolEAul02moW28faKpWKdc3u7m5HHO12G+Vy2epOFAqFrnRk18ia0eJ16XQaOzs7ru3mTfh2u41cLudqvExRFGm4qqqO4/ATezk4KRcxDwCgUChY3R4xP2VdQHuYrutWN0gMD3Mc0jAMzM7O4syZM9Lzuq4jk8mgXC47im+Qb7qpC738Mgyc+PLdu3cBdP582dGjRwEA9+7d67hvcnISs7OzwXR/R62wrVaLKYpivSWr1aql+PxtD+GtwN8Sqqp2xKMoSsdbWFXVrreyoihWU5qnK2tGK4rCVFW1wnlTXXw2N3bX6/Uue91gmmao3V7xeez/9yoXfl68hndnALAHDx4wxp53AyFpCYhh9v8Ze941GxYvLT/eDW82m13nuJ2822hvvcjqyCDfdFoX+vmlF2T5PgwyX+Y+IUtbUZSOMP7MbupCZLu9XFhEIIyZyDLfHsbjEMdR+PgAhzuB/RrYuifcqXnlZOx5gcnSHGS32/EJGdVq1dNYB7fDj26vEzFycg3vzohdF69x+YUX8ePCJoOHi9110Z/s9zn1TTd1wX6N15eE3/ku8+VeacjCeV100/WNrPiJbzT7wZizAncyHiR7u/CMFEWy31tIlqYbu70iDqq7JWri53dcfuBF/PrZI4bzlq2iKJa42e9z6ptu6kIvv3SL3/ku82U34ufFpsiK36AH8atiDFMRvaTpl9OUSqWuWS83kPgNZpTix9jz1i5v8Qx61l7hYeSTn/H18uVejRege3jLi02RnvAA0HNSwQl8ULXRaAy8RjZQOsxEwjB2D6LRaGB7extXr14dWRphEdbkTRikUimsr6+jUqlA1/Wu86PwzVH6pRf6+bLs+fkkzqlTp4IxUMLIxS+fzwMAVlZWrBXcblfM88xbXl624uALKznT09MAgIcPH1ph/NrJyckue/oJqV9298MwDGxsbODGjRtWWKPR6HimcYRXygsXLoRsyXBwEXP61YGiKCiVSrh582bXOae+6YRR+6UXBvny+fPnAXQ+/+PHjzvO2dE0bVTmPsdNO9HrbC8k4xPNZrPjHB8gFScf+BgKn+ES71dVtWvSgs+g8ftKpVJXs5rPJimKYs3k8QFpCM1wp3Z7QfY8/HA74wsfur3i87RaLcflwv/ng/amaTJN07pm8OwzwHywX8xvnh+tVssa7I7ibO+gRcyyiRInvummLvTyS8aerU0EnM3+ivHLJtucxOXUl/P5vLXCotciZ8b22GwvY88eiDuFqqpWQdkzq1cYY88ymcehaVqH8InX5PP5jkopK9Rms2lVSFVVO5YPiE7txG57RXcCT1t2yJ6rH36IXy9bBpUL/1tc/pPP57vyvNlsWue5U9vzm4+baZpmhYUpflxkxMH7XnljR+YTg3zTTV3o5ZeMPcszVVUH+mW/snYTlxtf5i8URVFYtVqVxsdfjG6+kIm0+BGjww/xGybtcfCHYb7wcPu1QVTw8lIOIq5BaJq2t77wIIhxJJvN4s6dO6jVamGb4oparYa5ubnIxTWIRqOBRqOBbDYbSHokfoQn7J9m7UWSySSKxSJu3bo1cIIsKmxubuLw4cM4ffp0pOIaxM7ODpaXl1EsFpFMJkeeHuBx03JCjtOfMGKMjdiS0XPkyJGOv/fCM8mYmJjAysoKisUiUqlU2OYM5OzZs5GMaxCVSgWLi4uYmJgILE0SPx/ZqwIgI07Pmkwmcf369bDN2NOEkb/U7SUIIpaQ+BEEEUs8dXtXV1f9toMYgq2trbBNiDSPHj0CQH67V/Hq/wnmYvBmdXUVU1NTnhIiCIIYJS7Hodc8tfziNNgddRKJBG7fvo1Lly6FbUpk4d/Prq2thWwJMQq8NspozI8giFhC4kcQRCwh8SMIIpaQ+BEEEUtI/AiCiCUkfgRBxBISP4IgYgmJH0EQsYTEzyWGYaBcLiOdTodtChEQYW8QFAeWlpYcbxblF6GKXyKRcHREiYWFBWQyGVQqlbBNCZ12uz3S8hl1/E4wDAMLCws4ePCg5Y/z8/PSa6PuuyLtdhu1Wg2FQmHoFznfSTGRSCCXy2Fzc1N6XaVSQTqdRjqd7qo/586dw8zMTLA/jBvAb+X3RdxBys6DBw8iuUdEL3vDACHu4cE3pIl6/F738OC7rvFNjEzTZKVSydpoScag3d2iAt8calhfNk3T2pRKzB/77mulUsna1L3X7m1bW1vWNW4Y6w2M+hVAVERGhMTvuTCMKh/8jH+YDYxkIsfLn2/ZKTs/Lgzry7ItJu1x8u0oxZ3w+G599m0xVVWlDYx4l4F9+SMK9rG2SqWCRCKBdDpt7f7OabfbKJfLVtejUCh0xS+7RtbkFq9Lp9PWptx2+LgQv443/Q3DsJr77XYbuVyuZ7cpKAY9u6zbZg/Tdd3quvBw8VkBoFAoWF0hMd+8xg8A8/PzgeSfYRiYnZ3FmTNnpOd1XUcmk0G5XHYU36A8d+PfvXwtDBRFkYarqmr9fffuXQDAsWPHrLCjR48CAO7du9dx3+TkJGZnZ4Pp/gagsANBjzeFiLgxMn+D8OvsG5MritLxxlZVtesNriiK1ezm+/bKmtyKolibLTPGrGa9aJ+47y9jzzdBF/ez5XbX6/Uue4cBHlp+g55dtik7z2sxrNf/YhnxLg6EfVy9xs+Yt718/dy0nNvFbeHlLDsvMijPnfp3P1/zgiyPh4EPY4ktQl7+srTt22LuuU3LByFWGvHodV2/MC5O4pgLH0vgcIexXwNbV4ZXAHHzZdkYJU/TbhevpPx6t2MZTnArfk6f3UleO7mGseddHLE74zV+L3gRPy5sMni42DUXfcR+n595PsjX3OK3+FWr1a5GhJv6zOuXm67vnhA/jqzlJ7tOFuZknEj2JuKZLopkvzeWLM1eAu63g9ltcSN+Tp/dT/Hzem+Y4tcvbTGct2IVRbHEzX6fn3k+yNfc4rdvihNEg9JwG96LPSV+PMzpdW4rzDAV1EuaURK/UYtT3MSPsectW97iGYc8GUV8pVKpawaXsd4NEqB7yMqLTXtuwoN5/LVoPgDbb5Npfo1sUFUcqHVLr8mQKDGqZ3fCqOMPi1QqhfX1dVQqFei63nV+FHkeNV9rNBrY3t7G1atXu87Jnp9P4pw6dSoYAyVEVvw4u7u7rmb3eEYvLy9bK8b5IkzO9PQ0AODhw4dWGL+W/+Q5AOTzeQD9hVS8bmVlxYonql8FOH12P+EV9cKFCyOJfxRwEXP61YGiKCiVSrh582bXOT/zPIq+ZhgGNjY2cOPGDSus0WhYde78+fMAOp//8ePHHefsaJo2KnOf46adGPQi52azyVRVZVtbWx0zhHwwVbyXj7fw2TAeji+b1vZJCz7bxu8rlUpdTXA+9qgoijXrxwevITTZRdvEo9lsSmc2/QQuu71On90+Q8sH6MXn5vncarWsAWp+DR/IN02TaZrWNavnNf6wZ3sHLWKWTZQ4yXM3/t3L1xh7tjYRcDb7K8Yvm4xzEpesvvFDnLHN5/PWqolei5wZi9FsryzDZIdYSKKQyMIYe1Yg3Ak1TesQPvGafD7fUVllDsAFmFdKcamBWAGazaaVpqqqljOK9tkFwA/cih9jzp692WxaTs0d0f7cfKxL07SOwX5eYfj9+Xzet/iDEj8uMuLgvcw3ZcjKeVCeu/HvXr7G2LP8UVV1oK/1qmsiTuLidUN22Osdf6EoisKq1ao0Pv4SdPOFzFiKHzE8XsRvlIyyleuVYb7wcPu1QVTw80U7ipd2LzRNoy88CCJsstks7ty5g1qtFrYprqjVapibm4tcXINoNBpoNBrIZrOBpEfiR/iG/XOtcSeZTKJYLOLWrVsDJ72iwubmJg4fPozTp09HKq5B7OzsYHl5GcViEclkcuTpASR+hI8cOXJE+vc4MzExgZWVFWxsbIRtiiPOnj2L48ePRy6uQVQqFSwuLmJiYiKQ9ABgf2ApEXse5nFtZtRJJpO4fv162GbsacLIX2r5EQQRS0j8CIKIJSR+BEHEEk9jfqP6DIrwxvvvv4+1tbWwzXDFz3/+czx58iSQAW6+VIX8dm/y6NEjT/clmItR6q2tLbz33nueEiIIkUePHqFWq+HixYthm0LsEVw2ANZciR9B+MXq6iqmpqb27AwxEXnWaMyPIIhYQuJHEEQsIfEjCCKWkPgRBBFLSPwIgoglJH4EQcQSEj+CIGIJiR9BELGExI8giFhC4kcQRCwh8SMIIpaQ+BEEEUtI/AiCiCUkfgRBxBISP4IgYgmJH0EQsYTEjyCIWELiRxBELCHxIwgilpD4EQQRS0j8CIKIJSR+BEHEEhI/giBiCYkfQRCxhMSPIIhYQoIrjLgAACAASURBVOJHEEQsIfEjCCKWkPgRBBFLSPwIgoglJH4EQcQSEj+CIGIJiR9BELFkf9gGEHufzz//HH/1V3/VEfbZZ58BAC5dutQR/sorr+Dv//7vA7ONiC8kfsTIOXr0KP71X/8V//Ef/9F1bm1treP/v/mbvwnKLCLmULeXCIS33noLBw4cGHhdJpMJwBqCIPEjAiKTyeDp06d9rzlx4gROnjwZkEVE3CHxIwLhd37nd/B7v/d7SCQS0vMHDhzAlStXAraKiDMkfkRgvPXWW9i3b5/03C9/+UtMTU0FbBERZ0j8iMCYnp7GF1980RWeSCTwh3/4h3jllVeCN4qILSR+RGAcO3YMf/RHf4QXXuh0uxdeeAFvvfVWSFYRcYXEjwiUmZkZ6bjfxYsXQ7CGiDMkfkSgTE5OdojfCy+8gDNnzuDIkSMhWkXEERI/IlAOHz6Mc+fOYf/+5+vrZ2ZmQrSIiCskfkTgXL58Gf/3f/8HANi3bx+++93vhmwREUdI/IjA+e53v2t97aEoCpLJZMgWEXGExI8InJdeeslq7V2+fDlka4i44usPG/z0pz9Fu932M0pij/Kbv/mb+NVf/VX87Gc/w+rqatjmEGPAyZMn/f38kfnIiRMnGAA66KCDDt+PhYUFP+Vq1fdu78LCAhhjdPh0LCws4MSJE6HbMYrjZz/7mS/x3L9/HwBw//790J+JjtEcJ06c8FuqaMyPCI+vfvWrYZtAxBgSP4IgYgmJH0EQsYTEjyCIWELiRxBELCHxIwgilpD4EQQRS0j8CIKIJZERv1qthlwuh0QigTfeeAM//OEPkU6nwzZrzzA/P4/5+fmwzYgkhmFgaWkpbDP2NEtLS5H79DUS4re5uYnXXnsNP/zhD8EYw+bmJv72b/8WlUrFcRztdrvrF4JlYUFiGAbm5+eRSCSQSCRQLpdDsyVswi6LXhiGgYWFBRw8eNAqp14vCX5ePKJKu91GrVZDoVAYuhGxu7trNUxyuRw2Nzel11UqFaTTaaTT6a66e+7cOczMzMAwjKFs8RXmIydOnPD0/Z2qqsxuCr78ns8p6+vrXdfLwoKi1Wqxra0t6/9SqcQAMF3XXcWzsLDATpw44bd5gTPKsrh//z4DwO7fv+/qPtM0maIoVjmZpmmVk6Zp0ntarRYDwFqt1tB2jxJN05imaa7rkR3TNNn6+rr1N88fHsYplUpMURRmmiYzTZOpqsry+XzHNVtbW9Y1bvGqLX1YjYT4yQrITaFxJxavl4UFiSh8HC+OuBfEb9Rl4VX8dF2Xihwvp1KpJL0vLJ/ywrDiZxc5WZzNZpMB6PD5er3OALB6vd5xr6qqrhsAjI1G/ELt9tq7Dv26Eu12G4VCoaNrwpvQuq5bzWx+XhbG4WM8iUQC6XTaasYbhoFyuWx1EyqVinXN7u6uq2c7ffp0l/0AoGmaq3j8wP5cTp7TMAyrGwPAyvtcLoednR0rblkX0B7WqyzCHIc0DAOzs7M4c+aM9Lyu68hkMo6HKtrtNsrlsvV8hUKho4vnxrd6+WcYKIoiDVdV1fr77t27AJ7tzsc5evQoAODevXsd901OTmJ2djYa3V8/pXSULT/eNW61WtabRlVVV3Ew9qzboiiK9VavVqvWG4q3TiC8xWRpuaXZbFpdkAcPHri614+Wn/hc9v97PSc/L17DuzPic/BuICQtATFMVha8azYsXlp+vBvebDa7znE7eZnZWy+yaqMoitXN4z4mdvGc+lY///SCLN+HwTTNrm6vbNiKp60oSkcYf2ZZi7Ifse72aprWV+ycih8fs7Bfxyuh03icIgoBQhzz85Jfsmt4d0Z8Dq9x+YUX8ePCJoOHi9118aVlv48LlDgOuLW11dV1dpJPg/zTLX7ne7Va7Rq365WGLJyLp9t6EGvx4zSbTabrumfxE9/A9sOtLW6o1+tWhbMPBPcjauLnd1x+4EX8+tkjhvOWraIolrjZ75O1fHglF1s+TvJpkH+6xe98FyeIBqXhNrwfe27Mzy2FQgHf//73e45DOIGPPTHJDyaOklQqZW3ReO3atZGmRfjHxMQE6vU6KpUKstmsdK3a8vJyVxjflMnNci3x+qD90wnlchmKonSNZ/erj+LYYNQYG/Erl8u4du0aPvzwQxw/fnzo+MRB+6Dww+6oEGWn9ptUKoX19XVUKhXout51nld+2SC+13wKwz/70Wg0sL29jatXr3adkz0/n8Q5depUMAZ6YGzEL5PJAABefvnloeLJ5/MAgJWVFestHtQKf55eqVQaeVqjglfKCxcuhGzJcHARc/rVgaIoKJVKuHnzZte56elpAMDDhw+tMB7v5OSkK7vC9M9eGIaBjY0N3LhxwwprNBrI5XIAgPPnzwPofP7Hjx93nLMTxqqHLvzsRHvpl/MBdEA+g8jHWfhYSLPZZA8ePOh5vtVqWYOpsjAxbvFoNpsd5/iALh+7EdNygqIoTNd1azbRNE1Ps5t+jPnZ89Ppc/L/+aA9fwb7DJ59BpgP9gPPZzJlZRHF2d5Bi5hlEyV8YkQcFyyVSl2zuE7yvJ9/Msas8W4ns79i/LKFxU7i4rPPMpvEGdt8Ps9UVe27yJkxmu21kGWo7GDsuUhqmsZarZY1+8udwn6+VxhjnUtPxDhk6crCnMArFz90XZcufB6EH+LnJH/7hYnLgPL5fFdFajab1nnu1Hy5Rr+yCFP8uMiIZdIrb+zYxZ/Hl8/nO14YshlRJ77Vyz8Ze77qQWaDSL+ydhMXf7HJDvuyLe7ziqKwarUqjY+/GN1+IbPnxI8YTJhfeLgV/LAY5gsPL18bRIFB4hdWXIPQNI2+8CCIsMlms7hz5w5qtVrYpriiVqthbm4ucnENotFooNFoIJvNBpLeIEj8CCn2T7P2IslkEsViEbdu3UKj0QjbHEdsbm7i8OHDXctNwo5rEDs7O1heXkaxWLSWAYXN/rANGDec/owRi8C6rGE4cuRIx9/j/jy9mJiYwMrKCorFIlKpVNjmDOTs2bORjGsQlUoFi4uLmJiYCCzNQZD4uWSvioCduDwn8KwFeP369bDN2NNEMX+p20sQRCwh8SMIIpaQ+BEEEUt8HfN7+vQp1tbWsL297We0sebTTz/F559/7vozqTjx5MkTAMAPfvAD/Nqv/VrI1hCjoNVq+R4ntfwIgoglvrb8Dhw4gMnJSbz77rt+Rhtr3n33XayurmJtbS1sUyLL9vY2Xn31Vbz33ns4efJk2OYQI+Cb3/ym73FSy48giFhC4kcQRCwh8SMIIpaQ+BEEEUtI/AiCiCUkfgRBxBISP4IgYgmJH0EQsWRPiJ9hGCiXy0in02GbQuxhwt5FLYosLS053gEvakRW/BKJhKMDABYWFpDJZFxtEN1ut7t+mFQWFndGnSfjkueGYWBhYQEHDx60fG9+fl56bS8/jSK7u7vI5XJIJBLI5XLY3NzsuqZSqSCdTiOdTnfVsXPnzmFmZmYsf+07suLHGINpmh3/i0e1WrXOffTRR67j/+STTxyFxZ1R58k45Hm73UY2m8WVK1egqipM07T28JUJIGPM+hC/1WpF9odh2+02Go0GPvroI5imiddffx3f/va3OwSuXC6jUChgZWUFKysr+PGPf4xCoWCdT6VSmJubQzabHbsWYGTFD0Df3/of5ie42+12RwH2Cos7o86Tcclz/hP3fK+LZDKJN998EwBw8+ZNlMvlrnv4z7VH6Wfb7XzyySdQFAVA5zPx4aPd3V1kMhnMzc0hmUwimUxCVVVcu3atY8+T06dP4+tf/zqKxWLwDzEEkRa/XvBuRL83Kq9YYheFN811Xbfebvy8LAx4Ps6TSCSQTqetboF9nLFSqVjX7O7ujubBXdBut1Eul61nKRQKHV0TWZfMHibLE8MwrG4QACuPc7kcdnZ2ho4fAObn53t2KYPGMAzMzs7izJkz0vO6riOTyUgFUMagcnHjV7180ylc+OyoqgoAuHv3LgDg2LFj1rmjR48CAO7du9dxz+TkJGZnZ8er++vnRpij2LcXkg2dZWbbr+ObLbdaLeseVVV7Xi8L47vVl0olxhhj1Wq1axNvCBtfy9IZFq/79iqKwvL5fMdzKIpibaTNN+2W5a0Y1ut/8blN07Tym29k7TV+xtxvZu51314n8I24xY3DOdxuvsF4vV6XnhcZVC5O/aqfb3rFNM2Ojed5mcqe277XL7eR3+s3sdy0XKxs4tHrOg7fjb7XeSfiVyqVpNfwiukkjmHxIn68IrRaLStsa2uLAbAqSy9bveQTY4zV63UGoGNDaq/xu2WU4seFTQYPN03TEi0u/uJ5jp/lMsg3vVCtVjuE2GldY+y5cI5qE/hYix/HactPvF7XdU+VWnwLy8Q3quIne2Nz5xTf2H6Kn9d7oy5+/ewTw3lLV1EUS9zs9/lZLoN80wuKolitzV52eAn3g1GI39iN+b388suOry0UCvj+97/fc2xjEHw8itlmmllEZ+84y8vLXWF88sjNciDCORMTE6jX66hUKj1nPv0sF799s1wuQ1GUjg3M+9UbPi44zoyd+AFwVMDlchnXrl3Dhx9+iOPHjw+VnjiQPw5wp5UNPo/aafdCpfBKKpXC+vo6KpUKdF3vOj+KcvHDNxuNBra3t3H16tWOcJm9fNLl1KlTQ6cbNmMpfk7IZDIA3LUU7eTzeQDAysqK9SYfh1X+09PTAICHDx9aYdz+UW2ExCvhhQsXRhJ/WHARc7qGTVEUaw2gHT/LxS/fNAwDGxsbuHHjhhXWaDSQy+Vw/vz5LnsfP34MANY5O5qmuUo/VPzsRPvdL+fjIQCsQVgZ4swiH2/hYyLNZpM9ePCg5/lWq2UN0trDxHjFo9lsdpzjton2ioPaw+BlzI8PwIvjT6VSqWsW2j5Dywffgeczi7J84tfwQXrTNJmmaV0zgF7jH4fZXl7+vcpZNlHipFyc+lU/32SMWePc/WZ/+YyxLB4+a5vP55mqqsw0TWtWn89Wi9Bsr48Gygqkl1bLruGzj5qmsVarZc3+cuewn+8V1mw2LUcW75el6cRWt3hd6tJqtVg+n+8QKvsLpNlsWs7PnZYvn+iXJzxOcclPPp/3Lf4oiR8XGdlEwKCytr8MeHz9ysWNX/XyTcaer3aQ2cDhLyfZIc5a8xeAoiisWq1K4+IvNr9e+nZiJX7EM7yK3yjxU9z9YJTix9izVtSolnCMmn7i5yeapo00j2i2lyBCIJvN4s6dO6jVamGb4oparYa5ubmRp9NoNNBoNJDNZkeelp+Q+BGusH+KFQeSySSKxSJu3brV8U1rlNnc3MThw4c7lq6Mgp2dHSwvL6NYLPb9Fj+KkPgRrjhy5Ij0773OxMQEVlZWsLGxEbYpjjh79uzQS7ycUKlUsLi4GOkfcOjF/rANIMYLFvEF3qMkmUzi+vXrYZsRKcY5P6jlRxBELCHxIwgilpD4EQQRS3wf81tcXMTi4qLf0caeKO8DERVeffXVsE0gxghfxe/9998fu9/xJ8Jha2sLH3zwAW7fvh22KcSYcPLkSV/jS7A4T98RobG6uoqpqalYzx4TobJGY34EQcQSEj+CIGIJiR9BELGExI8giFhC4kcQRCwh8SMIIpaQ+BEEEUtI/AiCiCUkfgRBxBISP4IgYgmJH0EQsYTEjyCIWELiRxBELCHxIwgilpD4EQQRS0j8CIKIJSR+BEHEEhI/giBiCYkfQRCxhMSPIIhYQuJHEEQsIfEjCCKWkPgRBBFLSPwIgoglJH4EQcQSEj+CIGIJiR9BELGExI8giFhC4kcQRCwh8SMIIpaQ+BEEEUtI/AiCiCX7wzaA2Pt8/vnn+MY3voEvvvii61wikej4//XXX8e//Mu/BGQZEWeo5UeMnKNHj+Jb3/pWl9DJyGQyAVhEECR+REDMzMzghRf6u9u+fftw8eLFgCwi4g6JHxEIb7zxRl/x27dvH/70T/8UX/va1wK0iogzJH5EIBw6dAjf+c53sH+/fJiZMYaZmZmArSLiDIkfERiXL1+WTnoAwIEDB5BOpwO2iIgzJH5EYKTTaXz1q1/tCt+/fz/+/M//HC+99FIIVhFxhcSPCIyvfOUr+Iu/+AscOHCgI/yLL77A9773vZCsIuIKiR8RKNPT03j69GlH2EsvvYTz58+HZBERV0j8iED5sz/7M/z6r/+69f+BAwfw5ptv4sUXXwzRKiKOkPgRgbJ///4OsXv69Cmmp6dDtoqIIyR+ROBkMhn84he/AABMTEzgT/7kT0K2iIgjJH5E4HzrW9/CsWPHADj78oMgRgF5HRE4iUQCly9fBgC8+eabIVtDxJVAftXlBz/4AT777LMgkiLGBNM08dJLL+Hv/u7vwjaFiBiXLl3C5OTkyNMJpOX3k5/8BJ9++mkQSREAPv30U/zzP/9z2Gb05dChQzh58mRo6T958gQff/wxnjx5EpoNRDc//elPsb29HUhagf2e3+TkJN59992gkos17777LlZXV7G2tha2KZFle3sbr776Kt57771QRZjo5Jvf/GZgadGYH0EQsYTEjyCIWELiRxBELCHxIwgilpD4EQQRS0j8CIKIJSR+BEHEEhI/giBiyViJn2EYKJfLtNdDQMzPz2N+fj5sMyKJYRhYWloK24zIsbS0hHa7HbYZjhgr8VtYWEAmk0GlUgnbFE/s7u4il8shkUggl8thc3Oz6xrDMFAoFJBIJJBIJFAul0OwNBq0221HG50HjWEYWFhYwMGDB61y6vWS4OfFI6o48U8AqFQqSKfTSKfTXXXx3LlzmJmZgWEYQZg8HCwATpw4wRYWFnyJCwALyGxfMU2Tra+vW3+XSiUGwArj4YqisHw+zxhjrNVqMUVRmKZprtJaWFhgJ06c8M/4kFhfXx9ZWd+/f58BYPfv33d1Hy+jra0t639elr3KqdVqMQCs1WoNbfeocOKfjDFWKpWYoijMNE1mmiZTVdXyV87W1pZ1jVv81IoBrJL4BYTdiRjrfhbucKLT1Ot1BoBVq1XHae0F8eMiEzXx03VdKnK8LEulkvS+qPusE/9sNpsMgCX8jD33z3q93nGvqqpM13XXdgQpfpHu9rbbbZTLZSQSCaTTaezs7Eiv4+Mv/DreXLePEVYqFeua3d3djjj4/YVCAYZhdHVPeqXhFEVRpOGqqlp//+M//iMAIJlMWmGvvPIKAAT+IwX2vHOSl4ZhWF0iAFb3PZfLdZSdrAtoD9N13epSieFhjkMahoHZ2VmcOXNGel7XdWQyGcdDFaJ/i74npufUf4Pwz7t37wKA9UO0AHD06FEAwL179zrum5ycxOzsbLS7v0FIrFc1VxSFqapqtYR4y0g0m3cN+Ru3Wq1abyLecoDwtuJvL1VVrTh0XWfNZpMx9qzFoWma4zS8YppmV7fC/myDwnvhR8tPzDv7/73ykp8Xr+FdIwDswYMHjLHn3UBIWhVimOy5NU1zPQwgw0vLj3fDua+IcDu579h9Q1Z+siEOsbvo1H+D8k9ejrJnVxSlI4zbKWtR9oO6vey5o/EKw9jzAhELgAuiCITxF1kFklUycTyGV06naXihWq12jYvYRaKXvYPwq9vrRIycXMO7RmI3yGtcfuFF/OwvRREeLnbXxXK038cFSvS7ra2trq6zk3wKyj/dvJx5XXXb9SXxY/3fMmK4+Ha0H7LrZWE8rVKpJB2kHZSGF8RBcw53frG1KxOOQURN/PyOyw+8iF8/e+w9Bd4a4uJmv0/m31wwxFaUk3wKyj/diF+/8H7QmB+A5eVlR9fxcSHGWNfhlHfeeQeKoiCTyeDQoUNd67f8SEOkXC5DURScPn26I/z06dOoVqv4z//8Txw6dAiFQgH/9V//BeDZEgJiPJiYmEC9XkelUkE2m5Wue5P5Nx/rdbuUKyj/7DUuCHSODY4LkRU/t/SaDHHC8ePHsb6+jnq9DlVVMTs7K13AOkwanEajge3tbVy9elV6/uzZs1hfXwdjDFevXsW///u/Q9M0pFKpodMOm3GsIF5JpVJYX19HpVKBrutd57mQyCYEvObTqP1TZjOfeDl16tTQaQdNZMUvn88DeFYYTq5bWVmx3rBuV98nEgm0222kUil89NFHqNfrmJ2d9TUNfs/GxgZu3LhhhTUaDeRyOen15XIZd+7c6bBlHOGV8sKFCyFbMhxcxJx+waAoCkqlEm7evNl1jm/U/vDhQyuMx+t2856g/PP8+fNdNj9+/LjjnB1N01zZEChBdK699OP5bJGiKNbsGh8khjDbJc4cikez2ew4x8fQxEkTcTxG0zQrnWaz2THG1i8Np/AZOVk89oXO9Xrd8zopxvwZ8xOfudVqucpLCIP2fPbcPhton9zh451i2fL8arVaVl5EcbZ30CJm2UQJnxgRxwVLpVLXLK6TPB/kn7quM6D/7K9T/8zn89aYdK9FzozRbK+F1wdqNptWJVFVtWNKX3S0ZrNpOZiqqlah2wuxXxivYOgxudArDafw55AdXAD4//l8fqhlCn6IXy9bneQlr2i8MuXz+a6JpGazaZ3nFcRetnyyR9M0KyxM8eMiI04E9MobO3bx5/Hl8/mOF4ZsdnVQnjPW3z81TWOqqkpt4DjxTw5/CSiK0nPxPX+Zuf2qhcSPGIowv/DoJwBRYpgvPLy2yMOmn/j5jaZp9IUHQewlstks7ty5g1qtFrYprqjVapibmwskrUajgUajgWw2G0h6XiHxI3zD/mnWXiSZTKJYLOLWrVsDJ+OiwubmJg4fPty1dGUU7OzsYHl5GcViseMzzShC4jcksp8sGqefMfKTI0eOSP/ea0xMTGBlZQUbGxthm+KIs2fP4vjx44GkValUsLi4iImJiUDSG4b9YRsw7jCPC0n3InHKi2QyievXr4dtRuQYpzyhlh9BELGExI8giFhC4kcQRCwJZMzvf//3f7G4uIjFxcUgkiMAvPjii7GZaBmGV199NWwTCIFf+ZVfCSytQMTvwIEDuHjxoutvFglvrK2toVar0e5iffjss88wOzsLXdfxjW98I2xziC/567/+68DSCkT8XnjhBZw8eRKXLl0KIrnY8+mnn2J7e5vyuw/b29uYnZ3Fd77zHZw8eTJsc4gveffddwNLi8b8CIKIJSR+BEHEEhI/giBiCYkfQRCxhMSPIIhYQuJHEEQsIfEjCCKWkPgRBBFLSPwIwge87JY27iwtLTneyS6K7Anx6/cjoktLS6hUKmNdSONGu90e6XfFo47fLYZhYGFhAQcPHrT8bn5+XnrtOP3QbbvdRq1WQ6FQQDqd7jp/7tw5zMzMjO2vdu8J8WOModVqWf+bpmntWH/u3DkUCoWxLqRx45NPPhnr+N3QbreRzWZx5coVqKoK0zStvXplAij6aqvVivQPwOq6jh/96Ee4du0aKpVK1/lUKoW5uTlks9mxbFzsCfED0PGz2eLeAalUCsViEQDGtpDGiXa7jUKhMLbxu6VYLCKVSln7YySTSbz55psAgJs3b6JcLnfdw3016j/1fuPGjY4NzGWcPn0aX//61606Nk7sGfHrx8TEBN5++21UKpWuVgMfq0kkEkin09jc3LTCy+Wy1dyvVCrWNbu7ux1x8PsLhQIMw+jqyvRKI2q0222Uy2WrO8afhyPrqtnDdF23Wgk83DAMVCoVKy8LhQISiQRyuRx2dnaGjh8A5ufne3Y1R4VhGJidncWZM2ek53VdRyaTkQqgjEH578Yng/S5yclJzM7Ojl/PKogNMoPaixN99ozlO92rqmqFiZugM8ZYtVrt2nAbwibVfBd6MQ5d160Nok3TtDaOdpLGqPC6b6+iKCyfzzPGntutKIq1kTbftBu2zbLtYb3+F/PSNE1ro2y+KbbX+Blzv5m51317Rfjm3bIN7Ll93B/s5S3z00H579Qn/fa5fvVKtIFvPj8MtGm5RwYVkv18qVTquh6AVYlk8ckqorgrPa/ATtMYBV7Ej1cQ8Vm2trYYAKsSMeY8TwZdwxhj9XqdAejY3Npr/G7xQ/zsLzoRHm6apiVaXOTF8xw/899vnxuU37xh4cdm7iR+HnErfuKb1H70is8exlsvpVLJekOLDEpjFHgRP/4cItypFUWxwvwUP6/3RkX8+tlhb/3zfOTiZr/Pz/z32+ec3OuXTwcpfrEY8wNgTXRommaF8bEj9uXMsHg45Z133oGiKMhkMjh06FDXWi8/0giC5eXlrjA+cSSb6SOcMzExgXq9jkql0nPSzc/8HxefC5vYiN+//du/AYB0cFocdHfL8ePHsb6+jnq9DlVVMTs7K13sOkwaQaAoCgBIB61VVR1p2qOOPwqkUimsr6+jUqlA1/Wu86PI/6j7XNjEQvwMw8AHH3wARVFw9uxZKzyfzwMAVlZWrLex25X6iUQC7XYbqVQKH330Eer1OmZnZ31NIwimp6cBAA8fPrTCuL2j2nuFV84LFy6MJP5Rw0XM6fIpRVGsNYB2/Mz/sHxO7FWNBUF0roPox/PxEQAdY2985lYcb+GIs4vi0Ww2O87x+MQ0xLEbTdOsGb9ms9kx8NsvjVHhZcyPD8yL+VQqlTpmERljXTO0fFAeeD7jyMecWq2WlRf8Gj54z2fGxfGsYeKP0mwvL3O7v3FkEyVO8t+pTw7yOV3XGeBs9rdXvRKh2d4+jPqBZAXND13XrWUBMprNpuWMqqpaDmKPp18Yr4Q8PadpjAqvS11arRbL5/MdQmV3+GazaYkPd3a+rIJXPj6Lq2lax0uCVzh+fz6f9y3+MMSPi4zoXzIflGEXfR5fv/x36pOM9fc5TdOYqqpSG0R61Sk7/AXVS+zdQOJHDIVX8Rsl/YQgDPwQP8aetaL8WOIRBoPEzymapvmWBzTbSxBjQjabxZ07d1Cr1cI2xRW1Wg1zc3NDx9NoNNBoNJDNZn2wKlhI/IiRY/9Eay+RTCZRLBZx69YtNBqNsM1xxObmJg4fPmx9j+yVnZ0dLC8vo1gswK9klwAAAMNJREFUdnxPPy6Q+BEj58iRI9K/9woTExNYWVnBxsZG2KY44uzZszh+/PjQ8VQqFSwuLkb+Bxp6sT9sA4i9D4vB4tpkMonr16+HbUagjPvzUsuPIIhYQuJHEEQsCazbu729jdXV1aCSizXb29t48uQJ5XcfPvvsMwDAT37yE2xvb4dsDcF58uRJcIkFsaDmxIkTfRci00EHHXTwI6h1fgnGYjAaTRAE0ckajfkRBBFLSPwIgoglJH4EQcQSEj+CIGLJ/wPr9u/uZDNkbQAAAABJRU5ErkJggg==;" vertex="1" parent="1">
          <mxGeometry x="180" y="70" width="365.34" height="473" as="geometry" />
        </mxCell>
        <mxCell id="tvrvrnsWNNNO1hUHJI35-4" value="" style="shape=image;verticalLabelPosition=bottom;labelBackgroundColor=default;verticalAlign=top;aspect=fixed;imageAspect=0;image=data:image/png,iVBORw0KGgoAAAANSUhEUgAAAT8AAAJ/CAYAAAAOFtRaAAAABmJLR0QA/wD/AP+gvaeTAAAgAElEQVR4nOydXWwb2X32H67Xm6RehFsHkPYDsRfbxq3qFkqDJtCmRRd23XcTA8NtEcsyFctGAa5BAl00u9ZNVQqKIcP9ALXJhYEVSN5sdUGu5CsS6baAJdR7sSKCFhABawH7wl3KzgbkTWY2SBDESc574ZzxkBySM+RwZqjz/ICBxDMz5/zP1zPna+ZEhBAChBCiFhtPBG0BIYQEAcWPEKIkFD9CiJJQ/AghSvJkq8P29jbefvvtIGwhhJChsLGx0ebW1vK7f/8+bty44YtBxB03btzAgwcPgjYj1FQqFVQqlaDNICHhwYMHHfWsreUnsVNKEiyRSARvvvkmzp49G7QpoWV6ehoAyy95xPr6OmZmZmzPccyPEKIkFD9CiJJQ/AghSkLxI4QoCcWPEKIkFD9CiJJQ/AghSkLxI4QoSWDit7i4iMXFxaCCVxqmfTORSKTpsKPRaGBlZcVny9RiZWUFhmHYnnOSR25RtuVnGIZniZjL5TzzSwW8THsvEULA7tu+jUYDS0tLOHTokFn5Oj08WitpGOMpMQwDlUoFuVwOsVhsIL/29vaQSqUQiUSQSqWwtbVle125XEYsFkMsFkO5XG46d+rUKczNzaHRaLTd1ylvBkK08N577wkb531HqVTyJJ47OzsCgC9pBkC89957Qw9n2HiV9nacOXNGnDlzxtU93fJP13WhaZrY3t42fxcKBQFApNNp23vq9boAIOr1ujvjfSadTot0Oj1w+dV1XZRKJfN/mT7STVIoFISmaULXdaHrukgmkyKbzTZds729bV5jh1tbu+jZupLiJwv0oPHUdd2TwuOU/SB+XqV9J7wWv0wmYyty8p5CodDRz1Fh0PLbKnJ2ftZqNQHAfIgI8bjhsLOz03RvMpkUmUzGE1u7iV8g3d5Go4FisWg2tVt/l8tlRCIRxGIx7O3tmdfIJjPwuKuZSqVw9+5d02+77karWyaTMZvcg3RN8vk83njjjb7uDYqwpn0YxyEbjQbm5+dx4sQJ2/OZTAbxeBzFYtGRf4ZhoFgsmvHO5XJNXTwneWG9dmVlxTzfqZvpB5qm2bonk0nz/w8//BAA8Pzzz5tuzz33HADghz/8YdN909PTmJ+ft+3+eooLpfQM+eSX4Vh/yyeDfFIkk0khxGPFt14jm84AxJ07d4QQj7scsHnqWN1af7tlc3PTtGNQv5wCD1p+YU172QUbFC9bfrJ7XqvVbO8RQpgt/9bWi51/mqaZ3bx6vS40TWvq4jnJC+u9stW5ublpa4NTvC6/uq63dXtlWbELW9O0JjcZZyctyl6EstvrpEI4uUY2na3N5H79ckq9Xm8aqxgl8ZP+jGra98JL8ZPC1ukeIZq78fIhYD0vkQJlHQfc3t5u6zo7ST85ptZ6Tb8PD6/zY3Nzs23crlMYdu5SPO26vhS/IfrlhNZBWlXFz2u/vMBL8etmp9Vdtng1TTPFrfU+u5aPrOTWlo+T9LO2EFuPfvA6P6wTRL3C8Mq9E6Eb8xtlyuUyXn311aDNICFibGwMOzs7KJfLSCQStmvVVldX29yi0SgAtC356IW8Xvx2+Yf1CJpisQhN0zA1NdXk3mlcEGgeG/STfSN+fiVgLBbD0aNHOw7uq0hQhTdMTE5OolQqoVwuI5PJtJ2Xld9uEL/f9LNONoWBarWK3d1dvP76623n7OIvJ3G+8pWv+GNgCyMvfrIAnD592pfwuj1tw/Dk9RO/095vpIh1euugFU3TUCgUcPXq1bZzs7OzAIB79+6ZbtJf+el9p2SzWQDA2tqa6UfQb6A0Gg3cvHkTy8vLplu1WkUqlQIAs7dkjf8nn3zSdK6VdDo9LHMBBCR+rdP71t8yM60FrvVpKZcWGIaBtbU1aJrW1KyWT1JZOa0b2sjMsD6JVHptKaxpH8alLseOHQPQLn4yTexacefOnbOttN/85jehaRquXbtm3vf+++8jmUzi5MmTbf51y4vXXnsNAHD16lU888wziEQiGB8fN0VULoGpVqs942j1307knfjVaDSQSCQwPz/f1CP68pe/bD4Yjxw5gmw2i3fffReGYcAwDLz77rvIZrM4cuRIk3+yRfi1r32tp/0D4WKA0DPQYbAWlsHMbm47OzvmoG82m21bDV6r1czzcrpcLg2QA9JypjKdTg+8Eh8uB2EHCWfQCY+wpn0Yl7rIiQzr4H2nNGuldfmG9C+bzZr3FQoF2xnRXnkhxKN0lrPRyWSyaTlOOp0WyWTS1ga7eHeLjxO/5GSO3WGdARfi8fIhTdPE5uamrX9yFtyuXrqta6Gc7e0Hv0QmrHghfoOEPQppP4w3PDq9bRB2eolfUH71Ip1O7983PAgZFRKJBG7dujVyewFXKhUsLCyEzq9eVKtVVKtVJBKJoYc1MuLXOlZF/EPltI9Go8jn87h27ZqjMbQwsLW1hcOHD7ctNwnar17cvXsXq6uryOfz5jKgYdJx0/KwMT4+3vS/8Hhm1ekyFa/DHQWGnfZhQZaB1viNjY1hbW0N+Xwek5OTQZjmCjmBEja/elEul3HlyhWMjY21nRvGMrKREb9hV7j9WqG9YL+njZP4RaNRXL582Qdr1KVb+g6jDI5Mt5cQQryE4kcIURKKHyFESTqO+an6nmrYmZmZwczMTNBmhB6WX9KLjuL33nvv+WkHccDMzAy+853v4OWXXw7alNDyve99DwDw5ptvBmwJCQPb29v4/ve/b3uuo/idPXt2aAaR/piZmcHLL7/MvOnCxsYGAJZf8phO4scxP0KIklD8CCFKQvEjhCgJxY8QoiQUP0KIklD8CCFKQvEjhCgJxY8QoiQUP6I81k13Or0Wp9pGV0GwsrLScac8J3nkloHFr9UoL41zi2EYbfvohsW2Uac1bUfNfyeIDht/NxoNLC0t4dChQ2YZ6rTT3CiVN8MwUKlUkMvlEIvFBvJrb28PqVQKkUgEqVQKW1tbtteVy2XEYjHEYrG2zdpPnTqFubk526+Fd8qbQRhY/IQQ0HXd/K3remAfv/zggw+afgshUK/Xzd9B2jbqtKbtqPnfL4ZhIJFI4OLFi0gmk9B13dyb104ArWWuXq+HurxlMhn84Ac/wKVLl9qEyA2GYaBareKdd96Brut45ZVX8Fd/9VdtfhaLReRyOaytrWFtbQ3/8R//gVwuZ56fnJzEwsICEomE472SB8LFbkddQcC7e+m6bm6Z2ErQtnkFAtq9rVvahs3/YezeZrelprynUCh09HNUGLR+yC1Ku/lZq9XatgGVW5ju7Ow03ZtMJkd797ZGo4FisWg2p8vlMiKRCGKxmLkpcaPRMJvBAJDL5cxms9z0GoBtF6LVLZPJmE+afrsbhmGYNsiujRzrsYZnHfuxnrPGS7rHYjGzC2CNr2EYSKVSQ9+o2zAMFItF08ZcLtfUreg3bf3Iu6A3Mm80Gpifn8eJEydsz2cyGcTjcXMj9170ygsndcZ6rV0ZCwLrpvVW5Ab2APDhhx8CAJ5//nnT7bnnngMA/PCHP2y6b3p6GvPz88PfLMuFUnYFLYosn+SwqL1U/2Qy2XSP9Rpd181NkOWGx3LzaNg8Saxurb97ubciw63X6222yo2U5W8rmqaZGyzX63Vzk24hhNjc3Gzb7FvGd2dnx9a/TqCPlp+maSKbzTbZpmmauVl2v2nrR971s5G5ly0/ucG2dUNw6z3SRpm/duet9MoLJ3XGeq9dGesHp/XDKbquCwBNLUJZLuzCbt0TWMbZSYuyF75sWm5nlBM3u2tkc9ja9O3Xr27urcjd6Tvdl8lk2irDzs5OU9enUCjY2ikrsfRTFng3uBU/WSmkMAvxWMStNvebtn7knVu8FD8pbJ3uEaK5yy4F33pe4mVe9CpjbvFa/DY3N5tEvVsYdu5SPO26vvte/Jxe57X4SWq1mil01vtkxZZPbyEeCaJVDK1P79ajH1ta4+FG/OyetrJgWZ+2Xopfv/eGUfy62WR1l61baw+g9T4v86JXGXOL1+KnaVrT2F63MLxy7wTFz0WCZbNZoWmauHPnju19shDrum5289yE5af4DTttKX6PkQ9G2eIZhbQahn+FQqGpcSDpNhlpN/Tjh/iFepGzdcB0mKRSKQCPpuIvXbqE69ev49ixY11tev/99/HBBx/g4sWLttdZB/2DQg5E2w0cDztt/cq7sDA5OYlSqYRyuYxMJtN2fhh5EYYyZqVarWJ3dxevv/562zm7+MtJnK985Sv+GNhCKMVPZurp06eHHlalUsErr7wCAIjH4wCAI0eOdLx+cnISyWQS8XgcuVwOU1NTTeez2SwAYG1tzVyrFNTbAbOzswCAe/fumW7Spunp6aGE6WfeDRspYk7XnGmaZq4BbMXLvAhTGZM0Gg3cvHkTy8vLplu1WjUbFq+++iqA5vh/8sknTedaSafTwzL3ES6aiR2RzXwAtrOI0s16nXVsBHg86Kvrukin020zQK2ziHKwGJZms2xa1+t1c7DUbrZRIv2Qs2Ty/lqt1tTttQ5SW++za95bw7MetVqtqy1OgMturxyMt45FFQqFtm5Gv2k77LwL62yvzMfWciGxmyhxkhdO60y3MibE44k5J7O/dnXXihO/5OyznU3WGdtsNiuSyWTTkJFdHRqZ2V67CNsddtda3axLQbLZbFtG1Go187xMFDndLwuFHHdJp9MdC4jdIcNqvV/O/totdZDjgnbUajWzAljvt4bZKhBO09rtUpd6vS6y2WyTUHmRttb4DCPvhAhe/GQZsg7edyrbrdjlb6+8cFpnhOhcxoR4vGqhVxnrVlfd+CUfbnZHax2RDxRN08Tm5qatf/LhaPdwCZX4DcogLaGgsJvo8IN+xG+YhDHvhvGGR6e3DcJOPw9YP/zqRTqdHu03PPYz6+vrQxszI+EikUjg1q1bqFQqQZviikqlgoWFhdD51YtqtYpqtYpEIjH0sAIVv9ZXe8LM4uJi02tsJ0+eDNqkQBmlvBuEaDSKfD6Pa9euoVqtBm2OI7a2tnD48OG2ybig/erF3bt3sbq6inw+j2g0OvTwOm5a7gfj4+NN/z9q1YYTOQOczWZtp/JVY5TyzinyneLWuIyNjWFtbQ35fB6Tk5NBmOYKLx/Mfj7ky+Uyrly5grGxsbZzw/g0WKDiN0oV5vXXX6foWRilvOuFk7hEo1FcvnzZB2vUpVv6DqO8ccyPEKIkFD9CiJJ07Paur6/7aQdxyPb2dtAmhJoHDx4AYPklj+hWXyKipTO9vr6OmZmZoRtFCCF+YTNmuNEmfoT4gXzIsviRgNjgmB8hREkofoQQJaH4EUKUhOJHCFESih8hREkofoQQJaH4EUKUhOJHCFESih8hREkofoQQJaH4EUKUhOJHCFESih8hREkofoQQJaH4EUKUhOJHCFESih8hREkofoQQJaH4EUKUhOJHCFESih8hREkofoQQJaH4EUKUhOJHCFESih8hREkofoQQJaH4EUKUhOJHCFESih8hREkofoQQJaH4EUKUhOJHCFGSJ4M2gOx/fvKTn+DmzZtNbpVKBQCwsbHR5H7o0CGcPn3aN9uIukSEECJoI8j+5he/+AXGxsbw05/+tOe1c3Nz+Pd//3cfrCKKs8FuLxk6n/3sZ/Gtb30LTz31VM9r4/G4DxYRwjE/4hOzs7P45S9/2fWaZ555BqdOnfLJIqI6FD/iCydPnsQXvvCFjucPHjyI2dlZHDx40EeriMpQ/IgvHDhwAN/+9rc7dn0fPnzILi/xFYof8Y14PN6x6/vss8/iz//8z322iKgMxY/4xtTUFI4cOdLmfvDgQVy8eBGRSCQAq4iqUPyIr5w/f75tXI9dXhIEFD/iK+fPn8fDhw+b3F566SVMTk4GZBFRFYof8ZWJiQn84R/+ofn74MGD+Lu/+7sALSKqQvEjvnPhwgWz6/vw4UPMzMwEbBFREYof8Z14PI5f/epXAIA//dM/xZe+9KWALSIqQvEjvvPiiy/iz/7szwAAFy9eDNgaoioUPxIIFy5cwIEDB3D27NmgTSGqInxiYmJCAODBgwePjsfS0pJfkrTu6/f8zpw5g+npaT+DHAk2Njawvb2Nt99+O2hTfOWTTz7B888/7+ja+/fvY35+HplMBl/84heHbBkJgrfeesvX8HwVv+PHj7ObY8NHH32E3d1dpk0Xdnd3MT8/j2984xs4fvx40OaQIfDd737X1/A45kcIURKKHyFESSh+hBAlofgRQpSE4kcIURKKHyFESSh+hBAlofgRQpQktOLXaDRQLBYRi8WCNmVkWFxcxOLiYtBmhJJGo4GVlZWgzdjXrKyswDCMoM1wTGjFb2lpCfF4HOVy2fE9hmH4vg9EtVpFJBIxj1Qq5Wv4YSKI9HdCo9HA0tISDh06ZOZTp4eENS/lEVYMw0ClUkEulxu4kbC3t4dUKmWW4a2tLdvryuUyYrEYYrFYW908deoU5ubm0Gg0BrLFN/x6i3hiYsL1S8v47cvOTimVSq6u94JsNtv0YnapVHLtx9LSkpiYmBiCdf4yzPS/ffu2ACBu377t6j5d14WmaWJ7e9v8XSgUBACRTqdt76nX6wKAqNfrA9s9TNLptEin067rSSu6rpvl1po+rWW5UCgITdOErutC13WRTCZFNpttumZ7e9u8xi39aMQArO8b8ZOF3G/x60fsWtkP4jfs9O9X/DKZjK3IybJVKBRs7/O7HA3CoOJnV4Zb/azVagKA+RARQoidnR0BQOzs7DTdm0wmRSaTcW2H3+IX2m5vJ1ZWVhCJRJDL5dBoNMxuSSaTMZvhsrvSOm5YLpfNZv3e3h4AoFgstrk5ZW9vD7FYDIuLi6hUKh7G0j2tce0U91gsZsaz0WiY3RgAyOVyZlrcvXvX9NuuC9jqZpf+QLDjkI1GA/Pz8zhx4oTt+Uwmg3g8jmKx6Mg/wzDM8mItg9bweqW59VpZlmOxWMduph9ommbrnkwmzf8//PBDAGj6Cs9zzz0HAPjhD3/YdN/09DTm5+fD3/31S2a9aPllMhlRq9WEEI9aGrLJ3+l62RKB5em0vb0tAIhkMmk+xeRTLZlMurJPdvPkoWlaX10lL1p+1ri2/u4UT6vt1m5hMpkUAMSdO3eEEI+7gbBpCXRLfyEed80GpZ+Wn8wfWWasSDtlGWptvdhVDU3TzG5evV4XmqY1dfGcpLn1Xtnq3NzctLXBKXbpPgi6rrd1e2WZsAtb07QmNxlnt70idnst2FUuq7jIStnp+kHdnKDrutjZ2TErUesYiBO86vY6ESMn18jujLXr0q9fXtGP+LU+HK1Id2t3XYq99bxECpS1/MkHqbXr7CSd5Jha6zX9PiS8TvfNzc22cbtOYdi5S/F02/Wl+FloTVj59CkUCrYDqkGIn5VsNtv2FHRC2MTPa7+8oB/x62aP1V0+RK0t99b77Fo+spJb89xJOllbiK1HP3id7tYJol5huHXvBsf8uvDmm29C0zTE43E888wzoVu3dfbsWVdLc0g4GBsbw87ODsrlMhKJhO1atdXV1Ta3aDQKAK7zXF4vhGg7gqZYLELTNExNTTW5dxoXBJrHBkeJkRK/Y8eOoVQqYWdnB8lkEvPz86ESwGg0OrIFwY79FJdeTE5OolQqoVwuI5PJtJ2Xld9uEL/fdLJOKoWBarWK3d1dvP76623n7OIvJ3G+8pWv+GOgx4yU+EUiERiGgcnJSbzzzjvY2dnB/Px80GaZGIaxL/YokZXy9OnTAVsyGFLEnL51oGkaCoUCrl692nZudnYWAHDv3j3TTfrrNs+z2SwAYG1tzfQj6DdQGo0Gbt68ieXlZdOtWq2ai/ZfffVVAM3x/+STT5rOtZJOp4dlrieEVvxalxBIMpmM+cT53d/93aantPXptLKy0nSftZC1+tsprG4Ui8Wm5Ql7e3v44IMPcPLkSUf3e01rHOzibhWB1njK5R6GYWBtbQ2apjV1dWTrRgqjdWmPrCCt6Q8Eu9Tl2LFjANrFzy7fJefOnbOttN/85jehaRquXbtm3vf+++8jmUyaee40zV977TUAwNWrV/HMM88gEolgfHzcFFG5BKZarfaMo9V/O5F34lej0UAikcD8/HzTEqYvf/nL5gPwyJEjyGazePfdd2EYBgzDwLvvvotsNosjR440+Sfr59e+9rWe9geKX6OLbgczYTMQjN/OtmUyGdvZJDlLmU6nm5ZntPrhxK0X1mUu6XS672UKQngz4dEaB7dx39nZMQfis9ls24RSrVYzz8slDHK5hpwkaE1/IYJd6iLLgHXwvlPatGI3cVWv15ve6GmdeHNTtmq1mjkbnUwmm5bjpNNpkUwme06edctrN37JyRy7wzoDLsTjcq9pmtjc3LT1T86Cu132xdleBQnyDQ83gh8kg7zh0c/bBmGgn5UDfvjVi3Q6zTc8CAmaRCKBW7duBf4GjlsqlQoWFhZC51cvqtUqqtUqEomEL+ENAsVPYfoZ6xw1otEo8vk8rl275mgMLQxsbW3h8OHDbctNgvarF3fv3sXq6iry+by5DCjM+Lpp+ajg9DNGIgTrsgZhfHy86f9Rj08nxsbGsLa2hnw+j8nJyaDN6YmXk2Z+TsCVy2VcuXIFY2NjvoU5CBQ/G/arCLSiSjyBRy3Ay5cvB23GvmbU0pfdXkKIklD8CCFK4lu39ze/+Q12d3exvr7uV5Ajw+7uLn76058ybbpw//59AMB//ud/Ynd3N2BryDD42c9+5m+Afi2qeemll3ouxFX5eOqppwK3gQePII/PfOYz+3Od32c+8xksLS3ZfslC9WNpaQm/93u/F7gdYT5u374NALh9+3bgtvAYzvHSSy/5JUcAOOZHCFEUih8hREkofoQQJaH4EUKUhOJHCFESih8hREkofoQQJaH4EUKUhOJHlCDoDYJUYGVlxfFmUWEgtOJn3UjFenSjUqkglUohEokglUpha2sLhmE03dfJXydHt68BVyoVV7aGidY0GjX/e9FoNLC0tIRDhw6ZedNpUyW3ZS5IDMNApVJBLpdDLBbzzN9qtWr62S3+uVyu6fypU6cwNzc3Mh/GDa34CSFQr9fN37quQwjR8fpKpYKXX34Zr7zyCoQQeOedd/CFL3wBc3NzbdcWCoWm12qsYcqjUCgAAGq1mnn+3Xff7Ri+9Vy9Xu9qa9j44IMPRtr/bhiGgUQigYsXLyKZTELXdXN7SjsBtJa7sOdjJpPBD37wA1y6dMn1xumdWFlZweLiIp599llcv369Y/yr1SouXbrU5DY5OYmFhYWOG7+HjdCKH4CmL8L2+iy2FJ9z586ZbpOTk037kEqs13Tim9/8JgCY2/JlMhmsrq6a2/JZ2dvbw+///u/b2h12DMNALpcbWf97Ib/eLD/jHo1Gzfy/evWquWWnFZl/Yc/H5eVl2/LdL6lUCrqum1uXtm5JKTEMAzdu3LA9NzU1hRdeeAH5fN4zu4ZFqMXPDT/60Y8AoG2fhtbPlltbct2IRqNN1546dQoA8OGHH7Zd++GHH5rn/cQwDBSLRbN7lsvlmrocdl23VrdMJmO2GqR7o9FAuVw2u1Kye5NKpcx9ewfxH/BnP99Go4H5+XmcOHHC9nwmk0E8HrcVQDt6pXej0UCxWDTTrVwuIxKJIBaLtT005RikPG/dAzoIZF4sLy/3bGjk83m88cYbHc9PT09jfn4+/N1f4RP9bkuH337uphdyz1jAft/ZQcKQ5+T+pq0kk0lXtrbS79aVmqaJbDYrhHi0p6ymaULTNDPu1r2LJbVarc2t02/g8Z63uq6b8Zd7ufbrvxDu9/PtZ+tKucesdU9cq03SDgBt+y7b5WOv9Jb7GlvTTaaHLCPWewuFghBCiM3NTVsbnNJvuZPIulMqlcx9iTvty7u5uWnGrVO4Ms5yf2encN/eFtxk7J07d5o2YG7dVLrfMOQ5WUitm2Dv7OyYhcRP8ZO2WDeGlptFy0rVySYn4mTnJiuJdU/Wfv13Sz/iJ4XNDumu67opWtYNulvv8zK9C4WC7TX9bu4+aPpmMpkm8bU+6KxlXW7a3itcXdfbyokTKH4t9JOx29vbTSLY6wnkVPzk/9anuLXA+il+dq1QWeisG1R7KX793huU+HUL1+ouW7Cappni1nqfl+ltbSG2Hv0waPp2e9BZy7pV+HqF249NFL8WBsnY7e1ts6B1E0A34ief2rVaTdTr9Z5PfSf0I37DFieVxE+Ix5VddmPDnh5ObBv0fqt7qVRqGz4YdfEb+QmPVCoF4NFgeuv0+tTUFK5fvw4Anq2D+vrXvw7g0STH1taW+dtvNE0DYL/ZeDKZHGrYw/Y/CCYnJ1EqlVAul5HJZNrODyO9rZNHQSLtt1ueIuMdi8Vw9OjRjpNco8hIi1+lUsErr7xi/v7f//3ftmvkdL3MxEE5cuQI0uk04vE4fvSjH3VcDjBsZmdnAQD37t0z3WThnZ6eHkqYsrKePn16KP57jRQxp2vONE0z1wC24mV6Z7NZAMDa2prpR5BvoEj7P/74Y9NN2iXjLWw+Oy+x/m8lnU4PyWKP8KuN2U+T1m42USIHm+Ugrbxuc3PTnOTQdd3spnaaSbOGYR3Mbj1vPSe7SFY/e/nTjX66vXKg3jpOVSgUmsZohBBtM7Qy3WAZz5FDA/V63RykltfIbr2u6yKdTjeNbw3if5CzvXZ5asVuosRJelvLgLUMtpYL63XWQ9rZOgHRDav/dpN7Tv2SeSttzGazbXndSqe6ydneFtxGzK5w2B0yw2Um3Llzx5yuBx7NoFln8ZyE0e28xFroe/nTi36XusjZN6tQtVaAWq3WNu4pl1nIgi7FPJ1ONw34y0oj77dbQtSv/36InxQZ64yl03yyq/i90tvO305h1Wo1U2STyWSTQKfTaZFMJh2LT7f4OPVLCNEUNyfLxXo1TNw2Aih+CtKv+A0TtwI+bPoRPyEetXzcLrkIC04EKwi/epFOp/tKc054EOIhiUQCt62OcZcAACAASURBVG7d6vpRijBSqVSwsLAQOr96Ua1WUa1WkUgkfAlvECh+pI3WV7ZGmWg0inw+j2vXrrW9+hhWtra2cPjwYfN95LD41Yu7d+9idXUV+Xy+5ytyYYDiR9oYHx+3/X9UGRsbw9raGm7evBm0KY44efIkjh07Fjq/elEul3HlypXQfxBC8mTQBpDwIUL8Gad+iUajuHz5ctBm7GtGLX3Z8iOEKAnFjxCiJBQ/QoiS+Drmt7Gxgd3dXT+DHAk++ugj/OhHPxraa2lh5Be/+AU+/fRTx4Pjn376KQDgrbfewuc///lhmkYC4sGDB76GFxE+jW6/9dZbuH//vh9BkRHgwYMHqFQqOHPmTNCmkBBx9uxZvxoBG76JHyFW1tfXMTMzsy9nlslIsMExP0KIklD8CCFKQvEjhCgJxY8QoiQUP0KIklD8CCFKQvEjhCgJxY8QoiQUP0KIklD8CCFKQvEjhCgJxY8QoiQUP0KIklD8CCFKQvEjhCgJxY8QoiQUP0KIklD8CCFKQvEjhCgJxY8QoiQUP0KIklD8CCFKQvEjhCgJxY8QoiQUP0KIklD8CCFKQvEjhCgJxY8QoiQUP0KIklD8CCFKQvEjhCgJxY8QoiRPBm0A2f/8+Mc/xj/8wz80ud2/fx8AcPbs2Sb3F198Ef/2b//mm21EXSh+ZOg899xz+J//+R/83//9X9u5jY2Npt//9E//5JdZRHHY7SW+cOHCBRw8eLDndfF43AdrCKH4EZ+Ix+N4+PBh12smJiZw/PhxnywiqkPxI77wB3/wB/iTP/kTRCIR2/MHDx7ExYsXfbaKqAzFj/jGhQsXcODAAdtzv/rVrzAzM+OzRURlKH7EN2ZnZ/HrX/+6zT0SieCrX/0qXnzxRf+NIspC8SO+8fzzz+PrX/86nniiudg98cQTuHDhQkBWEVWh+BFfmZubsx33O3PmTADWEJWh+BFfmZ6ebhK/J554AidOnMD4+HiAVhEVofgRXzl8+DBOnTqFJ598vL5+bm4uQIuIqlD8iO+cP38ev/nNbwAABw4cwGuvvRawRURFKH7Ed1577TXzbQ9N0xCNRgO2iKgIxY/4ztNPP2229s6fPx+wNURVAvuwwX/913/BMIyggicBc/ToUfzO7/wOfv7zn2N9fT1oc0hAHD9+PLhXGkVATExMCAA8ePBQ+FhaWgpKgtYD7fYuLS1BCKHcsbS0hImJicDtCPr4+c9/3vHc7du3AQC3b98O3E4ewzkmJiaClB+O+ZHg+NznPhe0CURhKH6EECWh+BFClITiRwhREoofIURJKH6EECWh+BFClITiRwhREorfCLO4uIjFxcWgzQgljUYDKysrQZuxr1lZWRnpV1RHSvwMw+i4+5df4VcqFeRyOcRiscDsCAtB50cnGo0GlpaWcOjQIUQiEUQikY4PCXneeoSVYZW/arVq+tkt/rlcrun8qVOnMDc3h0aj4ZktfhLYhw364YMPPgg0/EwmAwC4evVqoHZIlpeXAw0/6PywwzAMJBIJLCwsYGpqCvF4HO+//765GXprmgkh0Gg0MD4+jnq9jrGxsSDMdsQwyt/Kygpu3bqF119/HdevX0epVLK9rlqt4tKlS01uk5OTWFhYQCKRwNra2sh9mmxkWn6GYSCXywVqw/LycuCCExbCkB925PN5TE5OYmpqCgAQjUZx7tw5AI9Eo1gstt0jBS/Mwgd4X/5SqRR0Xcfa2ho0TcORI0dsrzMMAzdu3LA9NzU1hRdeeAH5fN4zu/xiZMQvk8mgXC4DQFv3xDAMFItF091aKRuNBorFotlNKJfLiEQiiMVi2Nvb8zcSHtIaLyfxbDQaKJfL5jWyG5NKpXD37l3Tb7suYKtbp/wIchyy0Whgfn4eJ06csD2fyWQQj8dtBdAOu3Jl7eK5KVtyDFKe39ra6jOW3iDzaHl5uWeLLZ/P44033uh4fnp6GvPz86PX/RUBMTEx4fpzNvjtZ3Ba0TRNpNNp83cymTR/a5pm3re9vS2EEKJWqwkAIplM9mV7JzucsrS0JCYmJvq+X4jmeLX+7hRPWD4lJK/RdV0kk0kBQNy5c0cIIUS9Xm+Lo/TL6maXDul0uikv+uX27dsCgLh9+7bje0qlkgAgarVa2zlpZzqdFgDEzs6O7XkrmqaJbDYrhHiUJpqmCU3ThK7r5nknZUveWygUhBBCbG5u2trglEHL387OjgAgSqWSyGazAoDQNE1sbm62Xbu5uWnGrVO4Ms6lUsmVHf1ogIesj7z4FQoFAUDU63XTbXt7W2ia1vW+QQpQGMTPzg4n8bS7RlaGTCYzsF9e0Y/4SWGzQ7rrum6KlhR763mJFKjWcgXAFDF5X690kmW09Zp+HxKDpnsmk2kSX+sDUAqdEI9EW4p/t3B1XW8rP06g+LnALvFlQXZ7H8VveH55QT/i180eq7ts2WqaZopb631SDKzISu72wWptIbYe/TBound7AFpbrFbh6xVuPzYFLX4jM+bXCTnuRIhTxsbGsLOzg3K5jEQiYbtWbXV1tc1Njo25LXPyemHzQc+wMDk5CeBxvMvlMl599dUgTRo6Iy9+mqYBeDQVTwYjmUwGbYJvTE5OolQqoVwum0tIrMhyZTeI3286WSeVgkTabyf6Mt6xWAxHjx7tOPm1H9g34re6umpm5t7eHlKpVJBmjRSyUp4+fTpgSwZDipjTtw40TUOhULBdNzc7OwsAuHfvnukm/Z2ennZlVzabBQCsra2ZfgT5Boq0/+OPPzbdpF0y3t1aqZ1arOl0ekgWD4eREj/r01gWnNdeew2apmF1dRXPPPMMIpEI/vmf/xlvvvmmea1EZrC1cridnrfeG+SrPa1LLtzGUy73MAzDXOcl0xd43DqQwlipVMxz8sFilx9BLnU5duwYgPZ8kXG3y+tz587ZVtpvfvOb0DQN165dM+97//33kUwmcfLkyTb/uqW53Kbz6tWrZhkdHx83RUgugXHSe+lV/pz4dfLkSaTTaSwuLpo2rq+vQ9M0c02kG+Synq997Wuu7w2UgAYb+xrslIOy6XS6aRauXq+bM33pdLptFg8tA8x2bk5ovc/t/RIvJjw62dIrnvL/nZ0dcyA+m82ayzcktVrNPC+XMMjlGjLt7fIjyKUuciLDOmPpNL+skxhW/+RSEPx2lteaTm7KVq1WM8toMplsWo6TTqdFMpm0tcGKk/Ln1C8hRFPc7MpAp/BbkbPg1jrphKAnPEZK/PYLXs329kO/gu03/YifEI+WcbhdchEWnAhWEH71Ip1O95XmQYvfSHV7CelFIpHArVu3mrrpo0ClUsHCwkLo/OpFtVpFtVpFIpHwJTwvofgpROs44X4kGo0in8/j2rVrI7MCYGtrC4cPHzbfRw6LX724e/cuVldXkc/nR+6jBsCIfdVlWDiduhchWpfVD+Pj403/j3p8OjE2Noa1tTXzIwdhR06ghM2vXpTLZVy5ciX0H4ToBMUPoy9qTlElnsCjFuDly5eDNmNfM+rpy24vIURJKH6EECWh+BFClCSwMb+HDx9iY2MDu7u7QZkQGB999BF+/OMfu35NSiU+/fRTAMBbb72Fz3/+8wFbQ4ZBvV4PNHy2/AghShJYy+/gwYOYnp7Gd7/73aBMCIzvfve7WF9fx8bGRtCmhJbd3V388R//Md5++20cP348aHPIEPijP/qjQMNny48QoiQUP0KIklD8CCFKQvEjhCgJxY8QoiQUP0KIklD8CCFKQvEjhCgJxY/sS4LcHU0VVlZWAt3Ea1BGTvys+4g6OVqpVCpYXFw0zy8uLqJaraLRaCASiWBra6vpnFMbRgnDMIZq87D970Wj0cDS0hIOHTq0r/LSMAxUKhXkcjnEYjHP/K1Wq6af3eKfy+Wazp86dQpzc3Oj+1XwoHYP6XfzEvx2F61Wt9aoFAqFjjtbWXd3q9frolQqNfmh67p5f6edyOROYW53rBIi2A2MhBBmfMPsf78bGOm6LjRNM3dwG3Ze+oncGc+uvPdLJpMRmqaJUqnUtKNcK3KnvtZwt7e3haZpPXd+syPoDYxGUvzs3FrddV1vckun0113tJLb79n52yq23WxxQpDiJ8VhWOLnlf+D7N5mJ3LDyssg8Er8ksmkSKfTPYVL1/WuoptMJrl7mx/UajVH10WjUfPaSqWCq1evdt3RqtOGL5lMBvF43NzkO0gMw0CxWDS7Z7lcrqnLYdd1a3XLZDIol8tN5xqNBsrlstmVkt2bVCplblo+iP+AP5uZNxoNzM/P48SJE7bn3eZlr/RuNBooFotmupXLZUQiEcRiMXMjb+u1ckPxWCyGra2tPmPpDTIvlpeXe24+lM/n8cYbb3Q8Pz09jfn5+dHr/gYlu16qPno8CeVTy223Rvop79/Z2bE975Z+W36apolsNiuEeNRV0zStqcshu29Wu2q1Wptbp9+wbPit67pIJpMCgDlM0K//QrjfzLyflp/sbtt13/rJy17pLVu41nST6ZFMJk1/5L2y1bm5uWlrg1N6lfdeyC5sqVQyNy7XNE1sbm62Xbu5uWnGrVO4Ms5yc3unBN3yU0L8+i0s8h5rV846Xuin+MkKYxVw2VW3duXs4upEnOzcZCWxdmn69d8t/YifFDY73Oall+ltN/6MLmOQvRg0fTOZTJP4Wh90UuiEeCTaUvy7hSuHmNx2fSl+HjBs8RPicatH0zSzQvgpfrJwWpGFzjqW6aX49XtvUOLXLVy3eelleltbiK1HPwyavt0edNYWq1X4eoXbj01Bi9/Ijfn1QzKZBICB1iSNjY1hZ2cH5XIZiUTC9/VNq6urbW5yrEaOsRFnOMlLL9NbXi+EaDvCgtzfWMa7XC7j1VdfDdKkoaOE+J0+fRoA8PHHHw/kz+TkJEqlEsrlMjKZjAeWOUfTNACwHVSW4j4shu1/EPTKy2Gkt3XyKEi6NQZkvGOxGI4ePdpxkms/oIT4aZoGTdNsn+aSvb09R28EaJqGQqGAq1evemliT2ZnZwEA9+7dM91k4R3WRkiyssqHR9iRIua0Vd4tL71M72w2CwBYW1sz/QjyDRRpv7UxIO2S8e7WSu3UYk2n00OyeEgE1N/2rL9vnYHsNpsrZ9xaFzkL8Wi2yjr+Y/W3k5/dBtd70c+Ynxyot9pZKBSaxmiEEG0ztHKQHpbxHDkGVa/XzUFqeY0czJdru1rXRvbrf5Czvf3kpZP0tpY9OQMsxwWt4Vmvsx7SztYJiG5Y/bdbn+fUL5m30sZsNtt1HawQnO31DC8iblegugmSruuiVCqZFRi/HbzOZrNNFcapn70KSyf6XeoiZ9+sQtVaAaSQWwujXGYhC7oc3E6n000D/rLSyPuz2axn/vshflJkrDOWg+Rlr/S287dTWLVazRTZZDLZVN7km0dOxadbfJz6JYRoiptdXncKvxX5AHS7lIzipyBBv95mR68Hh98M8oZHP28bhIF+H6bD9qsX6XSab3gQEjSJRAK3bt1CpVIJ2hRXVCqVrm8gBeVXL6rVKqrVKhKJhC/heQnFj7S9sjXKRKNR5PN5XLt2DdVqNWhzHLG1tYXDhw93fMUyKL96cffuXayuriKfz/d8RS6MUPwIxsfHbf8fVcbGxrC2toabN28GbYojTp48iWPHjoXOr16Uy2VcuXIFY2NjvoTnNU8GbQAJHhGixbZeEY1Gcfny5aDN2NeMevqy5UcIURKKHyFESSh+hBAlCXTM78qVK7hy5UqQJgTKfnlHcpj88R//cdAmkH1KYOL3ve99b6R3fiKDsb29je9///t47733gjaFBMjx48cDCzsi9uNUHwk96+vrmJmZ2ZczzWQk2OCYHyFESSh+hBAlofgRQpSE4kcIURKKHyFESSh+hBAlofgRQpSE4kcIURKKHyFESSh+hBAlofgRQpSE4kcIURKKHyFESSh+hBAlofgRQpSE4kcIURKKHyFESSh+hBAlofgRQpSE4kcIURKKHyFESSh+hBAlofgRQpSE4kcIURKKHyFESSh+hBAlofgRQpSE4kcIURKKHyFESSh+hBAlofgRQpSE4kcIUZIngzaA7H9+/OMf44tf/CJ+/etft52LRCJNv1955RX893//t0+WEZVhy48Mneeeew5/8Rd/0SZ0dsTjcR8sIoTiR3xibm4OTzzRvbgdOHAAZ86c8ckiojoUP+IL3/rWt7qK34EDB/DXf/3X+MIXvuCjVURlKH7EF5555hl84xvfwJNP2g8zCyEwNzfns1VEZSh+xDfOnz9vO+kBAAcPHkQsFvPZIqIyFD/iG7FYDJ/73Ofa3J988kn8zd/8DZ5++ukArCKqQvEjvvHZz34Wf/u3f4uDBw82uf/617/Gt7/97YCsIqpC8SO+Mjs7i4cPHza5Pf3003j11VcDsoioCsWP+Mr/+3//D7/7u79r/j548CDOnTuHp556KkCriIpQ/IivPPnkk01i9/DhQ8zOzgZsFVERih/xnXg8jl/+8pcAgLGxMfzlX/5lwBYRFaH4Ed/5i7/4Czz//PMAnL35QcgwYKkjvhOJRHD+/HkAwLlz5wK2hqiKq6+6bG9v4+233x6WLUQhdF3H008/jX/9138N2hSyT9jY2HB1vauW3/3793Hjxg1XAZDhcuPGDTx48CBoM1zzzDPP4Pjx476EValUUKlUfAmL+M+DBw/60qW+vufnVmHJ8IhEInjzzTdx9uzZoE0JLdPT0wBYbvcr6+vrmJmZcX0fx/wIIUpC8SOEKAnFjxCiJBQ/QoiSUPwIIUpC8SOEKAnFjxCiJBQ/QoiSUPwANBoNFItFpfeQWFxcxOLiYtBmhJJGo4GVlZWgzdjXrKyswDAMX8Ok+AFYWlpCPB5HuVz2LcxGo4HFxUVEIhFEIhEUi0Xfwg4jhmE42tTcbxqNBpaWlnDo0CEzrzo9JOR56xFWDMNApVJBLpfz9KFfrVZNP7vFP5fLNZ0/deoU5ubm0Gg0PLOlJ8IF7733nnB5y8gAwLe41et1sb29bf4uFAoCgMhkMq79AiDee+89L80LhFKpNLT0P3PmjDhz5ozr+3RdF5qmmXml67qZV+l02vaeer0uAIh6vT6QzcMmnU6LdDrtabnPZDJC0zRRKpVErVbreN3Ozo5tuNvb20LTNKHruqtw+9Sldbb8AuDevXuYmpoyf8vPOs3PzwdlUqAYhoFcLhe0GW3k83lMTk6aeRWNRs28unr1qm1rfWxsrOlvWFleXsby8rJn/qVSKei6jrW1NWiahiNHjtheZxhGx48QTE1N4YUXXkA+n/fMrm74In5yzCQSiSAWi2Fra8t0t461lctl85q9vb0mPwzDQLFYNLsTdpXF7hq7ZrT1ulgshrt377q2u1wuIxaLwTAMpFIpV+NlVuGT9gBAOp127IeXtOaDk3yxpgHwuBuTSqWa0tOuC9jqlslkzCEHq3uQ45CNRgPz8/M4ceKE7flMJoN4PO54uKJX2XRTFzqVy6CQebS8vIxoNNr12nw+jzfeeKPj+enpaczPz/vT/R1287JerwtN00ShUBBCCLG5uSkAiJ2dHaFpmtn8lV2LWq0mAIhkMtnkj6ZpTV2NZDLZ1vXQNE1ks9mmcO2a0ZqmiWQyabrLrow1bm7s3tnZabPXKbVazex+3Llzx/X98KDba41P6+9O+SLPW6/RdV0kk8mmuMhuoDVtpV9Wt9bfQjzumg1KP91e2Q23675JO2W+7ezs2J630qtsOq0L3cplP9iluxtkF7ZUKolsNisACE3TxObmZtu1m5ubZtw6hSvjXCqVHNvQb7d36OInhcUKLGMmdonQ6ib9sI6jyPEBiSwErdcAMAuKEI8LtVVodF3vGGYvu92OT1ixigACHvNzIkZOrpGVwRqXfv3yin7ETwqbHdJdjgm2lqfW+5yWTTd1ofWafh8Sg6Z7JpNpEl/rA9A6rl2v103x7xaurItu6kJoxc/6RGs9hHCW4dKPbsgEtyIT0iqSdtd1C9ON3f2ys7NjVjZrAXFC2MTPa7+8oB/x62aP1V22bDVNM8Wt9T6nZdNNXehULt0yaLp3ewBaW6yt5bpX+rqxKbTi1ysiXlWMQSpiP2F6XVnv3LnTl58Uv94MU/yEeFzZZTe2V1w7uQeRTsMQv1Z3u9nfMIifb7O9nSYVnKBpGoBHa4h6XWM3UJpMJvsOexC73XDs2DFfwvGLQdJ81JicnESpVEK5XEYmk2k7P4yy6Ve57IW0326Bsox3LBbD0aNHO05+BcXQxS+bzQIA1tbWzARyu2JeJuLq6qrpx97eHlKplHmN3Pj63r17ppu8Vn7G3GpPNyH1ym43yDAKhcJQ/PcLWSlPnz4dsCWDIUXM6VsHmqahUCjg6tWrbeeclk0n+F0ueyHt//jjj003aZeMtxCi7ZBY/7fiy8oHN+3Efmd7YTM+UavVms7JiQPr5IMcQ5EzXNb7k8lk26SFnEGT9xUKhbZZWDnJoGma2RSXA9LSXzd294OmaSKTyZjh67re98wmPOj2WuNTr9cd54v8LQftZTys41hCiLYZYDnYb01vmb/1et0c7A7jbG+vRcx2EyVOyqabutCpXArRPgHRDav/dhN3Tv2SeS5tzGazbWWglU71Z1/N9grRvJwjmUyaGdWagZ3chHiU6dKPdDptuyxEzihZK6VdptZqNbNCJpPJpuUD1kLtxO5emWyHrFjyyGQyTTNjbvBC/Owqk5N8kf9bl/9ks9m2NK/VauZ5Wahb01uOm6XTadMtSPGTImPNl05p04pdmehVNt3UhU7lUohHaZZMJh2LT7f4OPVLCNEUN7sy0Cn8VuSD0c0bMqEWPzI8vBC/QcIehfLQ7+ttmUymr+VHYaCfh7IffvUinU67TvPQT3gQMmokEgncunVr5Pb8rVQqWFhYCJ1fvahWq6hWq0gkEr6ER/EjfdH6atZ+JBqNIp/P49q1az0nyMLC1tYWDh8+3PYKZdB+9eLu3btYXV1FPp/v+YqcV/S1aTmxx+m0vegwwzVKjI+PN/2/H+Jkx9jYGNbW1syPHISdkydPhtKvXpTLZVy5csXXD0JQ/DxkvwqAHSrFNRqN4vLly0Gbsa8JIn3Z7SWEKAnFjxCiJBQ/QoiS9DXmF+a9CVRkZmYGMzMzQZsRelhuiZW+xO+9997z2g7SJzMzM/jOd76Dl19+OWhTQsv3vvc9AMCbb74ZsCVkGGxvb+P73/++6/v6Er+zZ8/2cxsZAjMzM3j55ZeZJ13Y2NgAwHK7n+lH/DjmRwhREoofIURJKH6EECWh+BFClITiRwhREoofIURJKH6EECWh+BFClITi55JGo4FisYhYLBa0KcQngtwdTRVWVlYc75TnFYGKn3Ufz25HmFhaWkI8Hke5XA7alMAxDGOo+TNs/53QaDSwtLSEQ4cOmeVxcXHR9tqwl10rhmGgUqkgl8t5+iCvVqumn93in8vlms6fOnUKc3Nzvn4VPFDxE0JA1/Wm39bjzp07AVpnzzvvvBO0CaHhgw8+GGn/e2EYBhKJBC5evIhkMgld1829ee0EUAiBer0OAKjX66H+4Gsmk8EPfvADXLp0ybMH+crKChYXF/Hss8/i+vXrHeNfrVZx6dKlJrfJyUksLCwgkUj41gIMvNvb7Xv9x44d89ES4gbDMJDL5UbWfyfIT9fLPSyi0SjOnTsHALh69SqKxWLbPfIz7H5+jr0flpeXsby87Jl/qVQKuq5jbW0NmqbhyJEjttcZhoEbN27YnpuamsILL7yAfD7vmV3dCFz8OiGbxPLp0TrWVi6XEYlEEIvFsLe313SvYRgoFotm18OuEtldY9fktl4Xi8Vw9+5dW3vluJC8bmtry3Qvl8uIxWIwDAOpVKpjt8kvesXdrtvW6pbJZMwWg3S3xhV43LVJpVJN6dav/wCwuLjoS/o1Gg3Mz8/jxIkTtuczmQzi8bitANrRK83dlO9OZS0oZH4sLy/33Hwon8/jjTfe6Hh+enoa8/Pz/nR/fdgfsyew2ZS5NRy56TUsG0nL65LJZNu11s2uk8lk2+bXmqaJbDYrhBDmpuWaprVttqxpmkgmk6Z7oVCw3VBdbsIthBCbm5ttm3lLu3d2dtrsHQT0sW9vr7jLDbvt8sTq1um3NY90XTc3iJcbzffrvxD9bWTez769cmN564bgVrukLTKf7c5b6ZXmTst3t7LWD3Zp7Aa52XypVDI3Ltc0TWxubrZdu7m5acatU7gyznJzeyeM9Kbl1kpjPTpd181NipN1x/ft7e2mjZdlgWm9BoBZqIR4XAFkpRXiUWXuFGarXbKSyut77WLfD27Fz2ncnaS1k2uEeFxBrJtR9+t/P/QjflLY7JDuuq6bomUtI633eZnmvcqaWwZN40wm0yS+1oedFDohHom2FP9u4cr65Wbj8n0hfhK7lp/ddXZusjB2Q2aOFZnoVpG0u65bmJ0E3KtKbIdb8XMady/Fr997gxS/bmFb3WUrVtM0U9xa7/MyzXuVNbcMmsbdHnbWFqtV+HqF69amfSV+0s3pdW4rzCAVtJ8wwyR+wxYn1cRPiMeVXXZjRyFNvPLPSdxKpVLb8EEYxC+0Ex6iz2UCmqYBeDSd3usau0HVZDLZV7gAOk6GhIlhxd0Jw/Y/KCYnJ1EqlVAul5HJZNrODyPNw1LWpP12y1NkvGOxGI4ePdpxoisoQit+kr29PVezezLBV1dXzQzZ29tDKpUyr5mdnQUA3Lt3z3ST105PT5tu2WwWQHchtV63trZm+hPWtwKcxt1LZEU9ffr0UPwfBlLEnK450zTNXAPYipdpHrayJu3/+OOPTTdpl4y3aFm/a23YdGrkpNPpIVlswU07cRjdXrsJBEmtVhPJZFJsb283zRDKiQPrvXK8Rc6GSXf8duyhddJCzrbJ+wqFQtssrBx71DTNbLbLwWvprwzTGp48arWa7cyml8Blt9dp3FtnaOUAvTXeMp3r9bo5QC2vkQP5uq6Le8NFJAAAIABJREFUdDrdNLY1iP9Bz/bK/LROXlixmyhxkuZuynensiZE+wREN6z+203GOfVL5q+0MZvNtuV3K93qPKDAbK9dJtod1kyyJpqdmxCPCogshOl0ukn4rNfIqXlZWe0KgBRgWSmtSw2sFaBWq5lhJpNJszBa7etVIPrBrfgJ4SzutVrNFB9ZEFvjLce60ul002C/rDDy/mw265n/fomfFBnrjKVd2bTDLp97pbmb8t2prAnxKH2SyaRj8ekWH6d+CSGa4maX353Cb0U+BDs9XOwYSfEjg9OP+A2TYbZy+6Uf8RPiUcvHzZKLMOHlg3YYD+1OpNNp12m+7yY8CAmaRCKBW7duoVKpBG2KKyqVChYWFkLnVy+q1Sqq1SoSiYQv4VH8iGe0vq416kSjUeTzeVy7dq3npFdY2NrawuHDh833kcPiVy/u3r2L1dVV5PP5nq/IeQXFj3jG+Pi47f+jzNjYGNbW1nDz5s2gTXHEyZMnPfsgiJd+9aJcLuPKlSu+fhDiSd9CIvseEeJPOA1CNBrF5cuXgzZjXxNE+rLlRwhREoofIURJ+ur2rq+ve20HGYDt7e2gTQg1Dx48AMByu1/pt/xHhIuBmvX1dczMzPQVECGEDBOXY84brsSPEK+QD1IWPxIQGxzzI4QoCcWPEKIkFD9CiJJQ/AghSkLxI4QoCcWPEKIkFD9CiJJQ/AghSkLxI4QoCcWPEKIkFD9CiJJQ/AghSkLxI4QoCcWPEKIkFD9CiJJQ/AghSkLxI4QoCcWPEKIkFD9CiJJQ/AghSkLxI4QoCcWPEKIkFD9CiJJQ/AghSkLxI4QoCcWPEKIkFD9CiJJQ/AghSkLxI4QoCcWPEKIkFD9CiJJQ/AghSvJk0AaQ/c9PfvIT3Lx5s8mtUqkAADY2NprcDx06hNOnT/tmG1GXiBBCBG0E2d/84he/wNjYGH7605/2vHZubg7//u//7oNVRHE22O0lQ+ezn/0svvWtb+Gpp57qeW08HvfBIkI45kd8YnZ2Fr/85S+7XvPMM8/g1KlTPllEVIfiR3zh5MmT+MIXvtDx/MGDBzE7O4uDBw/6aBVRGYof8YUDBw7g29/+dseu78OHD9nlJb5C8SO+EY/HO3Z9n332Wfz5n/+5zxYRlaH4Ed+YmprCkSNH2twPHjyIixcvIhKJBGAVURWKH/GV8+fPt43rsctLgoDiR3zl/PnzePjwYZPbSy+9hMnJyYAsIqpC8SO+MjExgT/8wz80fx88eBB/93d/F6BFRFUofsR3Lly4YHZ9Hz58iJmZmYAtIipC8SO+E4/H8atf/QoA8Kd/+qf40pe+FLBFREUofsR3XnzxRfzZn/0ZAODixYsBW0NUheJHAuHChQs4cOAAzp49G7QpRFWEh0xMTAgAPHjw4OH5sbS05KVcrXv+Pb8zZ85genraa2+VZWNjA9vb23j77beDNsVzPvnkEzz//PMD+3P//n3Mz88jk8ngi1/8ogeWkbDx1ltvee6n5+J3/PhxdmU85KOPPsLu7i7TtAu7u7uYn5/HN77xDRw/fjxoc8gQ+O53v+u5nxzzI4QoCcWPEKIkFD9CiJJQ/AghSkLxI4QoCcWPEKIkFD9CiJJQ/AghShIa8atUKkilUohEIvjWt76Ff/zHf0QsFgvarH3D4uIiFhcXgzYjlDQaDaysrARtxr5mZWUFhmEEbUYToRC/ra0tvPzyy/jHf/xHCCGwtbWFf/mXf0G5XHbsh2EYbXtA2Ln5TbVaRSQSMY9UKhWoPUERhrywo9FoYGlpCYcOHTLzqNNDwpqP8ggrhmGgUqkgl8t52oioVqumn93in8vlms6fOnUKc3NzaDQantkyKJ6/3tYPGxsbAGBubvOTn/zEdcH64IMPHLn5zQ9/+MOm36dPnw7EjuXl5UDClYQhL1oxDAOJRAILCwuYmppCPB7H+++/b+4n0ppmQgg0Gg2Mj4+jXq9jbGwsCLMdkclkAABXr171zM+VlRXcunULr7/+Oq5fv45SqWR7XbVaxaVLl5rcJicnsbCwgEQigbW1NUSjUc/s6pdQtPxWV1cHut8wDORyuZ5uQfDss89CCGEemqYFbZLvhCUvWsnn85icnMTU1BQAIBqN4ty5cwAeiUaxWGy7RwpemIUPeCTcXj7wUqkUdF3H2toaNE2z3YUPeJTXN27csD03NTWFF154Afl83jO7BiFQ8WvtOnTrSsgKZO2ayCZ0JpMxu8jyvJ2bRI7xRCIRxGIxbG1tme7FYtHsJpTLZfOavb091/Hb29tDLBbD4uIiKpWK6/u9ojVeTuLZaDRQLpfNa2Tap1Ip3L171/TbrgvY6tYpL4Ich2w0Gpifn8eJEydsz2cyGcTjcVsBtMMwDBSLRTN+uVyuqYvnpmx1Kp9BIfNoeXm5Z4stn8/jjTfe6Hh+enoa8/Pz4ej+evmBrImJib6+uYXffq+rm1symRQARL1eF7VaTQAQyWTSlR9CCFGv14WmaaJQKAghhNjc3BQAxM7OjtA0zbxne3tbCCFsw3JKqVRq+h6ZpmmiXq+78mNpaUlMTEy4DtuKNV6tvzvF02q3vEbXdTMf7ty5I4R4lJ6t6Sz9srrZ5UU6nRbpdHqguAkhxO3btwUAcfv2bcf3yLyp1Wpt56Sd6XTaLBt2561omiay2awQ4nEZ0zRN6LpunndStrqVz36wS3c37OzsCACiVCqJbDZrluPNzc22azc3N824dQpXxrlUKrmyo19t6cL6yIhfOp3uKnZOxa9QKNheJyuhU3+couu62NnZMSuSrCBO8UL8hOgvveyukZUhk8kM7JdX9CN+Mj/skO66rpuiJcXeel4iBcr6YNve3hYATBGT9/VKp17l0y2Dpnsmk2kSX+sDUAqdEI9E21q2O4Wr63pb+XGC0uInqdVqZob0I37WJ3Dr4dYWt2SzWaFpmqt7wiZ+XvvlBf2IXzd7rO6yZWtttbfeJ8XAiqzk1vx2kk69yqdbBk33bg9Aa2Ok9aHeK33d2jQM8QvFhIdTcrkc/v7v/36gSQM59iQskxDyGDZnz551tXyHBM/Y2Bh2dnZQLpeRSCRs16rZTdjJsTG3+R1k+XSK3GBexrtcLuPVV18N0qS+GBnxKxaLuHTpEq5fv45jx44N7J910N4votEoksmk7+EOg/0SDydMTk6iVCqhXC6bS0isyIex3SB+v+kURPm0Q9pvJ/oy3rFYDEePHu04+RVWRkb85NqrTlPsTslmswCAtbU1M0P9WuFvGMbI728iK2VQ6xW9QoqY07cONE1DoVCwXTc3OzsLALh3757pJv11m99Blk87pP0ff/yx6SbtkvHu1krt1GJNp9NDstgFXnai++mXy/EDwH4GUY6zyLGQWq0m7ty50/F8vV43B1Pt3Kx+W49ardZ0Ts7SybEba1hOKBQKTTNitVrN9QyXEN6M+bWmp9N4yt9y0F7XdZFOp9vGLVtngOVgPyzjQnZ5EcbZXpk2nfLabqJEToxYxwULhULbLK6TNO9WPoVon4DohtV/GaYVp37JPJc2Ohm7luG2wtne32KXyXaHEI9FMp1Oi3q9bs7+ykLRer6TmxCPMkAWYqsfduHauTnBuswlnU73vVTBC/Fzkr7d3KzLgLLZbFtFqtVq5nlZqOVyjW55EaT4SZGxzlh2SptW7Cq+nO20PjCs6eSmbHUqn0I8XvXgVHy6xcepX0KIprjZlYFO4bciH4xul3ztO/EjvfFqtrcf3Ap+UPQjfkI8avm4XXIRFtyuGvDLr16k0+m+0lz52V5CvCSRSODWrVuBvn3TD5VKBQsLC6HzqxfVahXVahWJRMKX8HpB8SO2tL6atR+JRqPI5/O4du0aqtVq0OY4YmtrC4cPHzbfRw6LX724e/cuVldXkc/nQ/FRAyAkX3UZJZxO3YsQrcvqh/Hx8ab/Rz0+nRgbG8Pa2pr5kYOwc/LkyVD61YtyuYwrV66E6oMQFD+X7FcRaEWVeAKPWoCXL18O2ox9TRjTl91eQoiSUPwIIUriabf3N7/5DXZ3d7G+vu6lt0qzu7uLn/70p0zTLty/fx8A8J//+Z/Y3d0N2BoyDH72s59576mXC2deeuklxwuXeTg/nnrqqcBt4MEjyOMzn/lMuNf5feYzn8HS0pLtu348+juWlpbwe7/3e4HbEebj9u3bAIDbt28HbguP4RwvvfSSl1IFgGN+hBBFofgRQpSE4kcIURKKHyFESSh+hBAlofgRQpSE4kcIURKKHyFESfaF+DUaDRSLRcRisaBNIfuYIDcSCisrKyuON4EKG6EVP+s2eN0OAFhaWkI8Hne1R6phGG3f5rNzU51hp8mopHmj0cDS0hIOHTpklr3FxUXbazuV07BTrVaRy+UQi8U62pzL5ZrOnTp1CnNzcyP5wdvQip8QArquN/22Hpubm+a5d955x7X/H3zwgSM31Rl2moxCmhuGgUQigYsXLyKZTELXdXMbSzsBFEKgXq8DAOr1OoQQfpvsmpWVFSwuLuLZZ5/F9evXbW2uVqu4dOlSk9vk5CQWFhY6bugeZkIrfgC6fu56kK/QGoaBXC7X0011hp0mo5Lm8ivP8nPv0WgU586dAwBcvXoVxWKx7R75xeIwfbm4E6lUCrquY21tDZqm2e6NbRgGbty4YXv/1NQUXnjhBeTz+WGb6imhFr9OyGZ3tyeqrFjWLopsmmcyGbOLLM/buQGPx3kikQhisRi2trZMd+s4Y7lcNq/Z29sbTsRdYBgGisWiGZdcLtfUNbHrkrW62aVJo9FAuVw24y3TOJVKmRuaD+I/ACwuLnbsUvpNo9HA/Pw8Tpw4YXs+k8kgHo/bCqAdvfLFTbnqVDbdINN5eXm5a2Mjn8/jjTfe6Hh+enoa8/Pzo9X9FR4yjK0r8dtP2kjkpse9rpMbadfrdfMe6ybSrdfbudXrdXP/WSGE2NzcFEDzPrbA471f7cIZlH63rtQ0TWSz2aZ4aJpm7rdq3RxbIu23unX6bY23ruttG5f3678Q7vfz7XfrSid02txcCGHaLffYbd2b2a6c9soXp+WqW9l0itxLuVQqmfvyapomNjc3m67b3Nw0bbHLL6uNbjcjd4qS+/ZaK5v16HSdRG7I3Om8E/ErFAq218iK6cSPQelH/GRFsG4MLTeLlpWlk639pJMQjyuSdU/Wfv13yzDFTwqbHdJd13VTtKT4W89LvMyXXmXTCZlMpkkwrQ8xKXZyM/Zutsl7W/PfS5QWP4nTlp/1epnJbiu19SlsJ75hFT9ZgK3IwmndoNpL8ev33rCLXzf7rO6ypatpmilurfd5mS+9yma/cZMPMdlwsApfp3ucnBsUbloO2A7GdiKXy+Hv//7voWlaX2HJ8Shh83HFMLO6utrmJsdz3CwHIs4ZGxvDzs4OyuVyx5lPL/NlWGVTbt+5urqKcrmMV199dSD/wszIiR8ARxlcLBZx6dIlXL9+HceOHRsoPOtA/iggxd5u8DmZTA417GH7H2YmJydRKpVQLpeRyWTazg8jXwYpmzJMO6HWNA2xWAxHjx7tOHk16oyk+DkhHo8DcNdSbCWbzQIA1tbWzAIyCqv8Z2dnAQD37t0z3aT909PTQwlTVsLTp08Pxf+gkCLmdA2bpmnmGsBWvMwXL8qmDPPjjz9us2d2drZrq7JTAySdTruKR6B42Yn2ul8ux0MAmLNhdlhnFuV4ixwTqdVq4s6dOx3P1+t1c5C21c3qr/Wo1WpN56RtVnutg9qD0M+YnxyAt44/FQqFtlno1hlaOfgOy5iPXTrJa+Qgva7rIp1ON41bDeL/KMz2yvzvlM92EyVO8sVpuepWNoVon8zohMw36W82m23LRysynFY42+uhgXYZ20mr7a6RA7fpdFrU63Vz9lcWjtbzndxqtZpZkK3324XpxFa39LvURc7SWYWq9QFSq9VM8ZGFVi6f6JYm0k/rkp9sNuuZ/2ESPykycvZTCPuyaYediPTKFzflqlPZFOLxaoduQiax2mOXj1Y6xVc+2Lx66LeilPiRR/QrfsPES3H3gmGKnxCPWlHDWsIxbJyInxek0+mhphFnewkJgEQigVu3bqFSqQRtiisqlQoWFhaGHk61WkW1WkUikRh6WF5C8SOuaH0VSwWi0Sjy+TyuXbuGarUatDmO2NrawuHDh833kYfF3bt3sbq6inw+3/X1uDBC8SOuGB8ft/1/vzM2Noa1tTXcvHkzaFMccfLkyYGXeDmhXC7jypUrI/EBh1aeDNoAMlqIkC/wHibRaBSXL18O2oxQMcrpwZYfIURJKH6EECWh+BFClMTzMb+NjQ3s7u567a2yfPTRR/jRj340tNfSguIXv/gFPv30U08Gyj/99FMAwFtvvYXPf/7zA/tHwseDBw889zMiPBzBfuutt3D//n2vvCP7mAcPHqBSqeDMmTNBm0JGhLNnz3rZCNjwVPwIccr6+jpmZmaUnj0mgbLBMT9CiJJQ/AghSkLxI4QoCcWPEKIkFD9CiJJQ/AghSkLxI4QoCcWPEKIkFD9CiJJQ/AghSkLxI4QoCcWPEKIkFD9CiJJQ/AghSkLxI4QoCcWPEKIkFD9CiJJQ/AghSkLxI4QoCcWPEKIkFD9CiJJQ/AghSkLxI4QoCcWPEKIkFD9CiJJQ/AghSkLxI4QoCcWPEKIkFD9CiJJQ/AghSkLxI4QoCcWPEKIkTwZtANn//PjHP8Y//MM/NLndv38fAHD27Nkm9xdffBH/9m//5pttRF0ofmToPPfcc/if//kf/N///V/buY2Njabf//RP/+SXWURx2O0lvnDhwgUcPHiw53XxeNwHawih+BGfiMfjePjwYddrJiYmcPz4cZ8sIqpD8SO+8Ad/8Af4kz/5E0QiEdvzBw8exMWLF322iqgMxY/4xoULF3DgwAHbc7/61a8wMzPjs0VEZSh+xDdmZ2fx61//us09Eongq1/9Kl588UX/jSLKQvEjvvH888/j61//Op54ornYPfHEE7hw4UJAVhFVofgRX5mbm7Md9ztz5kwA1hCVofgRX5menm4SvyeeeAInTpzA+Ph4gFYRFaH4EV85fPgwTp06hSeffLy+fm5uLkCLiKpQ/IjvnD9/Hr/5zW8AAAcOHMBrr70WsEVERSh+xHdee+01820PTdMQjUYDtoioCMWP+M7TTz9ttvbOnz8fsDVEVXz5sMF//dd/wTAMP4IiI8LRo0fxO7/zO/j5z3+O9fX1oM0hIeL48eP+vOYofGBiYkIA4MGDB4+ex9LSkh+ytO5bt3dpaQlCCB4+HEtLS5iYmAjcjl7Hz3/+88DCvn37NgDg9u3bgacDj8fHxMSEX5LEMT8SHJ/73OeCNoEoDMWPEKIkFD9CiJJQ/AghSkLxI4QoCcWPEKIkFD9CiJJQ/AghSjJS4tdoNFAsFhGLxYI2RQkWFxexuLgYtBmhpNFoYGVlJWgzQsfKysrIvMo6UuK3tLSE+P9v74xh2zaiMPwLaKcAVZFBGQK0m4E0AbR6jeEpwGkzEAcIuggFPRRoG00GDcewkYlpu8WQtGmQUHcS0S0W4C7WUoACkgL2EIRZCnIiu3a4Du1dThQlURRFiub7AAH2kbx7vHv3ePfekbe7C9M0sxYlFq7r4uDgAKVSCaVSCb1eb+y47/vyWPAXPLcIiPpYN1zXxeHhIW7duiXbZ9pDIqwt88BoNEKr1UKtVpspc6vVGju+vb2Np0+fwnXdNMRcDp4C9+7dS+x9Pfz//l/ecByHX15eyv+73S4HwA3DkGmXl5dT33d0HCdyWYeHh/zevXuJyp8F/X5/ZW395s0bDoC/efNmoes8z+OMMdmWnufJttR1PfQax3EWbsMsMQyDM8Z4v9/ntm1PPc+yrND+eHl5yRlj3PO8hctO0lbMIb13e4vOu3fvsLm5Kf9//PgxAKDRaMi09+/fw7btsXcdHceBruuoVCqpy5wlvu+j1WplLcYE7XYb1WpVtmW5XJZteXJyEjpCF22Xhzbc29uD53nodDpgjOGLL74IPc/3ffz666+hxzY3N3H37l202+1Viro0a238fN9Hr9dDqVRCrVbD9fV16HnC/yLOGwwGMl31EZqmKc/58OHDWB7i+larBdd1J4b608qIimr4xL0BgK7rMm1ra2tC2QaDQSab+wTrLkpduq4L0zTlOWJKtLe3N9Z2YVPAYJphGNK9oaZn6Yd0XReNRgMPHz4MPW4YBnZ3dyO7KFT9VnVPLS+q/i6rnwBkvR4fH8/9wGy73ca333479fjOzg4ajcZ6T3/TGF/GHcoyxrimaXL4LKYXqtiO43DGGO92u5xzzs/PzzkAblkWZ4zJ88U0xbZtDoBrmibzMAxDDu89z+O6rkcuIw62bcsyrq6uZp6ryhmVJKa9at0F/59Wl1Cm6eq0UNO0sXsV00C1jkVealrwf84513V96vRyEeJMe8U0PGwqKOQU7RrUjbCuxhjjzWaTc/5Rx9TpYlT9TUI/xRS23+/zZrPJAXDGGD8/P5849/z8XMoT1kaqnP1+P7IMnKc77V1b4ycUTTUOnudNVLYwiCpQ/C9hjRPWyVR/jOicUctYBLWTI+DzC2JZllToRUjK5xfFGEU5R3Qs9V7j5pUUcYxf8KGoItKFTzCou8HrhIFS9U74fNU2j1JPSeinYRhjBlN9aKm+asdxpMGeJp+4fp5+h0HGj3NZ8UGCla0+HYO/sPPD0kRZ3W431Ek7r4w4WJYlO5OqTCq6rsdykq+b8Us6rySIY/xmyROcKYiRk2i/4HVh+i0MBmNsZpmL9oG49yYeWuooM6ir8+pk0fYj48eX60Tz8gmmXV1djSlQ8Gm1qk54dXU1NW/HcWJP78j4zWeVxo/zj4ZDTGPn3eu09LTqKYo8YdHfPBu/tQ54LMK0YEgUNjY20O/3YVkWNE1Do9EIXcC6TBnTyp1GVoGOVaJpWtYipEa1WkW/34dpmjAMY+I4YwwAQgMCcetpGf0UZYYtUBay1mo1fPnll1MDVnljbY1fs9kE8N9iyyjndTod2XCLrr4vlUrwfR/VahWvXr2CZVljS1CSKCMMkVe32504dnFxgWq1ulT+64LolI8ePcpYkuUQRizqGwyMMXS7XZycnEwce/LkCYD/lkAJRL47OzsLyZWEfooy379/PyGPkJWHfHZeoP6toq5mWDvSGF/GGcqKwABjTA61hZMYih9CjRyqP9u2x44JX54aNFH9Mbquy3Js2x6b+s4qIyqMsdCoctjUNm6gQ5DEtFe9Z8dxFqpL4KPTXtyn6sfinE9EgNUF3qJthSvCcRzZHusY7Z23iDksUCICI6pfsNvtTkRxo9T5PP0MBjOmIdpJ5NtsNifaLYgoKwhFe/8n7g3Zti07iaZpYyF9VdHUpSOapslGDyrDrDTRwRDi85tVRlRExxE/wzDGomgqcQMdgiSMX1hnilqXoqMJ49VsNicCSbZty+OigwTbVvjN1PrI0vgJI6O227S6CRJmRETkVH1gqPUUtc45n62fuq5zTdPmGjLO+Zg8Ye0WZNo9i4fZonpMxo9Yiixfb5tlANaJuK+3GYax8PKNdSGK8UsKXddj1RMFPAhiTanX67i4uMBwOMxalIUYDofY399PpazRaITRaIR6vZ5KeXEh40ckRvDVrJtIuVxGu93Gixcv5gbj1oXBYIDbt29PvGK5Cq6vr3F6eop2uz33FbmsIeO3JNM+QZXHzxgty507d0L/vmlUKhV0Oh28fv06a1EisbW1NXNZVZKYpomjo6NcfMThk6wFyDt8Soi/iBSpLsrlMp49e5a1GGtHnuqERn4EQRQSMn4EQRQSMn4EQRSSVHx+//zzD87OzvD27ds0iis8f/75J/7666+FX5MqEn///TcA4IcffsBnn32WsTSEwHGc1MqikR9BEIUklZHfp59+ip2dHTx//jyN4grP8+fP8csvv+Ds7CxrUdaWt2/f4sGDB/jxxx9x//79rMUh/uerr75KrSwa+REEUUjI+BEEUUjI+BEEUUjI+BEEUUjI+BEEUUjI+BEEUUjI+BEEUUjI+BEEUUjI+BFEAiSxm1/eePnyZeSd7NaRG2H8Zn1E9OXLlzBNM9eNlDd831/pB1xXnf+iuK6Lw8ND3Lp1S+rdwcFB6Ll5+tCt7/sYDodotVqo1WoTx7e3t/H06dPcfrX7Rhg/zvnYC9Ge58l9Rbe3t9FqtXLdSHnj999/z3X+i+D7Pur1Or7++mtomgbP8+RevWEGUNVVx3HW+gOwhmHgt99+wzfffAPTNCeOV6tV7O/vo16v53JwcSOMH4Cxz2arewdUq1W0220AyG0j5Qnf99FqtXKb/6K0221Uq1W5P0a5XMbjx48BACcnJ+j1ehPXCF1d90+9Hx8f4/j4eOY5m5ubuHv3ruxjeeLGGL9ZVCoVfPfddzBNc2LUIHw1pVIJtVoNg8FApvd6PTncN01TnvPhw4exPMT1rVYLrutOTGWmlbFu+L6PXq8np2PifgRhU7VgmmEYcpQg0l3XhWmasi5brRZKpRL29vZwfX29dP4AcHBwMHWquSpc10Wj0cDDhw9DjxuGgd3d3VADGMa8+l9EJ9PUuZ2dHTQajfzNrNLYIDOtvTgxY89YsdO9pmkyTd0EnXPOz8/PJzbchrJJtdiFXs3DMAy5QbTneXLj6ChlrIq4+/Yyxniz2eScf5SbMSY3rhabdiOwWXYwbdr/al16nic3pL+6uloqf84X38w87r69KmIj+rAN7IV8Qh+C7R2mp/PqP6pOJq1zs/qVKoPYfH4ZaNPymMxrpODxbrc7cT4A2YnC8gvriOqu9KIDRy1jFcQxfqKDqPdyeXnJAchOxHn0Opl3DuecW5bFAYxtbh03/0VJwvgFH3QqIt3zPGm0hJFXjwuSrP+kdW5efYuBRRKbuZPxi8mixk99kgZ/0/ILponRS7fblU9olXllrII4xk/ch4pQasaYTEvS+MW9dl0yjDQpAAADMElEQVSM3yw5gqN/UY/CuAWvS7L+k9a5KNcmpdNpGr9C+PwAyECHrusyTfiO+P+RYfUXle+//x6MMezu7uLzzz+fWOuVRBlpcHp6OpEmAkdhkT4iOpVKBZZlwTTNqUG3JOs/LzqXNYUxfn/88QcAhDqnVaf7omxsbKDf78OyLGiahkajEbrYdZky0oAxBgChTmtN01Za9qrzXweq1Sr6/T5M04RhGBPHV1H/665zWVMI4+e6Ln7++WcwxrC1tSXTm80mAKDT6cin8aIr9UulEnzfR7VaxatXr2BZFhqNRqJlpMGTJ08AAO/evZNpQt5VbYQkOuejR49Wkv+qEUYs6vIpxphcAxgkyfrPSufUWVUuSGNyncY8XvhHAIz53kTkVvW3CNToovqzbXvsmMhPLUP13ei6LiN+tm2POX5nlbEq4vj8hGNeradutzsWReScT0RohVMe+BhxFD4nx3FkXYhzhPNeRMZVf9Yy+a9TtFe0eVDfBGGBkij1H1Un5+mcYRgciBb9ndavVCjaO4NV31BYQ4ufYRhyWUAYtm1LZdQ0TSpIMJ9ZaaITivKilrEq4i51cRyHN5vNMUMVVHjbtqXxEcoullWIzieiuLqujz0kRIcT1zebzcTyz8L4CSOj6leYDoYRNPoiv1n1H1UnOZ+tc7quc03TQmVQmdangogH1DRjvwhk/IiliGv8VsksQ5AFSRg/zv8bRSWxxCML5hm/qOi6nlgdULSXIHJCvV7HxcUFhsNh1qIsxHA4xP7+/tL5jEYjjEYj1Ov1BKRKFzJ+xMoJvqJ1kyiXy2i323jx4gVGo1HW4kRiMBjg9u3b8n3kuFxfX+P09BTtdnvsffq8QMaPWDl37twJ/fumUKlU0Ol08Pr166xFicTW1hY2NjaWzsc0TRwdHa39Bxqm8UnWAhA3H16AxbXlchnPnj3LWoxUyfv90siPIIhCQsaPIIhCQsaPIIhCkprP7+joCEdHR2kVRwBrvT/EuvDgwYOsRSAyIhXj99NPP9Hn4wmCiMT9+/dTKafEixCKIwiCGOeMfH4EQRQSMn4EQRQSMn4EQRSSTwCcZS0EQRBEygz/Bb8vjFT7ywivAAAAAElFTkSuQmCC;" vertex="1" parent="1">
          <mxGeometry x="521.93" y="543" width="283.06" height="567" as="geometry" />
        </mxCell>
      </root>
    </mxGraphModel>
  </diagram>
</mxfile>
